<svg xmlns="http://www.w3.org/2000/svg" width="130" height="35" viewBox="0 0 113 30">
    <style type="text/css">
        .st0{fill-rule:evenodd;clip-rule:evenodd;fill:#fff;}
    </style>
    <g fill="currentColor">
        <path class="st0" d="M40 22.9L36.8 22.9C36.6 22.9 36.4 22.8 36.4 22.5 36.4 22.5 36.4 22.5 36.4 22.5L37 14.3C37.2 12.5 36.2 11.4 34.6 11.4 33 11.4 31.7 12.6 31.7 14.2L31 22.5C31 22.7 30.8 22.9 30.6 22.9L27.3 22.9C27.1 22.9 27 22.7 27 22.5 27 22.5 27 22.5 27 22.5L27.6 14.2C27.7 12.5 26.8 11.3 25.2 11.3 23.6 11.3 22.4 12.5 22.2 14.2L21.7 22.5C21.6 22.7 21.4 22.9 21.2 22.9L18 22.9C17.8 22.9 17.6 22.7 17.6 22.5 17.6 22.5 17.6 22.5 17.6 22.5L18.7 8.5C18.7 8.2 18.9 8.1 19.2 8.1L22 8.1C22.3 8.1 22.4 8.2 22.4 8.4L22.4 8.5 22.4 8.9C22.4 9 22.5 9.1 22.6 9.1 22.6 9.1 22.7 9.1 22.7 9.1 23.8 8.2 25.2 7.7 26.7 7.7 28.6 7.7 29.9 8.4 30.8 9.6 30.8 9.7 31 9.7 31.1 9.7 31.1 9.7 31.1 9.7 31.1 9.6 32.4 8.4 34.2 7.7 36 7.7 39.5 7.7 41.4 10.1 41.1 13.7L40.5 22.5C40.4 22.7 40.2 22.9 40 22.9L40 22.9ZM53.1 11.1C53.1 10.4 53.3 8.8 53.3 8.1 53.3 7.9 53.2 7.7 53 7.7 53 7.7 53 7.7 53 7.7L49.9 7.7C49.8 7.7 49.7 7.6 49.7 7.6 49.7 7.5 49.7 7.5 49.7 7.5L49.9 6.2C50.1 4.6 50.9 3.9 52.5 3.9 53.1 3.9 53.6 3.9 54.2 4 54.4 4 54.6 3.9 54.6 3.7 54.6 3.7 54.6 3.7 54.6 3.7L54.8 0.8C54.8 0.7 54.8 0.5 54.6 0.5 53.7 0.2 52.7 0 51.7 0 48.4 0 46.3 1.7 46 5.4L45.7 7.6C45.7 7.7 45.6 7.7 45.5 7.7L41.9 7.7C41.7 7.7 41.5 7.9 41.5 8.1 41.5 8.2 41.5 8.2 41.6 8.3 42.2 9.2 42.6 10.1 42.7 11.1 42.7 11.3 42.9 11.4 43.1 11.4L45.2 11.4C45.3 11.4 45.4 11.5 45.4 11.6L45.4 11.6 44.4 23.8C44.3 25.4 43.5 26.1 41.9 26.1 41.4 26.1 40.9 26.1 40.4 26 40.2 26 40.1 26.1 40 26.3 40 26.3 40 26.3 40 26.3L39.8 29.2C39.8 29.3 39.9 29.5 40 29.5 40.9 29.8 41.8 30 42.7 30 46 30 48.1 28.3 48.4 24.6L49.4 11.6C49.4 11.5 49.5 11.4 49.6 11.4L52.7 11.4C52.9 11.4 53.1 11.3 53.1 11.1L53.1 11.1ZM17 0.4C17 0.4 17 0.4 17 0.4L13.6 0.4C13.4 0.4 13.3 0.5 13.2 0.7L12.6 9.1C12.6 9.2 12.5 9.2 12.4 9.2 12.4 9.2 12.3 9.2 12.3 9.2 11.2 8.2 9.8 7.7 8.3 7.7 7.4 7.7 6.5 7.9 5.6 8.2 4.2 8.8 2 10.4 1.2 12.6 0.8 13.7 0.5 14.8 0.5 16 0.4 20.2 3.1 23.3 7.1 23.3 8 23.3 8.9 23.2 9.8 22.8 10 22.8 10.1 22.6 10.1 22.5L9.9 19.8C9.9 19.7 9.8 19.5 9.6 19.5 9.6 19.5 9.6 19.5 9.6 19.5 9.1 19.6 8.7 19.7 8.3 19.7 5.8 19.7 4.4 17.7 4.6 15.5 4.7 14.4 5.2 13.4 5.9 12.6 6.6 11.8 7.7 11.4 8.7 11.4 9.9 11.4 11.1 12 11.7 13 12 13.4 12.2 13.9 12.2 14.3 12.2 14.5 11.7 21 11.6 22.6 11.6 22.8 11.7 22.9 11.9 22.9L11.9 22.9 15.2 22.9C15.4 22.9 15.6 22.8 15.6 22.6L17.3 0.7C17.3 0.6 17.2 0.4 17 0.4L17 0.4ZM63.5 10L60.3 10C60.4 10.6 60.9 10.9 61.6 10.9 62.1 10.9 62.5 10.8 62.9 10.5L63.4 11.3C62.9 11.8 62.2 12 61.5 12 60.1 12 59 11 59 9.6 59 8.3 60.1 7.2 61.4 7.2 62.7 7.2 63.6 8.2 63.6 9.3 63.6 9.6 63.5 9.9 63.5 10L63.5 10ZM60.3 9.1L62.4 9.1C62.4 8.6 61.9 8.2 61.4 8.2 60.9 8.2 60.4 8.6 60.3 9.1ZM66.6 9.5L64.3 9.5 64.3 8.4 66.6 8.4 66.6 9.5ZM71.7 8.3L70.9 9C70.6 8.6 70.3 8.4 69.8 8.4 69.1 8.4 68.6 8.9 68.6 9.6 68.6 10.3 69.1 10.9 69.8 10.9 70.3 10.9 70.6 10.6 70.9 10.2L71.7 10.9C71.4 11.5 70.7 12 69.7 12 68.4 12 67.3 11 67.3 9.6 67.3 8.3 68.4 7.2 69.7 7.2 70.7 7.2 71.4 7.7 71.7 8.3L71.7 8.3ZM77.1 9.6C77.1 11 76 12 74.7 12 73.3 12 72.2 11 72.2 9.6 72.2 8.3 73.3 7.2 74.7 7.2 76 7.2 77.1 8.3 77.1 9.6ZM73.5 9.6C73.5 10.3 74 10.8 74.7 10.8 75.4 10.8 75.9 10.3 75.9 9.6 75.9 8.9 75.4 8.4 74.7 8.4 74 8.4 73.5 8.9 73.5 9.6ZM85.1 9.1L85.1 11.9 83.8 11.9 83.8 9.2C83.8 8.7 83.5 8.3 83 8.3 82.5 8.3 82.2 8.7 82.2 9.2L82.2 11.9 80.9 11.9 80.9 9.2C80.9 8.7 80.6 8.3 80.1 8.3 79.6 8.3 79.3 8.7 79.3 9.2L79.3 11.9 78 11.9 78 7.3 79.2 7.3 79.2 7.7C79.5 7.4 79.9 7.2 80.5 7.2 81.1 7.2 81.5 7.5 81.8 7.9 82.2 7.5 82.7 7.2 83.3 7.2 84.4 7.2 85.1 8 85.1 9.1L85.1 9.1ZM93.2 9.1L93.2 11.9 92 11.9 92 9.2C92 8.7 91.7 8.3 91.2 8.3 90.7 8.3 90.3 8.7 90.3 9.2L90.3 11.9 89.1 11.9 89.1 9.2C89.1 8.7 88.8 8.3 88.3 8.3 87.8 8.3 87.4 8.7 87.4 9.2L87.4 11.9 86.2 11.9 86.2 7.3 87.3 7.3 87.3 7.7C87.6 7.4 88.1 7.2 88.6 7.2 89.2 7.2 89.7 7.5 90 7.9 90.3 7.5 90.9 7.2 91.5 7.2 92.6 7.2 93.2 8 93.2 9.1L93.2 9.1ZM98.5 10L95.3 10C95.5 10.6 96 10.9 96.6 10.9 97.1 10.9 97.5 10.8 97.9 10.5L98.4 11.3C97.9 11.8 97.3 12 96.6 12 95.1 12 94.1 11 94.1 9.6 94.1 8.3 95.1 7.2 96.5 7.2 97.8 7.2 98.6 8.2 98.6 9.3 98.6 9.6 98.6 9.9 98.5 10ZM95.3 9.1L97.4 9.1C97.4 8.6 97 8.2 96.4 8.2 95.9 8.2 95.5 8.6 95.3 9.1ZM102.3 7.3L102.3 8.4 102 8.4C101.3 8.4 100.8 8.8 100.8 9.6L100.8 11.9 99.5 11.9 99.5 7.3 100.7 7.3 100.7 7.9C101 7.5 101.4 7.3 101.9 7.3 102.1 7.3 102.2 7.3 102.3 7.3ZM107.1 8.3L106.2 9C106 8.6 105.7 8.4 105.1 8.4 104.4 8.4 103.9 8.9 103.9 9.6 103.9 10.3 104.4 10.9 105.1 10.9 105.6 10.9 106 10.6 106.2 10.2L107.1 10.9C106.7 11.5 106 12 105.1 12 103.8 12 102.7 11 102.7 9.6 102.7 8.3 103.8 7.2 105.1 7.2 106 7.2 106.7 7.7 107.1 8.3L107.1 8.3ZM112.1 10L108.9 10C109 10.6 109.5 10.9 110.2 10.9 110.6 10.9 111.1 10.8 111.4 10.5L111.9 11.3C111.4 11.8 110.8 12 110.1 12 108.7 12 107.6 11 107.6 9.6 107.6 8.3 108.7 7.2 110 7.2 111.3 7.2 112.2 8.2 112.2 9.3 112.2 9.6 112.1 9.9 112.1 10ZM108.9 9.1L110.9 9.1C110.9 8.6 110.5 8.2 110 8.2 109.4 8.2 109 8.6 108.9 9.1ZM63.5 19.3L60.3 19.3C60.4 19.8 60.9 20.2 61.6 20.2 62.1 20.2 62.5 20 62.9 19.7L63.4 20.5C62.9 21 62.2 21.2 61.5 21.2 60.1 21.2 59 20.2 59 18.8 59 17.5 60.1 16.4 61.4 16.4 62.7 16.4 63.6 17.4 63.6 18.6 63.6 18.8 63.5 19.1 63.5 19.3L63.5 19.3ZM60.3 18.4L62.4 18.4C62.4 17.8 61.9 17.5 61.4 17.5 60.9 17.5 60.4 17.8 60.3 18.4ZM67.2 21.1L66.2 19.7 65.2 21.1 63.8 21.1 65.5 18.8 64 16.6 65.3 16.6 66.2 17.9 67.1 16.6 68.5 16.6 66.9 18.8 68.6 21.1 67.2 21.1ZM74 18.8C74 20.2 73.1 21.2 71.8 21.2 71.3 21.2 70.8 21 70.5 20.7L70.5 22.8 69.2 22.8 69.2 16.6 70.4 16.6 70.4 17.1C70.7 16.7 71.2 16.4 71.8 16.4 73.1 16.4 74 17.5 74 18.8ZM72.8 18.8C72.8 18.1 72.2 17.6 71.6 17.6 71 17.6 70.4 18 70.4 18.8 70.4 19.7 71 20.1 71.6 20.1 72.2 20.1 72.8 19.6 72.8 18.8ZM79.1 19.3L75.9 19.3C76.1 19.8 76.6 20.2 77.2 20.2 77.7 20.2 78.1 20 78.5 19.7L79 20.5C78.5 21 77.9 21.2 77.2 21.2 75.7 21.2 74.7 20.2 74.7 18.8 74.7 17.5 75.7 16.4 77.1 16.4 78.4 16.4 79.2 17.4 79.2 18.6 79.2 18.8 79.2 19.1 79.1 19.3ZM75.9 18.4L78 18.4C78 17.8 77.6 17.5 77 17.5 76.5 17.5 76.1 17.8 75.9 18.4ZM82.9 16.6L82.9 17.6 82.6 17.6C81.9 17.6 81.4 18 81.4 18.8L81.4 21.1 80.1 21.1 80.1 16.6 81.3 16.6 81.3 17.1C81.6 16.7 82 16.5 82.5 16.5 82.7 16.5 82.8 16.5 82.9 16.6ZM86.6 20.1L86.6 21.1C86.3 21.2 86 21.2 85.7 21.2 84.6 21.2 83.9 20.7 83.9 19.5L83.9 17.6 83.2 17.6 83.2 16.6 83.9 16.6 83.9 15.4 85.1 15.4 85.1 16.6 86.4 16.6 86.4 17.6 85.1 17.6 85.1 19.4C85.1 19.9 85.4 20.1 86 20.1 86.1 20.1 86.3 20.1 86.6 20.1L86.6 20.1ZM91.5 19.3L88.3 19.3C88.4 19.8 88.9 20.2 89.6 20.2 90.1 20.2 90.5 20 90.9 19.7L91.4 20.5C90.9 21 90.2 21.2 89.5 21.2 88.1 21.2 87 20.2 87 18.8 87 17.5 88.1 16.4 89.4 16.4 90.7 16.4 91.6 17.4 91.6 18.6 91.6 18.8 91.5 19.1 91.5 19.3ZM88.3 18.4L90.4 18.4C90.4 17.8 89.9 17.5 89.4 17.5 88.9 17.5 88.4 17.8 88.3 18.4ZM96.7 18.3L96.7 21.1 95.4 21.1 95.4 18.5C95.4 17.9 95.1 17.6 94.6 17.6 94.1 17.6 93.7 17.9 93.7 18.5L93.7 21.1 92.5 21.1 92.5 16.6 93.6 16.6 93.6 17C93.9 16.7 94.4 16.4 95 16.4 96 16.4 96.7 17.2 96.7 18.3Z"></path>
    </g>
</svg>

