<?xml version="1.0" encoding="UTF-8"?>
<!-- Generator: Adobe Illustrator 21.1.0, SVG Export Plug-In . SVG Version: 6.00 Build 0)  -->
<svg version="1.1" id="Ebene_1" xmlns="http://www.w3.org/2000/svg" xmlns:xlink="http://www.w3.org/1999/xlink" x="0px" y="0px" viewBox="0 0 500 150" style="enable-background:new 0 0 500 150;" xml:space="preserve">
<g id="XMLID_26_">
	<g id="XMLID_25_">
		<path id="XMLID_24_" style="fill:#7D9D3E;" d="M71.98463,46.5598c15.63702,0,28.31322,12.67569,28.31322,28.31298    c0,15.63678-12.6762,28.31298-28.31322,28.31298c-12.39002,0-22.91376-7.96113-26.75293-19.04478H25.49852    c4.235,21.99174,23.45483,38.59792,46.52877,38.59792c26.17864,0,47.40067-21.37383,47.40067-47.73915    c0-26.36584-21.22202-47.73865-47.40067-47.73865c-22.89639,0-42.00068,16.34971-46.43156,38.08955h19.72175    C49.22861,54.39889,59.68933,46.5598,71.98463,46.5598z"/>
		<path id="XMLID_23_" style="fill:#AFC836;" d="M71.98463,103.31298c15.63702,0,28.31322-12.67621,28.31322-28.31298    c0-15.63728-12.6762-28.31298-28.31322-28.31298c-12.29531,0-22.75602,7.83908-26.66716,18.79084H72.1116    c5.18922,0,9.39542,4.20671,9.39542,9.39516c0,5.18896-4.20621,9.39517-9.39542,9.39517H45.2317    C49.07087,95.35185,59.59461,103.31298,71.98463,103.31298z"/>
		<path id="XMLID_22_" style="fill:none;" d="M116.29547,65.60458h2.21244C114.17424,43.73879,95.01245,27.2611,72.02729,27.2611    c-22.89639,0-42.00068,16.34971-46.43156,38.08955h19.72175H72.1116c5.18922,0,9.39542,4.20671,9.39542,9.39517    c0,5.18896-4.20621,9.39516-9.39542,9.39516H45.2317H25.49852c4.235,21.99174,23.45483,38.59792,46.52877,38.59792    c22.98516,0,42.14745-16.4782,46.48062-38.34399h-2.21244V65.60458z"/>
		<path id="XMLID_21_" style="fill:#1C405A;" d="M72.02729,141.36113c33.43099,0,61.08366-24.72199,65.6841-56.8809h-19.20348    c-4.33317,21.86579-23.49546,38.34399-46.48062,38.34399c-23.07394,0-42.29377-16.60618-46.52877-38.59792H45.2317H72.1116    c5.18922,0,9.39542-4.2062,9.39542-9.39516c0-5.18846-4.20621-9.39517-9.39542-9.39517H45.31748H25.59573    c4.43088-21.73984,23.53517-38.08955,46.43156-38.08955c22.98516,0,42.14695,16.47769,46.48062,38.34348h19.2273    C133.20764,33.44765,105.5173,8.63887,72.02729,8.63887C35.37748,8.63887,5.66667,38.34973,5.66667,75    S35.37748,141.36113,72.02729,141.36113z"/>
	</g>
	<g id="XMLID_28_">
		<path id="XMLID_58_" style="fill:#1C405A;" d="M168.28247,86.8784c-8.91949,0-11.02634-5.60313-11.02634-12.46109    c0-7.08214,2.60013-12.41542,10.08534-12.41542c7.3954,0,9.09868,4.43692,9.09868,10.39851v1.25463    c0,1.79357-0.40346,2.19666-1.16527,2.19666h-13.31236c-0.2238,0-0.26891,0.08936-0.26891,0.31363    c0,5.96159,2.7341,7.39587,7.48523,7.39587c2.10674,0,4.39265-0.58263,5.7823-1.16528c0.08936,0,0.17918-0.04472,0.22391-0.04472    c0.22427,0,0.35883,0.08936,0.44856,0.269l0.17917,2.37527c0,0.04472,0,0.08936,0,0.13408    c0,0.17965-0.08981,0.3593-0.31363,0.44865C173.5715,86.42984,171.15114,86.8784,168.28247,86.8784z M161.96252,72.71404h9.9509    c0.40298,0,0.53754-0.08936,0.53754-1.56837c0-4.03393-1.21001-5.91685-5.10948-5.91685    c-4.57193,0-5.64786,3.04829-5.64786,7.17159C161.69362,72.58004,161.73872,72.71404,161.96252,72.71404z"/>
		<path id="XMLID_56_" style="fill:#7D9D3E;" d="M193.1559,86.8784c-8.33694,0-11.07106-5.51378-11.07106-15.46373    c0-9.77114,2.73412-15.91238,11.07106-15.91238c2.59956,0,4.57185,0.35836,5.69249,0.76229    c0.17918,0.08936,0.22391,0.13408,0.22391,0.40308l-0.17918,2.95885c0,0.13408-0.13454,0.31373-0.35835,0.22344    c-1.07593-0.40308-3.04831-0.76135-4.88557-0.76135c-5.96158,0-7.08223,3.54055-7.08223,12.37079    c0,8.29214,1.12065,11.83279,7.08223,11.83279c1.56883,0,3.54065-0.269,4.6613-0.58263    c0.22427-0.04463,0.5379-0.08936,0.58263,0.17964l0.26901,2.73364c0.04463,0.269-0.04472,0.44865-0.17918,0.49328    C197.54857,86.56383,195.35201,86.8784,193.1559,86.8784z"/>
		<path id="XMLID_53_" style="fill:#7D9D3E;" d="M220.80984,84.45756c-1.52411,1.70328-3.81003,2.42085-7.35114,2.42085    c-3.58575,0-5.69212-0.71757-7.21623-2.42085c-1.61345-1.8821-2.82393-5.73731-2.82393-10.21896    c0-4.52721,1.16576-8.06879,2.82393-9.90607c1.52411-1.748,3.81003-2.33065,7.30605-2.33065    c3.58575,0,5.73721,0.62727,7.26132,2.33065c1.61356,1.88293,2.73419,5.37885,2.73419,9.90607    C223.54404,78.72025,222.4234,82.57546,220.80984,84.45756z M209.46988,82.44054c0.71718,0.76228,1.65817,1.07601,3.98883,1.07601    c2.46556,0,3.36192-0.31373,4.03439-1.07601c1.12018-1.21,1.65819-4.52721,1.65819-8.20194    c0-3.7202-0.53801-6.63442-1.65819-7.84442c-0.67247-0.76144-1.56883-1.07601-3.94458-1.07601    c-2.42047,0-3.36147,0.31457-4.07864,1.07601c-1.12065,1.21-1.65857,4.12422-1.65857,7.84442    C207.81131,77.91333,208.34923,81.23055,209.46988,82.44054z"/>
		<path id="XMLID_51_" style="fill:#7D9D3E;" d="M247.87984,85.98119c0,0.269-0.17918,0.44865-0.44809,0.44865h-3.40666    c-0.26854,0-0.44818-0.17964-0.44818-0.44865V68.00811c0-2.15194-1.88246-2.68994-4.43739-2.68994    c-1.479,0-3.4061,0.13501-4.39229,0.35929c-0.31363,0.08936-0.44818,0.17871-0.44818,0.49235v19.81139    c0,0.269-0.17964,0.44865-0.44856,0.44865h-3.40619c-0.269,0-0.44818-0.17964-0.44818-0.44865V63.39154    c0-0.269,0.17918-0.40402,0.44818-0.44865c1.479-0.31373,6.09557-0.941,8.74033-0.941c2.59964,0,4.97502,0.17871,6.54375,1.16528    c0.08983,0.04472,0.26901,0.04472,0.35883,0c2.37538-0.89627,5.33376-1.16528,7.52995-1.16528    c6.45439,0,8.42668,3.22692,8.42668,7.61921v16.36009c0,0.269-0.17917,0.44865-0.44818,0.44865h-3.40656    c-0.26901,0-0.44818-0.17964-0.44818-0.44865V70.20374c0-3.58527-1.70331-4.88557-5.19931-4.88557    c-1.29982,0-3.13756,0.13501-4.12375,0.35929c-0.31363,0.08936-0.53801,0.17871-0.53801,0.49235V85.98119z"/>
		<path id="XMLID_49_" style="fill:#7D9D3E;" d="M286.96097,85.98119c0,0.269-0.17874,0.44865-0.44772,0.44865h-3.40704    c-0.26852,0-0.44818-0.17964-0.44818-0.44865V68.00811c0-2.15194-1.88248-2.68994-4.43738-2.68994    c-1.479,0-3.40619,0.13501-4.3923,0.35929c-0.31372,0.08936-0.44818,0.17871-0.44818,0.49235v19.81139    c0,0.269-0.17966,0.44865-0.44864,0.44865h-3.4061c-0.26901,0-0.44818-0.17964-0.44818-0.44865V63.39154    c0-0.269,0.17917-0.40402,0.44818-0.44865c1.479-0.31373,6.09555-0.941,8.7403-0.941c2.59967,0,4.97495,0.17871,6.54376,1.16528    c0.08984,0.04472,0.26901,0.04472,0.35883,0c2.37527-0.89627,5.33423-1.16528,7.52988-1.16528    c6.45486,0,8.42712,3.22692,8.42712,7.61921v16.36009c0,0.269-0.17953,0.44865-0.44855,0.44865h-3.40665    c-0.26901,0-0.44772-0.17964-0.44772-0.44865V70.20374c0-3.58527-1.70328-4.88557-5.20013-4.88557    c-1.29938,0-3.13766,0.13501-4.12329,0.35929c-0.31372,0.08936-0.53799,0.17871-0.53799,0.49235V85.98119z"/>
		<path id="XMLID_46_" style="fill:#7D9D3E;" d="M318.28784,86.8784c-8.91949,0-11.02588-5.60313-11.02588-12.46109    c0-7.08214,2.59967-12.41542,10.0849-12.41542c7.39584,0,9.09912,4.43692,9.09912,10.39851v1.25463    c0,1.79357-0.4039,2.19666-1.1662,2.19666H311.9679c-0.22427,0-0.26889,0.08936-0.26889,0.31363    c0,5.96159,2.73456,7.39587,7.48523,7.39587c2.10718,0,4.39313-0.58263,5.78183-1.16528c0.0903,0,0.17963-0.04472,0.22437-0.04472    c0.22427,0,0.35837,0.08936,0.44858,0.269l0.17868,2.37527c0,0.04472,0,0.08936,0,0.13408    c0,0.17965-0.08936,0.3593-0.31363,0.44865C323.57736,86.42984,321.15649,86.8784,318.28784,86.8784z M311.9679,72.71404h9.9509    c0.40298,0,0.5379-0.08936,0.5379-1.56837c0-4.03393-1.21085-5.91685-5.10983-5.91685c-4.57196,0-5.64786,3.04829-5.64786,7.17159    C311.69901,72.58004,311.74362,72.71404,311.9679,72.71404z"/>
		<path id="XMLID_44_" style="fill:#7D9D3E;" d="M333.34579,62.94289c1.97235-0.44772,4.52728-0.941,7.12695-0.941    c1.38956,0,3.13754,0.04463,4.12421,0.22428c0.22336,0.04472,0.26892,0.13408,0.26892,0.35836l-0.22427,2.86865    c0,0.134-0.0903,0.22428-0.31366,0.17956c-1.12064-0.17956-2.33063-0.26891-3.81058-0.26891    c-0.80606,0-2.33066,0.08936-3.00262,0.44762c-0.26901,0.13502-0.31366,0.31373-0.31366,0.53801v19.63174    c0,0.31457-0.22437,0.49328-0.53799,0.44865h-3.31729c-0.26892,0-0.44763-0.17964-0.44763-0.44865V63.39154    C332.89816,63.12254,333.07687,62.98752,333.34579,62.94289z"/>
		<path id="XMLID_42_" style="fill:#7D9D3E;" d="M356.83096,86.8784c-7.08224,0-9.54688-4.30294-9.54688-12.28144    c0-7.79886,2.46463-12.59507,9.54688-12.59507c2.10626,0,3.67557,0.269,4.57193,0.62727    c0.134,0.04473,0.17966,0.08936,0.17966,0.31373l-0.17966,2.68985c0,0.13408-0.08936,0.26817-0.26901,0.17871    c-0.85162-0.31364-2.41998-0.58263-3.85428-0.58263c-4.30292,0-5.51385,2.42094-5.51385,9.41287    c0,6.58886,1.30029,8.9195,5.51385,8.9195c1.25464,0,2.77829-0.22427,3.67465-0.44865    c0.17963-0.04463,0.40393-0.08936,0.44864,0.13501l0.26901,2.64429c0.04462,0.22427-0.04471,0.31363-0.17966,0.35836    C360.32687,86.60949,358.57898,86.8784,356.83096,86.8784z"/>
		<path id="XMLID_39_" style="fill:#7D9D3E;" d="M376.5065,86.8784c-8.91962,0-11.02588-5.60313-11.02588-12.46109    c0-7.08214,2.59955-12.41542,10.08478-12.41542c7.39587,0,9.09924,4.43692,9.09924,10.39851v1.25463    c0,1.79357-0.40402,2.19666-1.16632,2.19666h-13.31177c-0.2243,0-0.26901,0.08936-0.26901,0.31363    c0,5.96159,2.73456,7.39587,7.48523,7.39587c2.1073,0,4.39322-0.58263,5.78192-1.16528c0.0903,0,0.17966-0.04472,0.22427-0.04472    c0.2244,0,0.35837,0.08936,0.44867,0.269l0.17871,2.37527c0,0.04472,0,0.08936,0,0.13408    c0,0.17965-0.08936,0.3593-0.31363,0.44865C381.79599,86.42984,379.37506,86.8784,376.5065,86.8784z M370.18655,72.71404h9.95078    c0.40308,0,0.53802-0.08936,0.53802-1.56837c0-4.03393-1.21094-5.91685-5.10995-5.91685    c-4.57184,0-5.64786,3.04829-5.64786,7.17159C369.91754,72.58004,369.96225,72.71404,370.18655,72.71404z"/>
		<path id="XMLID_37_" style="fill:#AFC836;" d="M401.38028,86.8784c-8.33685,0-11.07144-5.51378-11.07144-15.46373    c0-9.77114,2.73459-15.91238,11.07144-15.91238c2.59967,0,4.57193,0.35836,5.69165,0.76229    c0.17966,0.08936,0.22427,0.13408,0.22427,0.40308l-0.17871,2.95885c0,0.13408-0.13492,0.31373-0.35919,0.22344    c-1.07507-0.40308-3.04736-0.76135-4.88565-0.76135c-5.96057,0-7.08121,3.54055-7.08121,12.37079    c0,8.29214,1.12064,11.83279,7.08121,11.83279c1.56927,0,3.54156-0.269,4.6622-0.58263    c0.22345-0.04463,0.53708-0.08936,0.58264,0.17964l0.26901,2.73364c0.04474,0.269-0.04556,0.44865-0.17966,0.49328    C405.77258,86.56383,403.57602,86.8784,401.38028,86.8784z"/>
		<path id="XMLID_34_" style="fill:#AFC836;" d="M414.28723,65.85617c-0.26892,0.04473-0.62729,0.04473-0.672-0.22343    l-0.31458-2.19657c-0.04462-0.269,0-0.53801,0.26901-0.62736c1.70328-0.49328,3.94455-0.80692,6.94815-0.80692    c5.55756,0,8.42621,2.06164,8.42621,7.30558v16.13666c0,0.269-0.08936,0.49244-0.58264,0.67199    c-1.25473,0.40308-4.03394,0.76229-7.03751,0.76229c-7.79895,0-10.04025-1.56921-10.04025-6.45478    c0-4.30293,1.03131-6.63358,7.62024-7.44059l5.60324-0.67199c0.17871-0.04473,0.26807-0.09029,0.26807-0.269v-2.28592    c0-3.45129-1.43439-4.30294-5.28867-4.30294C417.87259,65.45318,415.72159,65.63274,414.28723,65.85617z M424.77518,75.76233    c0-0.17964-0.08936-0.269-0.26807-0.269h-4.07959c-3.76492,0-4.75064,0.80692-4.75064,4.39229    c0,3.54158,0.76144,3.9893,5.24393,3.9893c1.25473,0,2.7793-0.08945,3.45129-0.269    c0.35837-0.08936,0.40308-0.17871,0.40308-0.31373V75.76233z"/>
		<path id="XMLID_32_" style="fill:#AFC836;" d="M454.13062,85.98119c0,0.269-0.17871,0.44865-0.44769,0.44865h-3.40659    c-0.26901,0-0.44864-0.17964-0.44864-0.44865V68.00811c0-2.15194-1.88199-2.68994-4.43692-2.68994    c-1.479,0-3.40668,0.13501-4.39322,0.35929c-0.31363,0.08936-0.44772,0.17871-0.44772,0.49235v19.81139    c0,0.269-0.17966,0.44865-0.44867,0.44865h-3.40656c-0.26901,0-0.44769-0.17964-0.44769-0.44865V63.39154    c0-0.269,0.17868-0.40402,0.44769-0.44865c1.47995-0.31373,6.0965-0.941,8.74078-0.941c2.59967,0,4.97495,0.17871,6.54422,1.16528    c0.08936,0.04472,0.26901,0.04472,0.35837,0c2.37527-0.89627,5.33423-1.16528,7.52994-1.16528    c6.45477,0,8.42706,3.22692,8.42706,7.61921v16.36009c0,0.269-0.17953,0.44865-0.44855,0.44865h-3.40665    c-0.26892,0-0.44772-0.17964-0.44772-0.44865V70.20374c0-3.58527-1.70328-4.88557-5.20013-4.88557    c-1.29938,0-3.13757,0.13501-4.12329,0.35929c-0.31363,0.08936-0.53802,0.17871-0.53802,0.49235V85.98119z"/>
		<path id="XMLID_29_" style="fill:#AFC836;" d="M494.33334,74.19304c0,8.51651-2.95801,12.2368-10.71225,12.2368    c-1.21094,0-3.09293-0.13408-3.63095-0.13408c-0.26901,0-0.35837,0.08936-0.35837,0.31373v7.4405    c0,0.269-0.17953,0.44772-0.44855,0.44772h-3.40665c-0.26892,0-0.44772-0.17871-0.44772-0.44772V63.39154    c0-0.269,0.1788-0.40402,0.44772-0.44865c1.97229-0.44772,4.84094-0.941,7.44058-0.941    C492.13666,62.00189,494.33334,65.00453,494.33334,74.19304z M479.63177,82.44054c0,0.31373,0.08936,0.49328,0.44772,0.53801    c1.07602,0.13399,2.06259,0.17964,3.22797,0.17964c4.93018,0,6.54327-1.52457,6.54327-9.00979    c0-7.21632-1.29935-8.83024-6.63358-8.83024c-1.479,0-2.59964,0.13501-3.18228,0.35929    c-0.26901,0.08936-0.40311,0.31364-0.40311,0.58264V82.44054z"/>
	</g>
</g>
<text id="XMLID_1_" transform="matrix(1 0 0 1 188.96869 85.66861)" style="display:none;fill:#1C405A; font-family:'OpenSans-Semibold'; font-size:5.09459px;">SPRING 2016</text>
</svg>