<?xml version="1.0" encoding="UTF-8"?>
<svg width="1830px" height="1724px" viewBox="0 0 1830 1724" version="1.1" xmlns="http://www.w3.org/2000/svg" xmlns:xlink="http://www.w3.org/1999/xlink">
    <!-- Generator: Sketch 59.1 (86144) - https://sketch.com -->
    <title>Group 2</title>
    <desc>Created with Sketch.</desc>
    <defs>
        <path d="M0.208541667,58.5802469 C0.208541667,26.3518827 49.8522865,0.225092593 111.088542,0.225092593 L111.088542,0.225092593 C172.324797,0.225092593 221.968943,26.3518827 221.968943,58.5802469 L221.968943,58.5802469 C221.968943,90.8082099 172.324797,116.935401 111.088542,116.935401 L111.088542,116.935401 C49.8522865,116.935401 0.208541667,90.8082099 0.208541667,58.5802469" id="path-1"></path>
        <radialGradient cx="30.020204%" cy="82.421541%" fx="30.020204%" fy="82.421541%" r="124.754482%" gradientTransform="translate(0.300202,0.824215),scale(0.526290,1.000000),translate(-0.300202,-0.824215)" id="radialGradient-3">
            <stop stop-color="#AEB2D5" offset="0%"></stop>
            <stop stop-color="#AEB2D5" offset="30%"></stop>
            <stop stop-color="#484C89" offset="75%"></stop>
            <stop stop-color="#484C89" offset="100%"></stop>
        </radialGradient>
        <polygon id="path-4" points="0 130 231 130 231 0 0 0"></polygon>
        <polygon id="path-6" points="0 130 231 130 231 0 0 0"></polygon>
    </defs>
    <g id="Page-1" stroke="none" stroke-width="1" fill="none" fill-rule="evenodd">
        <g id="Group-2">
            <rect id="Rectangle" stroke="#979797" stroke-width="5" x="802" y="1218" width="600" height="503" rx="8"></rect>
            <rect id="Rectangle" stroke="#979797" stroke-width="5" x="428" y="722" width="600" height="396" rx="8"></rect>
            <rect id="Rectangle" stroke="#979797" stroke-width="5" x="1165" y="722" width="600" height="396" rx="8"></rect>
            <text id="Legacy-Shop-Frontend" font-family="OpenSans-Regular, Open Sans" font-size="48" font-weight="normal" fill="#FFFFFF">
                <tspan x="962.722656" y="1375">Legacy Shop</tspan>
                <tspan x="877.199219" y="1440" text-decoration="line-through">Frontend</tspan>
                <tspan x="1082.76953" y="1440"> + Backend</tspan>
            </text>
            <text id="hubble-Data-API" font-family="OpenSans-Regular, Open Sans" font-size="48" font-weight="normal" fill="#FFFFFF">
                <tspan x="548.128906" y="827">hubble Data API</tspan>
            </text>
            <g id="mysql-logo" transform="translate(1142.000000, 1486.000000)">
                <g id="Group" transform="translate(88.500000, 61.000000) scale(-1, 1) rotate(-180.000000) translate(-88.500000, -61.000000) ">
                    <g transform="translate(0.173038, 0.736522)">
                        <path d="M42.3197574,10.7658435 L35.5296604,10.7658435 C35.2908675,22.2797826 34.6289503,33.1066522 33.5470509,43.2485565 L33.4872437,43.2485565 L23.1488727,10.7658435 L17.9789017,10.7658435 L7.70316149,43.2485565 L7.6426254,43.2485565 C6.88016386,33.5085826 6.40048338,22.681713 6.20044196,10.7658435 L0.00931711243,10.7658435 C0.409399953,25.2574348 1.41065439,38.8420522 3.01308043,51.5228522 L11.4290639,51.5228522 L21.2253331,21.5758783 L21.2854471,21.5758783 L31.1418335,51.5228522 L39.1944956,51.5228522 C40.9577927,36.6714174 41.9990554,23.0825913 42.3189122,10.7658435" id="Path" fill="#00758F" fill-rule="nonzero"></path>
                        <path d="M71.7740237,40.8359217 C69.0089485,25.7635304 65.3617012,14.8104 60.8345858,7.97758261 C57.3072586,2.71260957 53.4431077,0.0801756522 49.2353254,0.0801756522 C48.1136272,0.0801756522 46.7304089,0.419606957 45.0890219,1.09405043 L45.0890219,4.72741739 C45.8908633,4.6094687 46.8317911,4.5465487 47.9139,4.5465487 C49.8769243,4.5465487 51.4589272,5.09157478 52.6625272,6.17941739 C54.1038728,7.50494609 54.825174,8.99482435 54.825174,10.6458957 C54.825174,11.7736157 54.2625444,14.0876617 53.1424172,17.5881391 L45.690403,40.8359217 L52.3609988,40.8359217 L57.7094361,23.4487478 C58.9109414,19.5010965 59.4120923,16.7452426 59.211632,15.1744522 C62.136845,23.0237748 64.1804095,31.5778435 65.3430586,40.8359217 L71.7740237,40.8359217" id="Path" fill="#00758F" fill-rule="nonzero"></path>
                        <path d="M101.518402,22.0630348 C101.518402,18.6065383 100.254266,15.7689304 97.7343728,13.5487383 C95.2123846,11.3383313 91.8242485,10.2301817 87.5814852,10.2301817 C83.6131243,10.2301817 79.7673018,11.505627 76.0419231,14.0356843 L77.7846923,17.5366878 C80.9905917,15.9267565 83.891716,15.1227904 86.4964438,15.1227904 C88.9398817,15.1227904 90.8523195,15.6690791 92.2358521,16.7483991 C93.6162426,17.8355052 94.4436391,19.3516878 94.4436391,21.2747461 C94.4436391,23.6947461 92.7637101,25.76332 89.6813964,27.4986704 C86.8357811,29.0674617 81.1487396,32.3427739 81.1487396,32.3427739 C78.0674734,34.6008443 76.5226509,37.0236852 76.5226509,41.0157383 C76.5226509,44.3173548 77.6747219,46.9859835 79.9757219,49.0163635 C82.2819586,51.050847 85.2574438,52.0680887 88.9011302,52.0680887 C92.667355,52.0680887 96.0921479,51.0583174 99.1765562,49.0460348 L97.6097396,45.548293 C94.9704497,46.6724357 92.3678166,47.2367165 89.8018402,47.2367165 C87.7197337,47.2367165 86.115213,46.7345139 84.9966568,45.7242165 C83.8718166,44.7226522 83.1763846,43.4337391 83.1763846,41.8628435 C83.1763846,39.4490513 84.8929704,37.3553304 88.062213,35.5864157 C90.9434379,34.0167826 96.7697751,30.6781296 96.7697751,30.6781296 C99.9390178,28.4241626 101.518402,26.0211026 101.518402,22.0630348" id="Path" fill="#F29111" fill-rule="nonzero"></path>
                        <path d="M113.657041,18.9191391 C112.013769,21.5758783 111.190562,25.8391817 111.190562,31.7177826 C111.190562,41.9805817 114.296964,47.1152957 120.506627,47.1152957 C123.753373,47.1152957 126.136065,45.8871983 127.659941,43.4335287 C129.301118,40.775527 130.124325,36.5491548 130.124325,30.7527287 C130.124325,20.4077548 127.017923,15.2331635 120.80826,15.2331635 C117.562562,15.2331635 115.178822,16.4599983 113.657041,18.9187183 M137.817018,9.78279739 L130.359976,13.47698 C131.023999,14.0240052 131.654485,14.6141696 132.225284,15.2973461 C135.391385,19.036667 136.976006,24.571207 136.976006,31.8985461 C136.976006,45.3821548 131.706852,52.1276417 121.169592,52.1276417 C116.000982,52.1276417 111.972923,50.4178591 109.088556,46.9933487 C105.921408,43.2495035 104.339929,37.7357965 104.339929,30.4500183 C104.339929,23.2858713 105.741266,18.0301574 108.546036,14.6916096 C111.101538,11.6739748 114.966213,10.163053 120.140059,10.163053 C122.070302,10.163053 123.841349,10.4017913 125.451107,10.879373 L135.162018,5.20215826 L137.809686,9.78321826" id="Shape" fill="#F29111"></path>
                        <polyline id="Path" fill="#F29111" fill-rule="nonzero" points="162.159231 10.7658435 142.868325 10.7658435 142.868325 51.5228522 149.359722 51.5228522 149.359722 15.7794522 162.159231 15.7794522 162.159231 10.7659487"></polyline>
                        <path d="M166.788462,10.7700522 L167.864077,10.7700522 L167.864077,14.9167748 L169.271698,14.9167748 L169.271698,15.7637748 L165.326379,15.7637748 L165.326379,14.9167748 L166.788462,14.9167748 L166.788462,10.7700522 Z M174.973402,10.7700522 L175.987235,10.7700522 L175.987235,15.7637748 L174.462312,15.7637748 L173.221218,12.359887 L171.870152,15.7637748 L170.400738,15.7637748 L170.400738,10.7700522 L171.360089,10.7700522 L171.360089,14.5706096 L171.414561,14.5706096 L172.829513,10.7700522 L173.560544,10.7700522 L174.973402,14.5706096 L174.973402,10.7700522" id="Shape" fill="#F29111" fill-rule="nonzero"></path>
                        <path d="M170.307515,65.1748087 C166.384189,65.2733921 163.345864,64.8800948 160.797692,63.7958296 C160.062462,63.5006948 158.887349,63.5006948 158.786805,62.5648913 C159.181651,62.1715887 159.228792,61.5319722 159.574402,60.987893 C160.160911,60.0030583 161.188349,58.6755304 162.121527,57.9842522 C163.151049,57.1959635 164.180592,56.4109365 165.260396,55.7216574 C167.17074,54.5347 169.328254,53.8482617 171.188325,52.6658287 C172.270225,51.9773913 173.344793,51.0916713 174.426692,50.3510461 C174.963976,49.9573226 175.304361,49.3161278 175.993509,49.0724443 L175.993509,49.2215374 C175.647877,49.6634504 175.551533,50.3038035 175.210101,50.7990617 C174.720994,51.2876913 174.229793,51.7337078 173.738592,52.2240209 C172.316308,54.1442383 170.54945,55.8169843 168.642249,57.1959635 C167.07229,58.2822278 163.639118,59.7597957 163.004432,61.5763739 C163.004432,61.5763739 162.953112,61.6285586 162.904935,61.6770638 C163.983692,61.7770214 165.260396,62.1715855 166.288882,62.4702977 C167.953101,62.9122108 169.472787,62.8122542 171.188325,63.2541673 C171.973828,63.4526073 172.758284,63.7004995 173.545882,63.9426047 L173.545882,64.3889368 C172.658787,65.2733837 172.024101,66.4570899 171.093018,67.2934629 C168.595118,69.4594681 165.846905,71.5753899 163.004432,73.3509334 C161.482651,74.3360838 159.522036,74.9731751 157.903899,75.812389 C157.318448,76.1083655 156.339178,76.2541968 155.994604,76.7494551 C155.111688,77.8324577 154.61945,79.2586795 153.983716,80.541069 C152.563527,83.2465238 151.188373,86.2494281 149.965083,89.110289 C149.083235,91.0294542 148.543846,92.9486195 147.465089,94.7225847 C142.413781,103.095785 136.925734,108.165159 128.494669,113.139837 C126.68068,114.175176 124.524213,114.618141 122.222166,115.160011 C120.994686,115.211567 119.770349,115.307315 118.544964,115.355715 C117.759462,115.70188 116.973959,116.638315 116.289,117.08128 C113.493657,118.853141 106.291118,122.693576 104.231006,117.622098 C102.907172,114.41928 106.191621,111.269072 107.319604,109.643463 C108.152226,108.512376 109.232041,107.229776 109.817503,105.951385 C110.16104,105.113854 110.259479,104.225819 110.604053,103.340941 C111.387462,101.174515 112.121645,98.7608281 113.153272,96.7406542 C113.690556,95.7063778 114.278112,94.621576 114.964118,93.6904021 C115.360001,93.1453865 116.043923,92.9023238 116.191598,92.0132368 C115.507686,91.0294542 115.454272,89.5522021 115.062568,88.3201064 C113.298852,82.7551586 113.983811,75.8613151 116.484852,71.7746716 C117.267213,70.5437334 119.132521,67.8343855 121.632515,68.8709873 C123.838207,69.7558445 123.348053,72.5629603 123.984834,75.0236795 C124.131451,75.6188101 124.033001,76.0092297 124.326266,76.4026586 L124.326266,76.3031313 C125.012262,74.9262566 125.700373,73.5999913 126.337154,72.2164879 C127.858935,69.8059574 130.503462,67.2938922 132.711249,65.6211461 C133.884266,64.7313227 134.816396,63.2072487 136.286858,62.6639061 L136.286858,62.8126835 L136.190503,62.8126835 C135.895154,63.2545755 135.455283,63.4530366 135.062521,63.7962347 C134.180652,64.6832067 133.20245,65.7670616 132.513302,66.7513703 C130.455284,69.5079607 128.639201,72.5629477 127.025254,75.7142086 C126.238715,77.2443851 125.553746,78.9171312 124.915917,80.4427833 C124.622652,81.0309591 124.622652,81.9199303 124.131451,82.2146442 C123.394136,81.1324833 122.31851,80.1954173 121.780179,78.8698886 C120.848049,76.7498633 120.750657,74.140472 120.405025,71.4307033 C120.21022,71.3792573 120.30867,71.4307033 120.21022,71.3328522 C118.643404,71.7265652 118.104025,73.3513427 117.514374,74.7256922 C116.043913,78.2266957 115.796741,83.8403592 117.073456,87.8789183 C117.414888,88.9111114 118.889538,92.1612661 118.29884,93.1461009 C118.002454,94.0856817 117.023183,94.6223009 116.484852,95.3640835 C115.849108,96.2994661 115.158923,97.4789531 114.722183,98.5153444 C113.544976,101.27204 112.953231,104.326501 111.682811,107.083197 C111.094207,108.365797 110.06258,109.695744 109.232041,110.875231 C108.298864,112.205179 107.270379,113.140562 106.534101,114.714614 C106.291108,115.257536 105.947581,116.144518 106.338249,116.733736 C106.434593,117.128301 106.633587,117.276668 107.026339,117.375572 C107.659988,117.917431 109.476061,117.22932 110.111794,116.933659 C111.92683,116.197138 113.446516,115.503755 114.964108,114.471572 C115.651151,113.978113 116.386392,113.04272 117.267203,112.794407 L118.298819,112.794407 C119.866683,112.452451 121.632494,112.698659 123.104003,112.25359 C125.700352,111.417111 128.052671,110.186068 130.162009,108.85612 C136.581139,104.768424 141.875429,98.9562158 145.452086,92.0139723 C146.041736,90.8828854 146.288908,89.8475462 146.827239,88.6680593 C147.856772,86.2501636 149.132429,83.7880767 150.159867,81.4266827 C151.188362,79.1119001 152.170754,76.7501906 153.64331,74.8267114 C154.376447,73.7943184 157.318417,73.2525541 158.642251,72.7104741 C159.620475,72.2686662 161.142245,71.874101 162.025151,71.3331784 C163.691464,70.3007854 165.354636,69.1170897 166.925642,67.9826358 C167.707992,67.3916297 170.159819,66.1619541 170.307494,65.175541" id="Path" fill="#00758F"></path>
                        <path d="M120.307633,107.974108 C119.476058,107.974108 118.889538,107.873078 118.297793,107.726816 L118.297793,107.627922 L118.393101,107.627922 C118.788984,106.841948 119.476047,106.29587 119.962012,105.607748 C120.356858,104.819649 120.700374,104.034748 121.092089,103.245617 C121.140256,103.294007 121.187386,103.345584 121.187386,103.345584 C121.878618,103.835887 122.221108,104.622924 122.221108,105.806619 C121.924711,106.153847 121.878618,106.495804 121.631457,106.841969 C121.338203,107.333324 120.700374,107.579543 120.307623,107.974108" id="Path" fill="#00758F"></path>
                    </g>
                </g>
            </g>
            <g id="PHP-logo" transform="translate(831.000000, 1486.000000)">
                <g id="g3438" transform="translate(115.500000, 65.000000) scale(-1, 1) rotate(-180.000000) translate(-115.500000, -65.000000) ">
                    <g id="g3440" transform="translate(4.411458, 6.419753)">
                        <g id="g3442-Clipped">
                            <mask id="mask-2" fill="white">
                                <use xlink:href="#path-1"></use>
                            </mask>
                            <g id="path3446"></g>
                            <g id="g3442" mask="url(#mask-2)" fill="url(#radialGradient-3)" fill-rule="nonzero">
                                <g id="g3448">
                                    <g id="g3450">
                                        <path d="M0.208541667,58.5802469 C0.208541667,26.3518827 49.8522865,0.225092593 111.088542,0.225092593 L111.088542,0.225092593 C172.324797,0.225092593 221.968943,26.3518827 221.968943,58.5802469 L221.968943,58.5802469 C221.968943,90.8082099 172.324797,116.935401 111.088542,116.935401 L111.088542,116.935401 C49.8522865,116.935401 0.208541667,90.8082099 0.208541667,58.5802469" id="path3462"></path>
                                    </g>
                                </g>
                            </g>
                        </g>
                    </g>
                    <g id="g3464">
                        <g id="g3466-Clipped">
                            <mask id="mask-5" fill="white">
                                <use xlink:href="#path-4"></use>
                            </mask>
                            <g id="path3470"></g>
                            <g id="g3466" mask="url(#mask-5)">
                                <g transform="translate(8.822917, 10.833333)" id="g3472">
                                    <g transform="translate(0.000000, 0.144204)">
                                        <path d="M106.677083,0 C165.521526,0 213.225833,24.186821 213.225833,54.0226235 C213.225833,83.8580247 165.521526,108.045247 106.677083,108.045247 C47.8326406,108.045247 0.128333333,83.8580247 0.128333333,54.0226235 C0.128333333,24.186821 47.8326406,0 106.677083,0" id="path3474" fill="#777BB3" fill-rule="nonzero"></path>
                                    </g>
                                </g>
                            </g>
                        </g>
                    </g>
                    <g id="g3476">
                        <g id="g3478-Clipped">
                            <mask id="mask-7" fill="white">
                                <use xlink:href="#path-6"></use>
                            </mask>
                            <g id="path3482"></g>
                            <g id="g3478" mask="url(#mask-7)">
                                <g transform="translate(36.895833, 29.691358)">
                                    <g id="g3484" transform="translate(1.096608, 1.326722)">
                                        <path d="M26.8697917,27.2839506 C31.7083594,27.2839506 35.3205417,28.1766975 37.6060781,29.9365123 C39.867151,31.6782716 41.4288073,34.6959568 42.2473333,38.9053086 C43.0105156,42.8398148 42.7197604,45.5870679 41.3834896,47.0696296 C40.0171406,48.5838889 37.0630677,49.3518519 32.6034844,49.3518519 L24.871,49.3518519 L20.5842656,27.2839506 L26.8697917,27.2839506 Z M1.57890104,0.100308642 C1.21996875,0.100308642 0.879083333,0.260802469 0.650890625,0.53845679 C0.422296875,0.815709877 0.32965625,1.18083333 0.398234375,1.53351852 L11.7589427,60.013858 C11.8688281,60.5791975 12.3641146,60.9876543 12.9400104,60.9876543 L37.4252083,60.9876543 C45.1203958,60.9876543 50.8480729,58.8972222 54.448224,54.7737346 C58.067625,50.6285802 59.1853281,44.8343519 57.7700521,37.5523457 C57.1941562,34.5856173 56.2035833,31.8303395 54.8260052,29.3635494 C53.4468229,26.8939506 51.6240885,24.6089198 49.4075312,22.5706481 C46.7542396,20.0862037 43.7512396,18.2846605 40.4899687,17.2245988 C37.2804323,16.1785802 33.158526,15.6481481 28.2389479,15.6481481 L18.3243958,15.6481481 L15.4930417,1.07450617 C15.3831562,0.508765432 14.8882708,0.100308642 14.312375,0.100308642 L1.57890104,0.100308642 Z" id="path3486" fill="#000000" fill-rule="nonzero"></path>
                                    </g>
                                    <g id="g3488" transform="translate(0.089673, 0.123219)">
                                        <path d="M26.8697917,49.3518519 L33.6105,49.3518519 C38.9928802,49.3518519 40.8625365,48.170216 41.4977865,47.4660494 C42.551724,46.2968519 42.7506406,43.8316667 42.0732812,40.3373148 C41.3121042,36.4252778 39.9012396,33.6515432 37.8791875,32.0939506 C35.8090104,30.4994444 32.4434687,29.691358 27.8768073,29.691358 L23.0506719,29.691358 L26.8697917,49.3518519 Z M38.432224,63.3950617 L13.946625,63.3950617 C12.7948333,63.3950617 11.8046615,62.5781481 11.5848906,61.4470679 L0.224182292,2.9667284 C0.0870260417,2.26095679 0.272307292,1.53111111 0.72909375,0.976203704 C1.18628125,0.421296296 1.86725,0.100308642 2.58591667,0.100308642 L15.3189896,0.100308642 C16.4711823,0.100308642 17.4613542,0.917222222 17.681125,2.04830247 L20.3231875,15.6481481 L29.2459635,15.6481481 C34.2918698,15.6481481 38.5397031,16.198642 41.8703542,17.2839815 C45.295651,18.3974074 48.4470365,20.285216 51.2362812,22.8948457 C53.5430729,25.018179 55.4432083,27.4015123 56.8829479,29.9794444 C58.3230885,32.558179 59.357776,35.4338272 59.9581354,38.5265432 C61.4480052,46.1917284 60.2376615,52.3298148 56.3611927,56.7690741 C52.5224219,61.1658025 46.4899531,63.3950617 38.432224,63.3950617 M20.1314896,27.2839506 L27.8768073,27.2839506 C33.0105417,27.2839506 36.834474,28.2513272 39.347,30.1864815 C41.8599271,32.122037 43.5547292,35.3523765 44.4354167,39.8791049 C45.2780052,44.2252778 44.8942083,47.2923148 43.284026,49.0790123 C41.6718385,50.8657099 38.4478646,51.7592593 33.6105,51.7592593 L24.8862396,51.7592593 L20.1314896,27.2839506 M38.432224,60.9876543 C45.7981562,60.9876543 51.1717135,59.0537037 54.5492865,55.1854012 C57.9264583,51.3170988 58.9435,45.9176852 57.596,38.9855556 C57.0413594,36.1299691 56.1033229,33.5191358 54.7826927,31.153858 C53.4604583,28.7869753 51.733974,26.622716 49.6004323,24.6602778 C47.0578281,22.2797531 44.2332917,20.5833333 41.1252187,19.5730247 C38.0171458,18.5599074 34.0584635,18.0555556 29.2459635,18.0555556 L18.3392344,18.0555556 L15.3189896,2.50771605 L2.58591667,2.50771605 L13.946625,60.9876543 L38.432224,60.9876543" id="path3490" fill="#FFFFFF" fill-rule="nonzero"></path>
                                    </g>
                                    <g id="g3492" transform="translate(55.577557, 16.974870)">
                                        <path d="M32.484375,0 C32.1250417,0 31.7845573,0.160493827 31.5563646,0.438148148 C31.3273698,0.715401235 31.2347292,1.08012346 31.3033073,1.43320988 L36.3287604,27.3084259 C36.8068021,29.7691975 36.6888958,31.5354321 35.997099,32.2817284 C35.573599,32.7379321 34.3014948,33.5030864 30.540125,33.5030864 L21.4356771,33.5030864 L15.1172656,0.974197531 C15.0073802,0.40845679 14.5120937,0 13.9361979,0 L1.30338542,0 C0.944052083,0 0.603567708,0.160493827 0.374973958,0.438148148 C0.146380208,0.715401235 0.0537395833,1.08052469 0.122317708,1.43320988 L11.483026,59.9135494 C11.5929115,60.4788889 12.0881979,60.8873457 12.6640937,60.8873457 L25.2969062,60.8873457 C25.6562396,60.8873457 25.996724,60.7268519 26.2253177,60.4495988 C26.4539115,60.1719444 26.5465521,59.8072222 26.477974,59.4541358 L23.7364531,45.3395062 L33.5306927,45.3395062 C40.9920729,45.3395062 46.0516146,44.0234568 48.9984687,41.3159259 C52.0022708,38.5538272 52.9395052,34.1374383 51.7845052,28.1879321 L46.498776,0.974197531 C46.3888906,0.40845679 45.8940052,0 45.3177083,0 L32.484375,0 Z" id="path3494" fill="#000000" fill-rule="nonzero"></path>
                                    </g>
                                    <g id="g3496" transform="translate(54.405754, 15.671059)">
                                        <path d="M26.46875,63.3950617 L13.8359375,63.3950617 C12.6837448,63.3950617 11.6935729,62.5781481 11.4738021,61.4470679 L0.11309375,2.9667284 C-0.0240625,2.26095679 0.16121875,1.53111111 0.61840625,0.976203704 C1.07559375,0.421296296 1.7565625,0.100308642 2.47522917,0.100308642 L15.1080417,0.100308642 C16.2598333,0.100308642 17.2504062,0.917222222 17.4701771,2.04830247 L23.5992969,33.6033951 L31.7119687,33.6033951 C35.4669219,33.6033951 36.2549687,32.8009259 36.286651,32.7664198 C36.5144427,32.5212654 36.8140208,31.3857716 36.3195365,28.8419444 L31.2940833,2.9667284 C31.1569271,2.26095679 31.3422083,1.53111111 31.7993958,0.976203704 C32.2565833,0.421296296 32.9375521,0.100308642 33.6562187,0.100308642 L46.4895521,0.100308642 C47.6413437,0.100308642 48.6319167,0.917222222 48.8516875,2.04830247 L54.1370156,29.262037 C55.3774375,35.6500926 54.3162812,40.442037 50.9844271,43.5058642 C47.8049687,46.4272531 42.4791354,47.8472222 34.7025365,47.8472222 L26.3672865,47.8472222 L28.8308854,60.5282407 C28.9676406,61.2340123 28.7827604,61.9642593 28.3255729,62.5187654 C27.8683854,63.0736728 27.1874167,63.3950617 26.46875,63.3950617 M26.46875,60.9876543 L23.4485052,45.4398148 L34.7025365,45.4398148 C41.7837292,45.4398148 46.6680156,44.2032099 49.3561979,41.7332099 C52.0443802,39.2616049 52.8496719,35.2568827 51.7752812,29.7210494 L46.4895521,2.50771605 L33.6562187,2.50771605 L38.6816719,28.3825309 C39.2535573,31.3259877 39.0434115,33.3337654 38.0504323,34.4042593 C37.0570521,35.4747531 34.9439635,36.0108025 31.7119687,36.0108025 L21.6153437,36.0108025 L15.1080417,2.50771605 L2.47522917,2.50771605 L13.8359375,60.9876543 L26.46875,60.9876543" id="path3498" fill="#FFFFFF" fill-rule="nonzero"></path>
                                    </g>
                                    <g id="g3500" transform="translate(100.480909, 1.326722)">
                                        <path d="M26.8697917,27.2839506 C31.7083594,27.2839506 35.3205417,28.1766975 37.6060781,29.9365123 C39.867151,31.6778704 41.4288073,34.6955556 42.2477344,38.9053086 C43.0109167,42.8398148 42.7201615,45.5870679 41.3834896,47.0696296 C40.0171406,48.5838889 37.0630677,49.3518519 32.6034844,49.3518519 L24.871,49.3518519 L20.5842656,27.2839506 L26.8697917,27.2839506 Z M1.57930208,0.100308642 C1.22036979,0.100308642 0.879484375,0.260802469 0.651291667,0.53845679 C0.422697917,0.815709877 0.32965625,1.18083333 0.398234375,1.53351852 L11.7589427,60.013858 C11.8692292,60.5791975 12.3641146,60.9876543 12.9404115,60.9876543 L37.4252083,60.9876543 C45.1207969,60.9876543 50.8480729,58.8972222 54.448625,54.7737346 C58.068026,50.6289815 59.1853281,44.8347531 57.7704531,37.5523457 C57.1937552,34.5856173 56.2035833,31.8303395 54.8260052,29.3635494 C53.4468229,26.8939506 51.6240885,24.6089198 49.4075313,22.5706481 C46.7542396,20.0862037 43.7512396,18.2846605 40.4899688,17.2245988 C37.2804323,16.1785802 33.158526,15.6481481 28.2389479,15.6481481 L18.3239948,15.6481481 L15.4938438,1.07450617 C15.3835573,0.508765432 14.8886719,0.100308642 14.312375,0.100308642 L1.57930208,0.100308642 Z" id="path3502" fill="#000000" fill-rule="nonzero"></path>
                                    </g>
                                    <g id="g3504" transform="translate(99.474014, 0.123219)">
                                        <path d="M26.8697917,49.3518519 L33.6105,49.3518519 C38.9928802,49.3518519 40.8625365,48.170216 41.4977865,47.4660494 C42.552125,46.2968519 42.7510417,43.8316667 42.0732813,40.337716 C41.3121042,36.4252778 39.9008385,33.6515432 37.8791875,32.0939506 C35.8090104,30.4994444 32.4434688,29.691358 27.8768073,29.691358 L23.0510729,29.691358 L26.8697917,49.3518519 Z M38.432224,63.3950617 L13.947026,63.3950617 C12.7952344,63.3950617 11.8050625,62.5781481 11.5852917,61.4470679 L0.224583333,2.9667284 C0.0874270833,2.26095679 0.272708333,1.53111111 0.729494792,0.976203704 C1.18668229,0.421296296 1.86765104,0.100308642 2.58631771,0.100308642 L15.3193906,0.100308642 C16.4711823,0.100308642 17.4617552,0.917222222 17.681526,2.04830247 L20.3231875,15.6481481 L29.2459635,15.6481481 C34.2918698,15.6481481 38.5397031,16.198642 41.8703542,17.2839815 C45.295651,18.3974074 48.4478385,20.2856173 51.2370833,22.8956481 C53.543875,25.0185802 55.4432083,27.4015123 56.8829479,29.9794444 C58.3230885,32.558179 59.357776,35.4338272 59.9581354,38.5265432 C61.4480052,46.1921296 60.2376615,52.330216 56.3611927,56.7694753 C52.5224219,61.1658025 46.4903542,63.3950617 38.432224,63.3950617 M20.1318906,27.2839506 L27.8768073,27.2839506 C33.0105417,27.2839506 36.834474,28.2513272 39.347,30.1864815 C41.8603281,32.122037 43.5547292,35.3523765 44.4354167,39.8791049 C45.2784062,44.2252778 44.8946094,47.2923148 43.284026,49.0790123 C41.6718385,50.8657099 38.4478646,51.7592593 33.6105,51.7592593 L24.8862396,51.7592593 L20.1318906,27.2839506 M38.432224,60.9876543 C45.7981562,60.9876543 51.1717135,59.0537037 54.5492865,55.1854012 C57.9268594,51.3170988 58.9435,45.9176852 57.596,38.9855556 C57.0413594,36.1299691 56.1033229,33.5191358 54.7826927,31.153858 C53.4604583,28.7869753 51.733974,26.622716 49.6004323,24.6602778 C47.0578281,22.2797531 44.2332917,20.5833333 41.1252187,19.5730247 C38.0171458,18.5599074 34.0584635,18.0555556 29.2459635,18.0555556 L18.3392344,18.0555556 L15.3193906,2.50771605 L2.58631771,2.50771605 L13.947026,60.9876543 L38.432224,60.9876543" id="path3506" fill="#FFFFFF" fill-rule="nonzero"></path>
                                    </g>
                                </g>
                            </g>
                        </g>
                    </g>
                </g>
            </g>
            <text id="+" font-family="OpenSans-Regular, Open Sans" font-size="48" font-weight="normal" fill="#FFFFFF">
                <tspan x="1088.27734" y="1569">+</tspan>
            </text>
            <g id="magento-2" transform="translate(1654.000000, 1366.000000)" fill="#EC6737" fill-rule="nonzero">
                <path d="M99.58575,62.2065093 L99.58575,180.343305 L87.9443125,187.443505 L76.2939375,180.305571 L76.2939375,62.2977574 L46.1278125,80.8327861 L46.1278125,181.860905 L87.9443125,207.394595 L130.114875,181.679095 L130.114875,80.7682949 L99.58575,62.2065093 Z M87.9443125,0 L0,53.1722607 L0,154.213415 L22.8408125,167.641294 L22.8408125,66.5905348 L87.9621875,27.0753025 L153.144063,66.5329044 L153.412875,66.6858993 L153.384,167.490357 L176,154.213415 L176,53.1722607 L87.9443125,0 Z" id="Shape"></path>
            </g>
            <g id="sw-logo-blue" transform="translate(1452.000000, 1381.000000)" fill="#189EFF" fill-rule="nonzero">
                <g id="_Gruppe_3">
                    <path d="M139.166847,156.972973 C131.603604,151.264865 120.409369,146.92036 108.580901,142.338018 C94.5009009,136.883604 78.4547748,130.683964 66.547027,121.154595 C52.9744144,110.340901 46.3625225,96.7207207 46.3625225,79.4695495 C46.1279479,64.4964461 53.0191943,50.3020087 64.9297297,41.2252252 C78.5499099,30.5066667 99.1942342,24.8302703 124.611171,24.8302703 C131.2815,24.8052755 137.945794,25.2343755 144.557838,26.1145946 C145.101084,26.1843917 145.626681,25.8931492 145.855513,25.3955312 C146.084345,24.8979132 145.963339,24.3093276 145.556757,23.9423423 C116.635159,-2.06031141 73.9906399,-5.768531 41.0148734,14.8517424 C8.039107,35.4720158 -7.29642913,75.4360896 3.42022165,112.822588 C14.1368724,150.209086 48.3150941,175.980291 87.2072072,176.000866 C105.904199,176.08359 124.126354,170.115223 139.150991,158.986667 C139.467906,158.752104 139.655887,158.382018 139.658378,157.987748 C139.662143,157.591258 139.480289,157.215816 139.166847,156.972973 Z" id="_Pfad_2"></path>
                    <path d="M174.144865,80.7697297 C174.115385,80.4370015 173.955852,80.1293307 173.700901,79.9135135 C155.498378,64.8028829 140.768288,58.6666667 122.867027,58.6666667 C113.353514,58.6666667 105.996396,60.5852252 101.112793,64.3589189 C96.9644464,67.4563319 94.5575005,72.3587145 94.6436036,77.5351351 C94.6436036,92.5189189 112.957117,99.3527928 134.172252,107.264865 C145.096937,111.33982 156.37045,115.557477 166.771892,121.313153 C166.955072,121.418614 167.163051,121.473345 167.374414,121.471747 C167.520442,121.468385 167.664987,121.441617 167.802523,121.392432 C168.14513,121.269174 168.417151,121.002941 168.547748,120.663063 C172.518451,110.507693 174.546164,99.6968097 174.525563,88.7927928 C174.50955,86.2558559 174.414414,83.5445045 174.144865,80.7697297 Z" id="_Pfad_3"></path>
                </g>
            </g>
            <g id="noun_database_334841" transform="translate(666.000000, 873.000000)" fill="#FFFFFF" fill-rule="nonzero">
                <path d="M118.886455,10.6007265 C116.243536,8.82942092 113.02607,7.37031378 109.234056,6.10189072 C103.557706,4.18757206 96.5706693,2.67985918 88.6419132,1.6273578 C80.7131571,0.574856433 71.865125,0 62.4883295,0 C46.1711793,0 31.4169779,1.74700272 20.4081083,4.68951988 C14.8924519,6.17292989 10.3185148,7.91993261 6.75632002,10.1688831 C4.98689313,11.2933584 3.42394427,12.5617815 2.18328067,14.1891393 C0.941719334,15.7921942 0,17.9214998 0,20.29103 L0,146.708035 C0,149.077565 0.942617064,151.206871 2.18328067,152.809926 C3.2865915,154.245665 4.59638035,155.37014 6.11264723,156.399273 C8.75556593,158.169644 11.9730322,159.629686 15.765046,160.898109 C21.4413962,162.812428 28.4284329,164.320141 36.357189,165.372642 C44.2859451,166.425144 53.1339773,167 62.5107728,167 C78.827923,167 93.5821244,165.252997 104.590994,162.309545 C110.10665,160.826135 114.67969,159.079133 118.242782,156.829247 C120.012209,155.704772 121.575158,154.436349 122.816719,152.808991 C124.057383,151.205936 125,149.075696 125,146.707101 L125,20.2900953 C125,17.9205651 124.058281,15.7912595 122.816719,14.1882045 C121.713409,12.7524655 120.380279,11.6279903 118.887353,10.5988571 L118.886455,10.6007265 Z M9.99802499,19.5011866 C11.0779948,18.4963562 13.376185,17.1316564 16.547867,15.9352073 C21.3049411,14.0928625 28.0163746,12.4655047 35.8984487,11.3410294 C43.7805228,10.2165542 52.8592718,9.56972384 62.5116705,9.56972384 C78.1627047,9.56972384 92.3656995,11.2924237 102.293702,13.9722829 C107.258151,15.2883769 111.164177,16.8914319 113.462367,18.3514737 C114.611462,19.0693432 115.346704,19.7638446 115.622307,20.1461475 L115.713875,20.2900953 C115.598966,20.4574112 115.392488,20.7210039 115.001975,21.0799387 C113.922005,22.084769 111.623815,23.4494688 108.452133,24.645918 C103.695059,26.4882628 96.9845231,28.1156206 89.1015513,29.2400958 C81.2185794,30.3645711 72.1407282,31.0104667 62.4883295,31.0104667 C46.838193,31.0104667 32.6343005,29.2877668 22.7062985,26.6079077 C17.7427463,25.2918136 13.8349253,23.6887587 11.5367351,22.2287168 C10.38764,21.5108473 9.65239874,20.8163459 9.37679546,20.4340431 L9.28432922,20.2900953 C9.39923872,20.1227793 9.60661448,19.8358185 9.99622953,19.5002519 L9.99802499,19.5011866 Z M115.001975,147.521247 C113.922005,148.526077 111.623815,149.890777 108.452133,151.087226 C103.695059,152.929571 96.9845231,154.556929 89.1015513,155.681404 C81.2185794,156.805879 72.1407282,157.451775 62.4883295,157.451775 C46.838193,157.451775 32.6343005,155.729075 22.7062985,153.049216 C17.7427463,151.733122 13.8349253,150.130067 11.5367351,148.670025 C10.38764,147.952155 9.65239874,147.257654 9.37679546,146.875351 L9.1927607,146.58839 L9.1927607,31.7769419 C11.1462223,32.7817723 13.306162,33.6669577 15.7426027,34.5044721 C21.4189529,36.4187908 28.4050919,37.9265037 36.3347458,38.979005 C44.2643996,40.0315064 53.111534,40.6063629 62.4883295,40.6063629 C78.8054797,40.6063629 93.5596811,38.8593601 104.568551,35.916843 C108.912669,34.7446967 112.635557,33.4042997 115.783898,31.8012448 L115.783898,146.612693 C115.738114,146.684667 115.531636,147.043602 115.002873,147.522182 L115.001975,147.521247 Z" id="Shape"></path>
            </g>
            <g id="elastic_color" transform="translate(0.000000, 771.000000)" fill-rule="nonzero">
                <g id="Group">
                    <path d="M46.4764261,51.4984393 L75.1647585,64.5895202 L104.109542,39.204 C104.528809,37.1099306 104.733551,35.0221561 104.733551,32.8371618 C104.733551,14.9760231 90.2185337,0.44483237 72.373839,0.44483237 C61.6986069,0.44483237 51.7417186,5.70588439 45.689602,14.5276936 L40.8750213,39.5292312 L46.4764261,51.4984393 Z" id="Path" fill="#FFD300"></path>
                    <path d="M16.779757,81.9065087 C16.3604902,84.000578 16.1459653,86.1729827 16.1459653,88.3705665 C16.1459653,106.277168 30.7029094,120.847526 48.5965187,120.847526 C59.359098,120.847526 69.3649007,115.537514 75.4072344,106.62478 L80.1861774,81.7078728 L73.8091291,69.5113526 L45.0068959,56.3713121 L16.779757,81.9065087 Z" id="Path" fill="#2BB5AF"></path>
                    <path d="M16.5980747,32.2132775 L36.2588936,36.8595376 L40.5668602,14.4850289 C37.8800587,12.4301272 34.5636581,11.3047572 31.1522237,11.3047572 C22.6082646,11.3047572 15.6596158,18.2633064 15.6596158,26.8151387 C15.6596158,28.7042775 15.9747647,30.5157803 16.5980747,32.2132775" id="Path" fill="#E9458F"></path>
                    <path d="M14.8916588,36.900104 C6.10732005,39.8131965 0,48.2412312 0,57.5113699 C0,66.5381098 5.5776463,74.5982486 13.949706,77.7883121 L41.533969,52.832237 L36.4692258,42.0009884 L14.8916588,36.900104 Z" id="Path" fill="#2AA7E0"></path>
                    <path d="M80.4510143,106.624081 C83.1475988,108.698566 86.4479274,109.830231 89.8167364,109.830231 C98.3606954,109.830231 105.309344,102.875179 105.309344,94.3233468 C105.309344,92.4377052 104.994195,90.6262023 104.370187,88.9287052 L84.7261383,84.3279075 L80.4510143,106.624081 Z" id="Path" fill="#9BC31B"></path>
                    <path d="M84.4480247,79.1738671 L106.073807,84.2369827 C114.860941,81.330185 120.96896,72.8986532 120.96896,63.6250173 C120.96896,54.6150636 115.378037,46.5640173 106.989905,43.3837457 L78.7040692,68.1866474 L84.4480247,79.1738671 Z" id="Path" fill="#0075A1"></path>
                </g>
                <g id="Group" transform="translate(146.000000, 34.000000)" fill="#FFFFFF">
                    <path d="M33.1000727,53.3274419 L35.7357333,53.0574419 L35.9178182,58.3786047 C29.0105455,59.3393023 23.1029818,59.8213953 18.1951273,59.8213953 C11.6513212,59.8213953 7.01624242,57.9432558 4.28989091,54.184186 C1.56353939,50.4272093 0.200363636,44.5786047 0.200363636,36.6418605 C0.200363636,20.8283721 6.53115152,12.9209302 19.1955394,12.9209302 C25.3147152,12.9209302 29.8886303,14.6204651 32.9193939,18.0167442 C35.9487515,21.4144186 37.4637818,26.7516279 37.4637818,34.0262791 L37.1003152,39.1674419 L7.10763636,39.1674419 C7.10763636,44.1593023 8.01665455,47.8569767 9.83398788,50.2611628 C11.6513212,52.6667442 14.8170667,53.8688372 19.3312242,53.8688372 C23.8446788,53.8688372 28.4340606,53.6888372 33.1000727,53.3274419 Z M30.646497,33.7562791 C30.646497,28.2244186 29.7515394,24.3167442 27.9651394,22.0311628 C26.1773333,19.7462791 23.268897,18.6034884 19.2405333,18.6034884 C15.2100606,18.6034884 12.1814061,19.8076744 10.1524606,22.2111628 C8.12140606,24.6167442 7.07670303,28.4651163 7.01694545,33.7562791 L30.646497,33.7562791 L30.646497,33.7562791 Z" id="Shape"></path>
                    <polygon id="Path" points="46.9680485 59.4732558 46.9680485 0.109534884 53.7846303 0.109534884 53.7846303 59.4732558"></polygon>
                    <path d="M96.7109576,27.4423256 L96.7109576,50.1906977 C96.7109576,52.4448837 102.367539,52.3548837 102.367539,52.3548837 L102.019539,58.3311628 C97.231903,58.3311628 93.2689212,58.7253488 90.8870545,56.4404651 C85.4343515,58.8453488 79.9872727,59.8213953 74.5345697,59.8213953 C70.3536485,59.8213953 67.1731394,58.6486047 64.9916364,56.3044186 C62.8101333,53.9595349 61.7197333,50.5925581 61.7197333,46.202093 C61.7197333,41.8137209 62.8403636,38.5806977 65.0823273,36.5065116 C67.3235879,34.4323256 70.8380364,33.1555814 75.6249697,32.6734884 L89.8936727,31.3206977 L89.8936727,27.4423256 C89.8936727,24.3760465 89.226497,22.1811628 87.8942545,20.8576744 C86.5606061,19.5362791 84.7432727,18.8734884 82.4415515,18.8734884 L64.5318545,18.8881395 L64.5318545,12.9209302 L81.9866909,12.9209302 C87.1356848,12.9209302 90.8779152,14.0937209 93.2112727,16.437907 C95.5432242,18.784186 96.7109576,22.4525581 96.7109576,27.4423256 Z M68.717697,45.842093 C68.717697,51.3746512 71.0201212,54.1395349 75.6249697,54.1395349 C79.7447273,54.1395349 83.8047273,53.4488372 87.8035636,52.0653488 L89.8936727,51.3432558 L89.8936727,36.4618605 L76.4425939,37.7246512 C73.7162424,37.9653488 71.7463515,38.7474419 70.5350303,40.0695349 C69.3230061,41.3923256 68.717697,43.3165116 68.717697,45.842093 Z" id="Shape"></path>
                    <path d="M123.31503,18.964186 C116.710061,18.964186 113.40863,21.2497674 113.40863,25.8188372 C113.40863,27.9244186 114.165794,29.4125581 115.680824,30.2832558 C117.195152,31.1560465 120.648436,32.0581395 126.042085,32.9895349 C131.434327,33.9223256 135.251079,35.2304651 137.493745,36.9125581 C139.735006,38.5967442 140.856339,41.7537209 140.856339,46.3827907 C140.856339,51.0139535 139.356776,54.4095349 136.357648,56.5744186 C133.358521,58.7393023 128.980048,59.8213953 123.225042,59.8213953 C119.467345,59.8213953 106.930206,58.4413953 106.930206,58.4413953 L107.293673,52.5788372 C114.499733,53.2681395 119.709891,53.7788372 123.225042,53.7788372 C126.738085,53.7788372 129.419442,53.2234884 131.268412,52.11 C133.115976,50.997907 134.040461,49.1337209 134.040461,46.5181395 C134.040461,43.9025581 133.252364,42.1290698 131.677576,41.1969767 C130.101382,40.2655814 126.647394,39.3788372 121.316315,38.5360465 C115.98383,37.6946512 112.196606,36.4618605 109.955345,34.8376744 C107.713382,33.214186 106.592752,30.2086047 106.592752,25.8188372 C106.592752,21.4304651 108.152073,18.1834884 111.273527,16.0786047 C114.393576,13.9744186 118.286255,12.9216279 122.952267,12.9216279 C126.647394,12.9216279 139.472073,13.8544186 139.472073,13.8544186 L139.472073,19.7525581 C132.724388,19.4462791 127.191539,18.964186 123.31503,18.964186 Z" id="Path"></path>
                    <path d="M173.731442,19.6855814 L159.280655,19.6855814 L159.280655,41.2416279 C159.280655,46.414186 159.658182,49.8104651 160.416752,51.4332558 C161.173915,53.0567442 162.975782,53.8688372 165.824461,53.8688372 L173.912824,53.3274419 L174.367685,58.9193023 C170.307685,59.58 167.217164,59.9113953 165.096824,59.9113953 C160.371055,59.9113953 157.099152,58.77 155.281115,56.4837209 C153.463782,54.1995349 152.554764,49.8404651 152.554764,43.405814 L152.554764,19.6848837 L146.101648,19.6848837 L146.101648,13.8223256 L152.554764,13.8223256 L152.554764,0.0223255814 L159.279952,0.0223255814 L159.279952,13.8223256 L173.730739,13.8223256 L173.730739,19.6855814 L173.731442,19.6855814 Z" id="Path"></path>
                    <path d="M183.207588,8.06162791 L183.207588,0.214883721 L190.02417,0.214883721 L190.02417,8.06162791 L183.207588,8.06162791 Z M183.207588,59.4732558 L183.207588,13.8230233 L190.02417,13.8230233 L190.02417,59.4732558 L183.207588,59.4732558 Z" id="Shape"></path>
                    <path d="M219.54863,12.9216279 C221.548048,12.9216279 224.940873,13.2823256 229.727806,14.0037209 L231.908606,14.2744186 L231.63583,19.7755814 C226.787733,19.2348837 223.213527,18.964186 220.911103,18.964186 C215.76,18.964186 212.261018,20.1816279 210.413455,22.6172093 C208.564485,25.0527907 207.641406,29.5618605 207.641406,36.1465116 C207.641406,42.7304651 208.504727,47.3162791 210.23137,49.9011628 C211.958012,52.4867442 215.548388,53.7795349 221.001794,53.7795349 L231.726521,52.9681395 L231.999297,58.56 C226.364509,59.4013953 222.152655,59.8227907 219.366545,59.8227907 C212.277188,59.8227907 207.384097,58.0193023 204.688679,54.4109302 C201.991855,50.8032558 200.644145,44.7153488 200.644145,36.1472093 C200.644145,27.5783721 202.098012,21.5665116 205.006448,18.1081395 C207.915588,14.6504651 212.762279,12.9216279 219.54863,12.9216279 Z" id="Path"></path>
                </g>
            </g>
            <text id="hubble-Payment-API" font-family="OpenSans-Regular, Open Sans" font-size="48" font-weight="normal" fill="#FFFFFF">
                <tspan x="1239.41016" y="827">hubble Payment API</tspan>
            </text>
            <text id="Customer,-Login,-Add" font-family="OpenSans-Regular, Open Sans" font-size="36" font-weight="normal" fill="#FFFFFF">
                <tspan x="1323.41699" y="921">Customer, Login, </tspan>
                <tspan x="1244.2627" y="970">Addressbook, Orders, IPN, </tspan>
                <tspan x="1373.25977" y="1019">Forms, etc.</tspan>
            </text>
            <g id="logomark.min" transform="translate(17.000000, 933.000000)" fill="#FF2D20">
                <path d="M129.926693,30.321325 C129.974896,30.5000107 130,30.6842465 130,30.8693384 L130,59.6387332 C130,60.3903437 129.598528,61.0845263 128.947517,61.4584525 L104.837274,75.3606884 L104.837274,102.916063 C104.837274,103.665976 104.43932,104.358204 103.790027,104.735782 L53.4619567,133.751652 C53.3467596,133.817204 53.2210899,133.859157 53.0954203,133.903732 C53.0482942,133.919465 53.0037862,133.948308 52.954042,133.961418 C52.6022298,134.054204 52.2324261,134.054204 51.8806138,133.961418 C51.8230153,133.945686 51.7706529,133.914221 51.7156725,133.893244 C51.6004753,133.851291 51.4800419,133.814582 51.370081,133.751652 L1.05248318,104.735782 C0.401868492,104.361457 0,103.667527 0,102.916063 L0,16.6078785 C0,16.4190891 0.0261811737,16.235544 0.0733072864,16.0572429 C0.0890159907,15.9969352 0.125669634,15.9418717 0.146614573,15.881564 C0.185886333,15.7714369 0.222539977,15.6586877 0.280138559,15.5564268 C0.319410319,15.4882529 0.377008902,15.4331893 0.424135014,15.3702596 C0.484351714,15.2863532 0.539332179,15.1998248 0.610021348,15.1264067 C0.670238047,15.066099 0.748781568,15.0215237 0.81685262,14.9690823 C0.892778024,14.9061525 0.960849076,14.8379786 1.04724695,14.7881592 L1.04986507,14.7881592 L26.209973,0.280224276 C26.8582998,-0.093408092 27.6561402,-0.093408092 28.3044669,0.280224276 L53.4645749,14.7881592 L53.4698111,14.7881592 C53.5535908,14.8406006 53.62428,14.9061525 53.7002054,14.9664602 C53.7682765,15.0189017 53.8442019,15.066099 53.9044186,15.1237846 C53.9777259,15.1998248 54.0300882,15.2863532 54.092923,15.3702596 C54.137431,15.4331893 54.1976477,15.4882529 54.2343014,15.5564268 C54.2945181,15.6613098 54.3285536,15.7714369 54.3704435,15.881564 C54.3913884,15.9418717 54.4280421,15.9969352 54.4437508,16.059865 C54.4919545,16.2385508 54.5165996,16.4227865 54.517058,16.6078785 L54.517058,70.5150958 L75.482942,58.424713 L75.482942,30.8667163 C75.482942,30.6831712 75.5091231,30.4970039 75.5562492,30.321325 C75.5745761,30.2583952 75.6086116,30.2033316 75.6295565,30.1430239 C75.6714464,30.0328968 75.7081001,29.9201477 75.7656986,29.8178868 C75.8049704,29.7497128 75.862569,29.6946493 75.907077,29.6317195 C75.9699118,29.5478132 76.0222741,29.4612847 76.0955814,29.3878666 C76.1557981,29.3275589 76.2317235,29.2829837 76.2997946,29.2305422 C76.3783381,29.1676124 76.4464092,29.0994385 76.5301889,29.0496191 L76.532807,29.0496191 L101.695533,14.5416842 C102.343716,14.1675135 103.141844,14.1675135 103.790027,14.5416842 L128.950135,29.0496191 C129.039151,29.1020606 129.107222,29.1676124 129.185765,29.2279201 C129.251218,29.2803616 129.327144,29.3275589 129.387361,29.3852446 C129.460668,29.4612847 129.51303,29.5478132 129.575865,29.6317195 C129.622991,29.6946493 129.68059,29.7497128 129.717243,29.8178868 C129.77746,29.9201477 129.811496,30.0328968 129.853385,30.1430239 C129.876948,30.2033316 129.910984,30.2583952 129.926693,30.321325 Z M125.805776,58.424713 L125.805776,34.5009108 L117.001047,39.5772458 L104.837274,46.5912935 L104.837274,70.5150958 L125.808394,58.424713 L125.805776,58.424713 Z M100.645668,101.702043 L100.645668,77.762508 L88.6808716,84.6061209 L54.5144399,104.135327 L54.5144399,128.30036 L100.645668,101.702043 Z M4.19422403,20.2394508 L4.19422403,101.702043 L50.3202159,128.297738 L50.3202159,104.137949 L26.2230636,90.4795665 L26.2152092,90.4743223 L26.2047368,90.4690782 C26.1235751,90.4218808 26.0555041,90.3537069 25.9795787,90.2960213 C25.9141258,90.2435798 25.8382003,90.2016266 25.7806018,90.143941 L25.7753655,90.1360748 C25.7072945,90.0705229 25.6601684,89.9892386 25.6025698,89.9158206 C25.5502074,89.8450246 25.4873726,89.7847169 25.4454827,89.7112988 L25.4428646,89.7034326 C25.3957385,89.6247704 25.3669392,89.5303757 25.3329037,89.4412252 C25.2988682,89.362563 25.2543602,89.2891449 25.2334152,89.2052385 L25.2334152,89.2026165 C25.2072341,89.1029777 25.2019978,88.9980947 25.1915254,88.8958338 C25.1810529,88.8171716 25.1601079,88.7385094 25.1601079,88.6598472 L25.1601079,88.654603 L25.1601079,32.3298336 L12.9989528,25.3131638 L4.19422403,20.2420729 L4.19422403,20.2394508 Z M27.2598381,4.52273985 L6.29657228,16.6078785 L27.2546018,28.6930171 L48.2152495,16.6052564 L27.2546018,4.52273985 L27.2598381,4.52273985 Z M38.1616788,79.9440735 L50.322834,72.9326479 L50.322834,20.2394508 L41.5181053,25.3157859 L29.354332,32.3298336 L29.354332,85.0230307 L38.1616788,79.9440735 Z M102.74278,18.7841998 L81.7821324,30.8693384 L102.74278,42.954477 L123.70081,30.8667163 L102.74278,18.7841998 Z M100.645668,46.5912935 L88.4818947,39.5772458 L79.677166,34.5009108 L79.677166,58.424713 L91.8383212,65.4361386 L100.645668,70.5150958 L100.645668,46.5912935 Z M52.4147098,100.503755 L83.1592621,82.9253716 L98.5276111,74.141424 L77.5826721,62.0641516 L53.467193,75.9690095 L31.4880976,88.6414927 L52.4147098,100.503755 Z" id="Shape"></path>
            </g>
            <g id="Vue.js_Logo_2" transform="translate(246.000000, 933.000000)" fill-rule="nonzero">
                <g id="Group" transform="translate(65.000000, 56.992754) scale(-1, 1) rotate(-180.000000) translate(-65.000000, -56.992754) ">
                    <g transform="translate(0.039394, 0.006572)" fill="#41B883" id="Path">
                        <polygon points="79.4444444 112.386249 64.5607576 86.5807887 49.6770707 112.386249 0.112272727 112.386249 64.5607576 0.644084934 129.009242 112.386249"></polygon>
                    </g>
                    <g transform="translate(25.645455, 44.698180)" fill="#34495E" id="Path">
                        <polygon points="53.8383838 67.6946411 38.954697 41.889181 24.0710101 67.6946411 0.285606061 67.6946411 38.954697 0.65065723 77.6237879 67.6946411"></polygon>
                    </g>
                </g>
            </g>
            <g id="pwa-inverse" transform="translate(464.000000, 465.000000)" fill-rule="nonzero">
                <polygon id="Path" fill="#FFFFFF" points="195 82.089647 202.659009 62.6866399 224.773565 62.6866399 214.278591 33.2533234 227.404439 0 265 100 237.274632 100 230.850246 82.089647"></polygon>
                <polygon id="Path" fill="#5A0FC8" points="171.630115 100 212 0 185.236151 0.000132878701 157.620817 64.6223742 137.983549 0.000265756041 117.411556 0.000265756041 96.3263568 64.6223742 81.4565828 35.1753536 68 76.5807362 81.6624376 100 108.001362 100 127.055125 42.0478127 145.221846 100"></polygon>
                <path d="M25.2596522,65.6716817 L41.6504673,65.6716817 C46.615542,65.6716817 51.0367531,65.115032 54.9141007,64.0017326 L59.1529855,50.8837949 L71,14.2211129 C70.0973084,12.7839062 69.0667445,11.4250333 67.9083084,10.144671 C61.8255703,3.38147933 52.9259848,0 41.2092808,0 L0,0 L0,100 L25.2596522,100 L25.2596522,65.6716817 Z M46.9554059,23.0060002 C49.3313379,25.4079892 50.5191684,28.6222975 50.5191684,32.6491975 C50.5191684,36.7069846 49.4743814,39.9252389 47.384943,42.3039604 C45.0943495,44.94706 40.8765961,46.2685417 34.7319538,46.2685417 L25.2596522,46.2685417 L25.2596522,19.4028126 L34.8015792,19.4028126 C40.5283338,19.4028126 44.5796094,20.6038751 46.9554059,23.0060002 Z" id="Shape" fill="#FFFFFF"></path>
            </g>
            <text id="1" font-family="OpenSans-Regular, Open Sans" font-size="72" font-weight="normal" fill="#FFFFFF">
                <tspan x="755.416016" y="543">1</tspan>
            </text>
            <rect id="Rectangle" stroke="#979797" stroke-width="5" x="428" y="408" width="409" height="210"></rect>
            <g id="pwa-inverse" transform="translate(928.000000, 465.000000)" fill-rule="nonzero">
                <polygon id="Path" fill="#FFFFFF" points="195 82.089647 202.659009 62.6866399 224.773565 62.6866399 214.278591 33.2533234 227.404439 0 265 100 237.274632 100 230.850246 82.089647"></polygon>
                <polygon id="Path" fill="#5A0FC8" points="171.630115 100 212 0 185.236151 0.000132878701 157.620817 64.6223742 137.983549 0.000265756041 117.411556 0.000265756041 96.3263568 64.6223742 81.4565828 35.1753536 68 76.5807362 81.6624376 100 108.001362 100 127.055125 42.0478127 145.221846 100"></polygon>
                <path d="M25.2596522,65.6716817 L41.6504673,65.6716817 C46.615542,65.6716817 51.0367531,65.115032 54.9141007,64.0017326 L59.1529855,50.8837949 L71,14.2211129 C70.0973084,12.7839062 69.0667445,11.4250333 67.9083084,10.144671 C61.8255703,3.38147933 52.9259848,0 41.2092808,0 L0,0 L0,100 L25.2596522,100 L25.2596522,65.6716817 Z M46.9554059,23.0060002 C49.3313379,25.4079892 50.5191684,28.6222975 50.5191684,32.6491975 C50.5191684,36.7069846 49.4743814,39.9252389 47.384943,42.3039604 C45.0943495,44.94706 40.8765961,46.2685417 34.7319538,46.2685417 L25.2596522,46.2685417 L25.2596522,19.4028126 L34.8015792,19.4028126 C40.5283338,19.4028126 44.5796094,20.6038751 46.9554059,23.0060002 Z" id="Shape" fill="#FFFFFF"></path>
            </g>
            <text id="2" font-family="OpenSans-Regular, Open Sans" font-size="72" font-weight="normal" fill="#FFFFFF">
                <tspan x="1219.41602" y="543">2</tspan>
            </text>
            <rect id="Rectangle" stroke="#979797" stroke-width="5" x="892" y="408" width="409" height="210"></rect>
            <g id="pwa-inverse" transform="translate(1392.000000, 465.000000)" fill-rule="nonzero">
                <polygon id="Path" fill="#FFFFFF" points="195 82.089647 202.659009 62.6866399 224.773565 62.6866399 214.278591 33.2533234 227.404439 0 265 100 237.274632 100 230.850246 82.089647"></polygon>
                <polygon id="Path" fill="#5A0FC8" points="171.630115 100 212 0 185.236151 0.000132878701 157.620817 64.6223742 137.983549 0.000265756041 117.411556 0.000265756041 96.3263568 64.6223742 81.4565828 35.1753536 68 76.5807362 81.6624376 100 108.001362 100 127.055125 42.0478127 145.221846 100"></polygon>
                <path d="M25.2596522,65.6716817 L41.6504673,65.6716817 C46.615542,65.6716817 51.0367531,65.115032 54.9141007,64.0017326 L59.1529855,50.8837949 L71,14.2211129 C70.0973084,12.7839062 69.0667445,11.4250333 67.9083084,10.144671 C61.8255703,3.38147933 52.9259848,0 41.2092808,0 L0,0 L0,100 L25.2596522,100 L25.2596522,65.6716817 Z M46.9554059,23.0060002 C49.3313379,25.4079892 50.5191684,28.6222975 50.5191684,32.6491975 C50.5191684,36.7069846 49.4743814,39.9252389 47.384943,42.3039604 C45.0943495,44.94706 40.8765961,46.2685417 34.7319538,46.2685417 L25.2596522,46.2685417 L25.2596522,19.4028126 L34.8015792,19.4028126 C40.5283338,19.4028126 44.5796094,20.6038751 46.9554059,23.0060002 Z" id="Shape" fill="#FFFFFF"></path>
            </g>
            <text id="3" font-family="OpenSans-Regular, Open Sans" font-size="72" font-weight="normal" fill="#FFFFFF">
                <tspan x="1694.41602" y="542">3</tspan>
            </text>
            <rect id="Rectangle" stroke="#979797" stroke-width="5" x="1356" y="408" width="409" height="210"></rect>
            <g id="pwa-inverse" transform="translate(464.000000, 465.000000)" fill-rule="nonzero">
                <polygon id="Path" fill="#FFFFFF" points="195 82.089647 202.659009 62.6866399 224.773565 62.6866399 214.278591 33.2533234 227.404439 0 265 100 237.274632 100 230.850246 82.089647"></polygon>
                <polygon id="Path" fill="#5A0FC8" points="171.630115 100 212 0 185.236151 0.000132878701 157.620817 64.6223742 137.983549 0.000265756041 117.411556 0.000265756041 96.3263568 64.6223742 81.4565828 35.1753536 68 76.5807362 81.6624376 100 108.001362 100 127.055125 42.0478127 145.221846 100"></polygon>
                <path d="M25.2596522,65.6716817 L41.6504673,65.6716817 C46.615542,65.6716817 51.0367531,65.115032 54.9141007,64.0017326 L59.1529855,50.8837949 L71,14.2211129 C70.0973084,12.7839062 69.0667445,11.4250333 67.9083084,10.144671 C61.8255703,3.38147933 52.9259848,0 41.2092808,0 L0,0 L0,100 L25.2596522,100 L25.2596522,65.6716817 Z M46.9554059,23.0060002 C49.3313379,25.4079892 50.5191684,28.6222975 50.5191684,32.6491975 C50.5191684,36.7069846 49.4743814,39.9252389 47.384943,42.3039604 C45.0943495,44.94706 40.8765961,46.2685417 34.7319538,46.2685417 L25.2596522,46.2685417 L25.2596522,19.4028126 L34.8015792,19.4028126 C40.5283338,19.4028126 44.5796094,20.6038751 46.9554059,23.0060002 Z" id="Shape" fill="#FFFFFF"></path>
            </g>
            <text id="1" font-family="OpenSans-Regular, Open Sans" font-size="72" font-weight="normal" fill="#FFFFFF">
                <tspan x="755.416016" y="543">1</tspan>
            </text>
            <rect id="Rectangle" stroke="#979797" stroke-width="5" x="428" y="408" width="409" height="210"></rect>
            <g id="Node.js_logo_2015" transform="translate(79.000000, 472.000000)">
                <path d="M150.74768,0.000159469258 C150.540915,0.00282615643 150.331778,0.0526053377 150.147252,0.1617854 C149.778821,0.379977438 149.546819,0.780691444 149.546819,1.21159487 L149.546819,32.1001244 C149.546819,32.4036282 149.406714,32.6748338 149.146535,32.8270441 C148.8857,32.9796364 148.567406,32.9796364 148.305935,32.8270441 L143.302361,29.9198798 C142.55687,29.4862615 141.646303,29.4865213 140.900645,29.9198798 L120.926379,41.5485268 C120.179605,41.9830517 119.725518,42.819019 119.725518,43.688456 L119.725518,66.94575 C119.725518,67.814535 120.180246,68.6100647 120.926379,69.0453638 L140.900645,80.6740108 C141.647419,81.1086631 142.555587,81.1086631 143.302361,80.6740108 L163.276627,69.0453638 C164.02276,68.6100647 164.477488,67.814535 164.477488,66.94575 L164.477488,8.96402619 C164.477488,8.08201835 164.000345,7.25429239 163.236599,6.82403075 L151.348108,0.121408897 C151.161415,0.0163647898 150.954444,-0.00198214676 150.74768,0.000159469258 L150.74768,0.000159469258 Z M22.2558987,29.0314541 C21.8749902,29.0469385 21.5171279,29.1141427 21.1751263,29.3141559 L1.20085597,40.9428028 C0.456581181,41.3768082 0,42.1673004 0,43.0424218 L0.0399420166,74.2539633 C0.0399420166,74.6881012 0.261976203,75.0912244 0.640375052,75.3039002 C1.01126016,75.5278173 1.47159821,75.5278173 1.84123102,75.3039002 L13.6896945,68.4396399 C14.4402358,67.98987 14.9305783,67.2075224 14.9305783,66.340026 L14.9305783,51.7639045 C14.9305783,50.8944675 15.3839985,50.0964878 16.1314393,49.6642855 L21.1750405,46.716816 C21.551475,46.4972895 21.9556064,46.3937938 22.3758964,46.3937938 C22.7875618,46.3937938 23.2107351,46.4971621 23.5767575,46.716816 L28.6203586,49.6642855 C29.3677742,50.0964878 29.8212146,50.8944675 29.8212146,51.7639045 L29.8212146,66.340026 C29.8212146,67.2075224 30.3164552,67.9949126 31.0621035,68.4396399 L42.9105669,75.3039002 C43.282674,75.5278173 43.7423657,75.5278173 44.1114229,75.3039002 C44.4792126,75.0912244 44.7118508,74.6881012 44.7118508,74.2539633 L44.7517929,43.0424218 C44.7517929,42.1673004 44.3002713,41.3768082 43.5509369,40.9428028 L23.576712,29.3141559 C23.2388712,29.1141427 22.8794234,29.0472135 22.4959396,29.0314541 L22.2557674,29.0314541 L22.2558987,29.0314541 Z M201.744106,29.3137484 C201.326811,29.3137484 200.917913,29.4201066 200.543245,29.637173 L180.56898,41.26582 C179.822847,41.7004722 179.368124,42.4960019 179.368124,43.3654389 L179.368124,66.6227278 C179.368124,67.4972022 179.856472,68.2901495 180.609008,68.7223467 L200.423162,80.1087296 C201.154883,80.5302048 202.048322,80.5617288 202.784846,80.1487648 L214.793426,73.4057002 C215.174496,73.192505 215.432281,72.7942919 215.433882,72.3558908 C215.436406,71.9173623 215.209722,71.5243141 214.833454,71.3060813 L194.7391,59.6774343 C194.362832,59.4610148 194.098644,59.0224864 194.098644,58.5871872 L194.098644,51.3192841 C194.098644,50.8847592 194.366033,50.486541 194.7391,50.269602 L200.983562,46.6355231 C201.355028,46.4187114 201.811351,46.4187114 202.184418,46.6355231 L208.42888,50.269602 C208.801947,50.486541 209.029308,50.8847592 209.029308,51.3192841 L209.029308,57.0529819 C209.029308,57.4881487 209.256669,57.88572 209.629736,58.102659 C210.004403,58.3202449 210.45753,58.3211464 210.830597,58.102659 L222.799144,51.0771473 C223.542076,50.6418482 224,49.8442505 224,48.9775335 L224,43.3650314 C224,42.4981769 223.543676,41.7007116 222.799144,41.2654125 L202.944962,29.6367655 C202.571088,29.4181507 202.161402,29.3142679 201.744106,29.3137484 L201.744106,29.3137484 Z M142.021445,46.6763733 C142.125582,46.6763733 142.248165,46.7021976 142.341673,46.7564794 L149.186563,50.7538908 C149.372296,50.862424 149.506791,51.0623099 149.506791,51.2787293 L149.506791,59.2734248 C149.506791,59.4904911 149.373578,59.6905043 149.186563,59.7983957 L142.341673,63.7956747 C142.155298,63.9029192 141.927619,63.9029192 141.741245,63.7956747 L134.896355,59.7983957 C134.70998,59.6898625 134.576127,59.4904911 134.576127,59.2734248 L134.576127,51.2787293 C134.576127,51.0623099 134.710622,50.8629436 134.896355,50.7538908 L141.741245,46.7571263 C141.834752,46.7028597 141.917293,46.6770202 142.021445,46.6770202 L142.021445,46.6763733 Z" id="path22" fill="#404137"></path>
                <path d="M262.101122,29 C261.407257,29 260.732658,29.1422021 260.13586,29.4769788 L241.245278,40.2884676 C240.022807,40.9860001 239.280017,42.3044937 239.280017,43.7068093 L239.280017,65.2901045 C239.280017,66.6916579 240.022807,68.0086222 241.245278,68.7083208 L246.178487,71.5305017 C248.575304,72.7011923 249.459274,72.6831312 250.550193,72.6831312 C254.098896,72.6831312 256.125119,70.5491966 256.125119,66.8402181 L256.125119,45.5352248 C256.125119,45.2340281 255.862015,45.0184334 255.563616,45.0184334 L253.197283,45.0184334 C252.894067,45.0184334 252.635775,45.2340281 252.635775,45.5352248 L252.635775,66.8402181 C252.635775,68.4842021 250.907951,70.1374723 248.103642,68.7481284 L242.9699,65.7670833 C242.788613,65.6691464 242.649036,65.4962876 242.649036,65.2901045 L242.649036,43.7068093 C242.649036,43.5018998 242.787009,43.2938114 242.9699,43.1901482 L261.82037,32.4183417 C261.99684,32.3178575 262.207002,32.3178575 262.381873,32.4183417 L281.232343,43.1901482 C281.412027,43.2969903 281.553202,43.4956672 281.553202,43.7068093 L281.553202,65.2901045 C281.553202,65.4962876 281.44886,65.7074297 281.27245,65.8067706 L262.381873,76.5785771 C262.219838,76.6739719 261.99684,76.6739719 261.82037,76.5785771 L256.967374,73.716709 C256.822986,73.6327616 256.62566,73.6391196 256.486084,73.716709 C255.146501,74.4693173 254.894624,74.5568248 253.638461,74.9886509 C253.328835,75.0954931 252.858772,75.2617382 253.798893,75.783614 L260.13586,79.4801274 C260.739074,79.8260907 261.411274,79.9967884 262.101122,79.9967884 C262.800592,79.9967884 263.463169,79.8260907 264.066383,79.4801274 L282.95696,68.7083208 C284.179436,68.0036632 284.922221,66.6916579 284.922221,65.2901045 L284.922221,43.7068093 C284.922221,42.3044937 284.179436,40.9889284 282.95696,40.2884676 L264.066383,29.4769788 C263.474396,29.1422021 262.794986,29 262.101122,29 L262.101122,29 Z M82.4200281,29.4371663 C82.0029888,29.4371663 81.5902905,29.5414662 81.2168083,29.7551505 L61.2032248,41.1629305 C60.4549805,41.590299 60,42.4143894 60,43.2695177 L60,66.164437 C60,67.0205831 60.4554663,67.8030809 61.2032248,68.231342 L81.2168083,79.6788042 C81.9650526,80.1070653 82.8750087,80.1070653 83.623253,79.6788042 L103.636836,68.231342 C104.383796,67.8030809 104.840061,67.0205831 104.840061,66.164437 L104.840061,43.2695177 C104.840061,42.4131209 104.385081,41.590299 103.636836,41.1629305 L83.623253,29.7551505 C83.2497708,29.5414662 82.8370675,29.4371663 82.4200281,29.4371663 Z M290.136182,29.5567294 L290.136182,30.113203 L291.700372,30.113203 L291.700372,34.2071954 L292.342088,34.2071954 L292.342088,30.113203 L293.946385,30.113203 L293.946385,29.5567294 L290.136182,29.5567294 L290.136182,29.5567294 Z M294.507888,29.5567294 L294.507888,34.2071954 L295.109498,34.2071954 L295.109498,31.4646397 C295.109498,31.3527082 295.114608,31.1795987 295.109498,30.9479787 C295.101808,30.7120314 295.109498,30.5063598 295.109498,30.3913747 L295.109498,30.2718166 L296.433043,34.2068143 L297.074759,34.2068143 L298.438411,30.2718166 C298.438411,30.5221344 298.404664,30.7638028 298.39839,30.9872798 C298.39586,31.2047799 298.39839,31.3681017 298.39839,31.4642587 L298.39839,34.2068143 L299,34.2068143 L299,29.5563483 L298.117638,29.5563483 L296.753987,33.4914764 L295.430442,29.5563483 L294.507974,29.5563483 L294.507888,29.5567294 Z M267.154651,44.4225282 C261.775447,44.4225282 258.57167,46.6912891 258.57167,50.4642436 C258.57167,54.5572231 261.751384,55.6817431 266.914006,56.1879747 C273.090546,56.7871892 273.571831,57.6859407 273.571831,58.8908481 C273.571831,60.9807732 271.890529,61.8718932 267.916692,61.8718932 C262.924125,61.8718932 261.826785,60.6367152 261.4594,58.1753848 C261.416141,57.9114535 261.210736,57.698406 260.938008,57.698406 L258.491457,57.698406 C258.18985,57.698406 257.929954,57.9554629 257.929954,58.2548796 C257.929954,61.4054742 259.659382,65.1313706 267.916692,65.1313706 C273.894299,65.1313706 277.341927,62.8060097 277.341927,58.7318585 C277.341927,54.6929369 274.55687,53.6088612 268.758947,52.8491328 C262.900057,52.0808802 262.341766,51.704897 262.341766,50.3450665 C262.341766,49.2225773 262.815032,47.7215626 267.154651,47.7215626 C271.030627,47.7215626 272.463265,48.5499752 273.050435,51.1400296 C273.101773,51.3834781 273.318355,51.5771909 273.571831,51.5771909 L276.018383,51.5771909 C276.169186,51.5771909 276.315178,51.4856119 276.419459,51.3783887 C276.522132,51.263915 276.594326,51.1349402 276.579886,50.981035 C276.201273,46.520466 273.199634,44.4225282 267.154651,44.4225282 L267.154651,44.4225282 Z M202.100473,49.8680575 C202.020512,49.8680575 201.932022,49.8680575 201.859828,49.9074992 L198.009518,52.1333937 C197.86513,52.2147989 197.768873,52.3662823 197.768873,52.5308728 L197.768873,56.9031671 C197.768873,57.0677576 197.86513,57.2186092 198.009518,57.3006512 L201.859828,59.4867332 C202.004211,59.569407 202.158227,59.569407 202.301006,59.4867332 L206.151315,57.3006512 C206.294099,57.219246 206.39196,57.0677576 206.39196,56.9031671 L206.39196,52.5308728 C206.39196,52.3662823 206.294165,52.2153054 206.151315,52.1333937 L202.301006,49.9074992 C202.229647,49.8655305 202.180494,49.8680575 202.100473,49.8680575 Z" id="path28" fill="#83CD29"></path>
            </g>
            <path id="Line-4" d="M731.67795,1116.32936 L1002.137,1203.41 L1005.81546,1191.98786 L1028.97594,1214.67799 L996.927544,1219.5923 L1000.605,1208.169 L730.145551,1121.08874 L731.67795,1116.32936 Z" fill="#FFFFFF" fill-rule="nonzero"></path>
            <path id="Line-4" d="M759.072216,1113.93096 L755.395,1125.353 L1028.85481,1213.38636 L1027.32264,1218.14582 L753.862,1130.112 L750.185609,1141.53582 L727.024054,1118.84678 L759.072216,1113.93096 Z" fill="#FFFFFF" fill-rule="nonzero"></path>
            <path id="Line-4" d="M534.472617,626.472914 L535.181,691.563 L547.181032,691.43284 L532.997813,720.589079 L518.182753,691.74876 L530.181,691.617 L529.472914,626.527383 L534.472617,626.472914 Z" fill="#FFFFFF" fill-rule="nonzero"></path>
            <path id="Line-4" d="M532.992693,617.27003 L547.807435,646.110512 L535.808,646.241 L536.521462,711.782645 L531.521758,711.837059 L530.808,646.295 L518.809152,646.426113 L532.992693,617.27003 Z" fill="#FFFFFF" fill-rule="nonzero"></path>
            <path id="Line-4" d="M630.312514,618.722429 L1437.494,714.654 L1438.91042,702.737848 L1465.99651,720.559008 L1435.48792,731.535184 L1436.903,719.619 L629.722429,623.687486 L630.312514,618.722429 Z" fill="#FFFFFF" fill-rule="nonzero"></path>
            <path id="Line-4" d="M1663,645 L1663,696 L1675,696 L1660.5,725 L1646,696 L1658,696 L1658,645 L1663,645 Z" fill="#FFFFFF" fill-rule="nonzero"></path>
            <path id="Line-4" d="M1662.5,621 L1677,650 L1665,650 L1665,715 L1660,715 L1660,650 L1648,650 L1662.5,621 Z" fill="#FFFFFF" fill-rule="nonzero"></path>
            <polygon id="Polygon" stroke="#979797" stroke-width="5" points="882.05 108 1297.85 108 1406 213 1301 318 882.05 318 776 213"></polygon>
            <text id="Webserver,-Loadbalan" font-family="OpenSans-Regular, Open Sans" font-size="40" font-weight="normal" fill="#FFFFFF">
                <tspan x="852.498047" y="202">Webserver, Loadbalancer</tspan>
                <tspan x="940.945312" y="257">A/B Testing, etc.</tspan>
            </text>
            <g id="noun_Cloud_1188501" transform="translate(925.000000, 0.000000)" fill="#FFFFFF" fill-rule="nonzero">
                <path d="M43.648405,135.666667 C48.7784595,135.666667 53.1756491,134.933333 57.9392712,133.466667 C70.0315427,145.933333 87.2538686,154 106.308357,154 C122.431386,154 137.088684,148.5 148.814523,138.966667 C156.876038,145.566667 167.502579,149.6 178.861986,149.6 C193.519284,149.6 207.077286,143 215.871665,132.366667 C222.101017,136.4 229.796099,138.966667 237.857613,138.966667 C249.583452,138.966667 260.209993,133.833333 267.538643,126.133333 C271.935832,130.166667 277.798752,132.733333 284.394536,132.733333 C293.92178,132.733333 301.983295,127.6 306.380484,119.9 C308.579079,121.366667 311.144106,122.1 313.709134,122.1 C321.404216,122.1 328,115.866667 328,107.8 C328,99.7333333 321.770648,93.5 313.709134,93.5 C311.144106,93.5 308.579079,94.2333333 306.380484,95.7 C301.983295,88 293.92178,82.8666667 284.394536,82.8666667 C281.463077,82.8666667 278.531617,83.6 275.600157,84.3333333 C269.737238,68.9333333 255.079939,57.9333333 237.857613,57.9333333 C234.193288,57.9333333 230.895396,58.3 227.597504,59.4 C220.268854,42.5333333 203.412961,31.1666667 183.99204,31.1666667 C177.396256,31.1666667 170.800471,32.6333333 165.303984,35.2 C152.478848,13.9333333 129.393602,0 103.010465,0 C71.4972725,0 44.3812699,20.1666667 34.8540257,48.4 C15.0666725,52.8 0.0429413067,70.4 0.0429413067,91.6666667 C-1.0563561,115.866667 19.0974296,135.666667 43.648405,135.666667 Z" id="Path"></path>
            </g>
            <path id="Line-5" d="M1562.6842,615.719841 L1563.28016,620.684197 L756.095,717.585 L757.525116,729.499654 L727.003564,718.559596 L754.068542,700.706389 L755.499,712.621 L1562.6842,615.719841 Z" fill="#FFFFFF" fill-rule="nonzero"></path>
            <path id="Line-6" d="M1053.33183,617.968468 L1057.03153,621.331832 L984.521,701.093 L993.400306,709.165463 L963.163664,720.86997 L971.942044,689.657952 L980.821,697.729 L1053.33183,617.968468 Z" fill="#FFFFFF" fill-rule="nonzero"></path>
            <path id="Line-7" d="M1144.44724,617.96486 L1227.79,698.856 L1236.14784,690.245532 L1246.85879,720.848238 L1215.95006,711.055372 L1224.307,702.444 L1140.96486,621.552763 L1144.44724,617.96486 Z" fill="#FFFFFF" fill-rule="nonzero"></path>
            <path id="Line-8" d="M968.794586,622.095996 L963.424703,654.071211 L953.728,647.001 L899.047088,721.992949 L895.007051,719.047088 L949.688,644.055 L939.992484,636.985218 L968.794586,622.095996 Z" fill="#FFFFFF" fill-rule="nonzero"></path>
            <path id="Line-9" d="M1243.27639,618.052786 L1269.21478,637.506578 L1258.481,642.872 L1297.8541,721.618034 L1293.38197,723.854102 L1254.009,645.108 L1243.27639,650.475772 L1243.27639,618.052786 Z" fill="#FFFFFF" fill-rule="nonzero"></path>
            <path id="Line-10" d="M1465.09388,1116.34412 L1466.65588,1121.09388 L1193.354,1210.971 L1197.10339,1222.37089 L1165.02502,1217.6562 L1188.0438,1194.82232 L1191.792,1206.221 L1465.09388,1116.34412 Z" fill="#FFFFFF" fill-rule="nonzero"></path>
            <path id="Line-11" d="M1433.89701,1114.62649 L1465.97499,1119.34384 L1442.95432,1142.17581 L1439.206,1130.775 L1171.90586,1218.65574 L1170.34426,1213.90586 L1437.645,1126.025 L1433.89701,1114.62649 Z" fill="#FFFFFF" fill-rule="nonzero"></path>
        </g>
    </g>
</svg>