<?xml version="1.0" encoding="UTF-8"?>
<svg width="672px" height="509px" viewBox="0 0 672 509" version="1.1" xmlns="http://www.w3.org/2000/svg" xmlns:xlink="http://www.w3.org/1999/xlink">
    <!-- Generator: Sketch 59.1 (86144) - https://sketch.com -->
    <title>hubble-legacy-shop</title>
    <desc>Created with Sketch.</desc>
    <defs>
        <path d="M0.208541667,58.5802469 C0.208541667,26.3518827 49.8522865,0.225092593 111.088542,0.225092593 L111.088542,0.225092593 C172.324797,0.225092593 221.968943,26.3518827 221.968943,58.5802469 L221.968943,58.5802469 C221.968943,90.8082099 172.324797,116.935401 111.088542,116.935401 L111.088542,116.935401 C49.8522865,116.935401 0.208541667,90.8082099 0.208541667,58.5802469" id="path-1"></path>
        <radialGradient cx="30.020204%" cy="82.421541%" fx="30.020204%" fy="82.421541%" r="124.754482%" gradientTransform="translate(0.300202,0.824215),scale(0.526290,1.000000),translate(-0.300202,-0.824215)" id="radialGradient-3">
            <stop stop-color="#AEB2D5" offset="0%"></stop>
            <stop stop-color="#AEB2D5" offset="30%"></stop>
            <stop stop-color="#484C89" offset="75%"></stop>
            <stop stop-color="#484C89" offset="100%"></stop>
        </radialGradient>
        <polygon id="path-4" points="0 130 231 130 231 0 0 0"></polygon>
        <polygon id="path-6" points="0 130 231 130 231 0 0 0"></polygon>
    </defs>
    <g id="Page-1" stroke="none" stroke-width="1" fill="none" fill-rule="evenodd">
        <g id="hubble-legacy-shop" transform="translate(3.000000, 3.000000)">
            <rect id="Rectangle" stroke="#979797" stroke-width="5" x="0" y="0" width="666" height="503" rx="8"></rect>
            <text id="Legacy-Shop-Frontend" font-family="OpenSans-Regular, Open Sans" font-size="48" font-weight="normal" fill="#FFFFFF">
                <tspan x="193.722656" y="128">Legacy Shop</tspan>
                <tspan x="108.199219" y="193">Frontend + Backend</tspan>
            </text>
            <g id="mysql-logo" transform="translate(381.000000, 270.000000)">
                <g id="Group" transform="translate(88.500000, 61.000000) scale(-1, 1) rotate(-180.000000) translate(-88.500000, -61.000000) ">
                    <g transform="translate(0.173038, 0.736522)">
                        <path d="M42.3197574,10.7658435 L35.5296604,10.7658435 C35.2908675,22.2797826 34.6289503,33.1066522 33.5470509,43.2485565 L33.4872437,43.2485565 L23.1488727,10.7658435 L17.9789017,10.7658435 L7.70316149,43.2485565 L7.6426254,43.2485565 C6.88016386,33.5085826 6.40048338,22.681713 6.20044196,10.7658435 L0.00931711243,10.7658435 C0.409399953,25.2574348 1.41065439,38.8420522 3.01308043,51.5228522 L11.4290639,51.5228522 L21.2253331,21.5758783 L21.2854471,21.5758783 L31.1418335,51.5228522 L39.1944956,51.5228522 C40.9577927,36.6714174 41.9990554,23.0825913 42.3189122,10.7658435" id="Path" fill="#00758F" fill-rule="nonzero"></path>
                        <path d="M71.7740237,40.8359217 C69.0089485,25.7635304 65.3617012,14.8104 60.8345858,7.97758261 C57.3072586,2.71260957 53.4431077,0.0801756522 49.2353254,0.0801756522 C48.1136272,0.0801756522 46.7304089,0.419606957 45.0890219,1.09405043 L45.0890219,4.72741739 C45.8908633,4.6094687 46.8317911,4.5465487 47.9139,4.5465487 C49.8769243,4.5465487 51.4589272,5.09157478 52.6625272,6.17941739 C54.1038728,7.50494609 54.825174,8.99482435 54.825174,10.6458957 C54.825174,11.7736157 54.2625444,14.0876617 53.1424172,17.5881391 L45.690403,40.8359217 L52.3609988,40.8359217 L57.7094361,23.4487478 C58.9109414,19.5010965 59.4120923,16.7452426 59.211632,15.1744522 C62.136845,23.0237748 64.1804095,31.5778435 65.3430586,40.8359217 L71.7740237,40.8359217" id="Path" fill="#00758F" fill-rule="nonzero"></path>
                        <path d="M101.518402,22.0630348 C101.518402,18.6065383 100.254266,15.7689304 97.7343728,13.5487383 C95.2123846,11.3383313 91.8242485,10.2301817 87.5814852,10.2301817 C83.6131243,10.2301817 79.7673018,11.505627 76.0419231,14.0356843 L77.7846923,17.5366878 C80.9905917,15.9267565 83.891716,15.1227904 86.4964438,15.1227904 C88.9398817,15.1227904 90.8523195,15.6690791 92.2358521,16.7483991 C93.6162426,17.8355052 94.4436391,19.3516878 94.4436391,21.2747461 C94.4436391,23.6947461 92.7637101,25.76332 89.6813964,27.4986704 C86.8357811,29.0674617 81.1487396,32.3427739 81.1487396,32.3427739 C78.0674734,34.6008443 76.5226509,37.0236852 76.5226509,41.0157383 C76.5226509,44.3173548 77.6747219,46.9859835 79.9757219,49.0163635 C82.2819586,51.050847 85.2574438,52.0680887 88.9011302,52.0680887 C92.667355,52.0680887 96.0921479,51.0583174 99.1765562,49.0460348 L97.6097396,45.548293 C94.9704497,46.6724357 92.3678166,47.2367165 89.8018402,47.2367165 C87.7197337,47.2367165 86.115213,46.7345139 84.9966568,45.7242165 C83.8718166,44.7226522 83.1763846,43.4337391 83.1763846,41.8628435 C83.1763846,39.4490513 84.8929704,37.3553304 88.062213,35.5864157 C90.9434379,34.0167826 96.7697751,30.6781296 96.7697751,30.6781296 C99.9390178,28.4241626 101.518402,26.0211026 101.518402,22.0630348" id="Path" fill="#F29111" fill-rule="nonzero"></path>
                        <path d="M113.657041,18.9191391 C112.013769,21.5758783 111.190562,25.8391817 111.190562,31.7177826 C111.190562,41.9805817 114.296964,47.1152957 120.506627,47.1152957 C123.753373,47.1152957 126.136065,45.8871983 127.659941,43.4335287 C129.301118,40.775527 130.124325,36.5491548 130.124325,30.7527287 C130.124325,20.4077548 127.017923,15.2331635 120.80826,15.2331635 C117.562562,15.2331635 115.178822,16.4599983 113.657041,18.9187183 M137.817018,9.78279739 L130.359976,13.47698 C131.023999,14.0240052 131.654485,14.6141696 132.225284,15.2973461 C135.391385,19.036667 136.976006,24.571207 136.976006,31.8985461 C136.976006,45.3821548 131.706852,52.1276417 121.169592,52.1276417 C116.000982,52.1276417 111.972923,50.4178591 109.088556,46.9933487 C105.921408,43.2495035 104.339929,37.7357965 104.339929,30.4500183 C104.339929,23.2858713 105.741266,18.0301574 108.546036,14.6916096 C111.101538,11.6739748 114.966213,10.163053 120.140059,10.163053 C122.070302,10.163053 123.841349,10.4017913 125.451107,10.879373 L135.162018,5.20215826 L137.809686,9.78321826" id="Shape" fill="#F29111"></path>
                        <polyline id="Path" fill="#F29111" fill-rule="nonzero" points="162.159231 10.7658435 142.868325 10.7658435 142.868325 51.5228522 149.359722 51.5228522 149.359722 15.7794522 162.159231 15.7794522 162.159231 10.7659487"></polyline>
                        <path d="M166.788462,10.7700522 L167.864077,10.7700522 L167.864077,14.9167748 L169.271698,14.9167748 L169.271698,15.7637748 L165.326379,15.7637748 L165.326379,14.9167748 L166.788462,14.9167748 L166.788462,10.7700522 Z M174.973402,10.7700522 L175.987235,10.7700522 L175.987235,15.7637748 L174.462312,15.7637748 L173.221218,12.359887 L171.870152,15.7637748 L170.400738,15.7637748 L170.400738,10.7700522 L171.360089,10.7700522 L171.360089,14.5706096 L171.414561,14.5706096 L172.829513,10.7700522 L173.560544,10.7700522 L174.973402,14.5706096 L174.973402,10.7700522" id="Shape" fill="#F29111" fill-rule="nonzero"></path>
                        <path d="M170.307515,65.1748087 C166.384189,65.2733921 163.345864,64.8800948 160.797692,63.7958296 C160.062462,63.5006948 158.887349,63.5006948 158.786805,62.5648913 C159.181651,62.1715887 159.228792,61.5319722 159.574402,60.987893 C160.160911,60.0030583 161.188349,58.6755304 162.121527,57.9842522 C163.151049,57.1959635 164.180592,56.4109365 165.260396,55.7216574 C167.17074,54.5347 169.328254,53.8482617 171.188325,52.6658287 C172.270225,51.9773913 173.344793,51.0916713 174.426692,50.3510461 C174.963976,49.9573226 175.304361,49.3161278 175.993509,49.0724443 L175.993509,49.2215374 C175.647877,49.6634504 175.551533,50.3038035 175.210101,50.7990617 C174.720994,51.2876913 174.229793,51.7337078 173.738592,52.2240209 C172.316308,54.1442383 170.54945,55.8169843 168.642249,57.1959635 C167.07229,58.2822278 163.639118,59.7597957 163.004432,61.5763739 C163.004432,61.5763739 162.953112,61.6285586 162.904935,61.6770638 C163.983692,61.7770214 165.260396,62.1715855 166.288882,62.4702977 C167.953101,62.9122108 169.472787,62.8122542 171.188325,63.2541673 C171.973828,63.4526073 172.758284,63.7004995 173.545882,63.9426047 L173.545882,64.3889368 C172.658787,65.2733837 172.024101,66.4570899 171.093018,67.2934629 C168.595118,69.4594681 165.846905,71.5753899 163.004432,73.3509334 C161.482651,74.3360838 159.522036,74.9731751 157.903899,75.812389 C157.318448,76.1083655 156.339178,76.2541968 155.994604,76.7494551 C155.111688,77.8324577 154.61945,79.2586795 153.983716,80.541069 C152.563527,83.2465238 151.188373,86.2494281 149.965083,89.110289 C149.083235,91.0294542 148.543846,92.9486195 147.465089,94.7225847 C142.413781,103.095785 136.925734,108.165159 128.494669,113.139837 C126.68068,114.175176 124.524213,114.618141 122.222166,115.160011 C120.994686,115.211567 119.770349,115.307315 118.544964,115.355715 C117.759462,115.70188 116.973959,116.638315 116.289,117.08128 C113.493657,118.853141 106.291118,122.693576 104.231006,117.622098 C102.907172,114.41928 106.191621,111.269072 107.319604,109.643463 C108.152226,108.512376 109.232041,107.229776 109.817503,105.951385 C110.16104,105.113854 110.259479,104.225819 110.604053,103.340941 C111.387462,101.174515 112.121645,98.7608281 113.153272,96.7406542 C113.690556,95.7063778 114.278112,94.621576 114.964118,93.6904021 C115.360001,93.1453865 116.043923,92.9023238 116.191598,92.0132368 C115.507686,91.0294542 115.454272,89.5522021 115.062568,88.3201064 C113.298852,82.7551586 113.983811,75.8613151 116.484852,71.7746716 C117.267213,70.5437334 119.132521,67.8343855 121.632515,68.8709873 C123.838207,69.7558445 123.348053,72.5629603 123.984834,75.0236795 C124.131451,75.6188101 124.033001,76.0092297 124.326266,76.4026586 L124.326266,76.3031313 C125.012262,74.9262566 125.700373,73.5999913 126.337154,72.2164879 C127.858935,69.8059574 130.503462,67.2938922 132.711249,65.6211461 C133.884266,64.7313227 134.816396,63.2072487 136.286858,62.6639061 L136.286858,62.8126835 L136.190503,62.8126835 C135.895154,63.2545755 135.455283,63.4530366 135.062521,63.7962347 C134.180652,64.6832067 133.20245,65.7670616 132.513302,66.7513703 C130.455284,69.5079607 128.639201,72.5629477 127.025254,75.7142086 C126.238715,77.2443851 125.553746,78.9171312 124.915917,80.4427833 C124.622652,81.0309591 124.622652,81.9199303 124.131451,82.2146442 C123.394136,81.1324833 122.31851,80.1954173 121.780179,78.8698886 C120.848049,76.7498633 120.750657,74.140472 120.405025,71.4307033 C120.21022,71.3792573 120.30867,71.4307033 120.21022,71.3328522 C118.643404,71.7265652 118.104025,73.3513427 117.514374,74.7256922 C116.043913,78.2266957 115.796741,83.8403592 117.073456,87.8789183 C117.414888,88.9111114 118.889538,92.1612661 118.29884,93.1461009 C118.002454,94.0856817 117.023183,94.6223009 116.484852,95.3640835 C115.849108,96.2994661 115.158923,97.4789531 114.722183,98.5153444 C113.544976,101.27204 112.953231,104.326501 111.682811,107.083197 C111.094207,108.365797 110.06258,109.695744 109.232041,110.875231 C108.298864,112.205179 107.270379,113.140562 106.534101,114.714614 C106.291108,115.257536 105.947581,116.144518 106.338249,116.733736 C106.434593,117.128301 106.633587,117.276668 107.026339,117.375572 C107.659988,117.917431 109.476061,117.22932 110.111794,116.933659 C111.92683,116.197138 113.446516,115.503755 114.964108,114.471572 C115.651151,113.978113 116.386392,113.04272 117.267203,112.794407 L118.298819,112.794407 C119.866683,112.452451 121.632494,112.698659 123.104003,112.25359 C125.700352,111.417111 128.052671,110.186068 130.162009,108.85612 C136.581139,104.768424 141.875429,98.9562158 145.452086,92.0139723 C146.041736,90.8828854 146.288908,89.8475462 146.827239,88.6680593 C147.856772,86.2501636 149.132429,83.7880767 150.159867,81.4266827 C151.188362,79.1119001 152.170754,76.7501906 153.64331,74.8267114 C154.376447,73.7943184 157.318417,73.2525541 158.642251,72.7104741 C159.620475,72.2686662 161.142245,71.874101 162.025151,71.3331784 C163.691464,70.3007854 165.354636,69.1170897 166.925642,67.9826358 C167.707992,67.3916297 170.159819,66.1619541 170.307494,65.175541" id="Path" fill="#00758F"></path>
                        <path d="M120.307633,107.974108 C119.476058,107.974108 118.889538,107.873078 118.297793,107.726816 L118.297793,107.627922 L118.393101,107.627922 C118.788984,106.841948 119.476047,106.29587 119.962012,105.607748 C120.356858,104.819649 120.700374,104.034748 121.092089,103.245617 C121.140256,103.294007 121.187386,103.345584 121.187386,103.345584 C121.878618,103.835887 122.221108,104.622924 122.221108,105.806619 C121.924711,106.153847 121.878618,106.495804 121.631457,106.841969 C121.338203,107.333324 120.700374,107.579543 120.307623,107.974108" id="Path" fill="#00758F"></path>
                    </g>
                </g>
            </g>
            <g id="PHP-logo" transform="translate(69.000000, 270.000000)">
                <g id="g3438" transform="translate(115.500000, 65.000000) scale(-1, 1) rotate(-180.000000) translate(-115.500000, -65.000000) ">
                    <g id="g3440" transform="translate(4.411458, 6.419753)">
                        <g id="g3442-Clipped">
                            <mask id="mask-2" fill="white">
                                <use xlink:href="#path-1"></use>
                            </mask>
                            <g id="path3446"></g>
                            <g id="g3442" mask="url(#mask-2)" fill="url(#radialGradient-3)" fill-rule="nonzero">
                                <g id="g3448">
                                    <g id="g3450">
                                        <path d="M0.208541667,58.5802469 C0.208541667,26.3518827 49.8522865,0.225092593 111.088542,0.225092593 L111.088542,0.225092593 C172.324797,0.225092593 221.968943,26.3518827 221.968943,58.5802469 L221.968943,58.5802469 C221.968943,90.8082099 172.324797,116.935401 111.088542,116.935401 L111.088542,116.935401 C49.8522865,116.935401 0.208541667,90.8082099 0.208541667,58.5802469" id="path3462"></path>
                                    </g>
                                </g>
                            </g>
                        </g>
                    </g>
                    <g id="g3464">
                        <g id="g3466-Clipped">
                            <mask id="mask-5" fill="white">
                                <use xlink:href="#path-4"></use>
                            </mask>
                            <g id="path3470"></g>
                            <g id="g3466" mask="url(#mask-5)">
                                <g transform="translate(8.822917, 10.833333)" id="g3472">
                                    <g transform="translate(0.000000, 0.144204)">
                                        <path d="M106.677083,0 C165.521526,0 213.225833,24.186821 213.225833,54.0226235 C213.225833,83.8580247 165.521526,108.045247 106.677083,108.045247 C47.8326406,108.045247 0.128333333,83.8580247 0.128333333,54.0226235 C0.128333333,24.186821 47.8326406,0 106.677083,0" id="path3474" fill="#777BB3" fill-rule="nonzero"></path>
                                    </g>
                                </g>
                            </g>
                        </g>
                    </g>
                    <g id="g3476">
                        <g id="g3478-Clipped">
                            <mask id="mask-7" fill="white">
                                <use xlink:href="#path-6"></use>
                            </mask>
                            <g id="path3482"></g>
                            <g id="g3478" mask="url(#mask-7)">
                                <g transform="translate(36.895833, 29.691358)">
                                    <g id="g3484" transform="translate(1.096608, 1.326722)">
                                        <path d="M26.8697917,27.2839506 C31.7083594,27.2839506 35.3205417,28.1766975 37.6060781,29.9365123 C39.867151,31.6782716 41.4288073,34.6959568 42.2473333,38.9053086 C43.0105156,42.8398148 42.7197604,45.5870679 41.3834896,47.0696296 C40.0171406,48.5838889 37.0630677,49.3518519 32.6034844,49.3518519 L24.871,49.3518519 L20.5842656,27.2839506 L26.8697917,27.2839506 Z M1.57890104,0.100308642 C1.21996875,0.100308642 0.879083333,0.260802469 0.650890625,0.53845679 C0.422296875,0.815709877 0.32965625,1.18083333 0.398234375,1.53351852 L11.7589427,60.013858 C11.8688281,60.5791975 12.3641146,60.9876543 12.9400104,60.9876543 L37.4252083,60.9876543 C45.1203958,60.9876543 50.8480729,58.8972222 54.448224,54.7737346 C58.067625,50.6285802 59.1853281,44.8343519 57.7700521,37.5523457 C57.1941562,34.5856173 56.2035833,31.8303395 54.8260052,29.3635494 C53.4468229,26.8939506 51.6240885,24.6089198 49.4075312,22.5706481 C46.7542396,20.0862037 43.7512396,18.2846605 40.4899687,17.2245988 C37.2804323,16.1785802 33.158526,15.6481481 28.2389479,15.6481481 L18.3243958,15.6481481 L15.4930417,1.07450617 C15.3831562,0.508765432 14.8882708,0.100308642 14.312375,0.100308642 L1.57890104,0.100308642 Z" id="path3486" fill="#000000" fill-rule="nonzero"></path>
                                    </g>
                                    <g id="g3488" transform="translate(0.089673, 0.123219)">
                                        <path d="M26.8697917,49.3518519 L33.6105,49.3518519 C38.9928802,49.3518519 40.8625365,48.170216 41.4977865,47.4660494 C42.551724,46.2968519 42.7506406,43.8316667 42.0732812,40.3373148 C41.3121042,36.4252778 39.9012396,33.6515432 37.8791875,32.0939506 C35.8090104,30.4994444 32.4434687,29.691358 27.8768073,29.691358 L23.0506719,29.691358 L26.8697917,49.3518519 Z M38.432224,63.3950617 L13.946625,63.3950617 C12.7948333,63.3950617 11.8046615,62.5781481 11.5848906,61.4470679 L0.224182292,2.9667284 C0.0870260417,2.26095679 0.272307292,1.53111111 0.72909375,0.976203704 C1.18628125,0.421296296 1.86725,0.100308642 2.58591667,0.100308642 L15.3189896,0.100308642 C16.4711823,0.100308642 17.4613542,0.917222222 17.681125,2.04830247 L20.3231875,15.6481481 L29.2459635,15.6481481 C34.2918698,15.6481481 38.5397031,16.198642 41.8703542,17.2839815 C45.295651,18.3974074 48.4470365,20.285216 51.2362812,22.8948457 C53.5430729,25.018179 55.4432083,27.4015123 56.8829479,29.9794444 C58.3230885,32.558179 59.357776,35.4338272 59.9581354,38.5265432 C61.4480052,46.1917284 60.2376615,52.3298148 56.3611927,56.7690741 C52.5224219,61.1658025 46.4899531,63.3950617 38.432224,63.3950617 M20.1314896,27.2839506 L27.8768073,27.2839506 C33.0105417,27.2839506 36.834474,28.2513272 39.347,30.1864815 C41.8599271,32.122037 43.5547292,35.3523765 44.4354167,39.8791049 C45.2780052,44.2252778 44.8942083,47.2923148 43.284026,49.0790123 C41.6718385,50.8657099 38.4478646,51.7592593 33.6105,51.7592593 L24.8862396,51.7592593 L20.1314896,27.2839506 M38.432224,60.9876543 C45.7981562,60.9876543 51.1717135,59.0537037 54.5492865,55.1854012 C57.9264583,51.3170988 58.9435,45.9176852 57.596,38.9855556 C57.0413594,36.1299691 56.1033229,33.5191358 54.7826927,31.153858 C53.4604583,28.7869753 51.733974,26.622716 49.6004323,24.6602778 C47.0578281,22.2797531 44.2332917,20.5833333 41.1252187,19.5730247 C38.0171458,18.5599074 34.0584635,18.0555556 29.2459635,18.0555556 L18.3392344,18.0555556 L15.3189896,2.50771605 L2.58591667,2.50771605 L13.946625,60.9876543 L38.432224,60.9876543" id="path3490" fill="#FFFFFF" fill-rule="nonzero"></path>
                                    </g>
                                    <g id="g3492" transform="translate(55.577557, 16.974870)">
                                        <path d="M32.484375,0 C32.1250417,0 31.7845573,0.160493827 31.5563646,0.438148148 C31.3273698,0.715401235 31.2347292,1.08012346 31.3033073,1.43320988 L36.3287604,27.3084259 C36.8068021,29.7691975 36.6888958,31.5354321 35.997099,32.2817284 C35.573599,32.7379321 34.3014948,33.5030864 30.540125,33.5030864 L21.4356771,33.5030864 L15.1172656,0.974197531 C15.0073802,0.40845679 14.5120937,0 13.9361979,0 L1.30338542,0 C0.944052083,0 0.603567708,0.160493827 0.374973958,0.438148148 C0.146380208,0.715401235 0.0537395833,1.08052469 0.122317708,1.43320988 L11.483026,59.9135494 C11.5929115,60.4788889 12.0881979,60.8873457 12.6640937,60.8873457 L25.2969062,60.8873457 C25.6562396,60.8873457 25.996724,60.7268519 26.2253177,60.4495988 C26.4539115,60.1719444 26.5465521,59.8072222 26.477974,59.4541358 L23.7364531,45.3395062 L33.5306927,45.3395062 C40.9920729,45.3395062 46.0516146,44.0234568 48.9984687,41.3159259 C52.0022708,38.5538272 52.9395052,34.1374383 51.7845052,28.1879321 L46.498776,0.974197531 C46.3888906,0.40845679 45.8940052,0 45.3177083,0 L32.484375,0 Z" id="path3494" fill="#000000" fill-rule="nonzero"></path>
                                    </g>
                                    <g id="g3496" transform="translate(54.405754, 15.671059)">
                                        <path d="M26.46875,63.3950617 L13.8359375,63.3950617 C12.6837448,63.3950617 11.6935729,62.5781481 11.4738021,61.4470679 L0.11309375,2.9667284 C-0.0240625,2.26095679 0.16121875,1.53111111 0.61840625,0.976203704 C1.07559375,0.421296296 1.7565625,0.100308642 2.47522917,0.100308642 L15.1080417,0.100308642 C16.2598333,0.100308642 17.2504062,0.917222222 17.4701771,2.04830247 L23.5992969,33.6033951 L31.7119687,33.6033951 C35.4669219,33.6033951 36.2549687,32.8009259 36.286651,32.7664198 C36.5144427,32.5212654 36.8140208,31.3857716 36.3195365,28.8419444 L31.2940833,2.9667284 C31.1569271,2.26095679 31.3422083,1.53111111 31.7993958,0.976203704 C32.2565833,0.421296296 32.9375521,0.100308642 33.6562187,0.100308642 L46.4895521,0.100308642 C47.6413437,0.100308642 48.6319167,0.917222222 48.8516875,2.04830247 L54.1370156,29.262037 C55.3774375,35.6500926 54.3162812,40.442037 50.9844271,43.5058642 C47.8049687,46.4272531 42.4791354,47.8472222 34.7025365,47.8472222 L26.3672865,47.8472222 L28.8308854,60.5282407 C28.9676406,61.2340123 28.7827604,61.9642593 28.3255729,62.5187654 C27.8683854,63.0736728 27.1874167,63.3950617 26.46875,63.3950617 M26.46875,60.9876543 L23.4485052,45.4398148 L34.7025365,45.4398148 C41.7837292,45.4398148 46.6680156,44.2032099 49.3561979,41.7332099 C52.0443802,39.2616049 52.8496719,35.2568827 51.7752812,29.7210494 L46.4895521,2.50771605 L33.6562187,2.50771605 L38.6816719,28.3825309 C39.2535573,31.3259877 39.0434115,33.3337654 38.0504323,34.4042593 C37.0570521,35.4747531 34.9439635,36.0108025 31.7119687,36.0108025 L21.6153437,36.0108025 L15.1080417,2.50771605 L2.47522917,2.50771605 L13.8359375,60.9876543 L26.46875,60.9876543" id="path3498" fill="#FFFFFF" fill-rule="nonzero"></path>
                                    </g>
                                    <g id="g3500" transform="translate(100.480909, 1.326722)">
                                        <path d="M26.8697917,27.2839506 C31.7083594,27.2839506 35.3205417,28.1766975 37.6060781,29.9365123 C39.867151,31.6778704 41.4288073,34.6955556 42.2477344,38.9053086 C43.0109167,42.8398148 42.7201615,45.5870679 41.3834896,47.0696296 C40.0171406,48.5838889 37.0630677,49.3518519 32.6034844,49.3518519 L24.871,49.3518519 L20.5842656,27.2839506 L26.8697917,27.2839506 Z M1.57930208,0.100308642 C1.22036979,0.100308642 0.879484375,0.260802469 0.651291667,0.53845679 C0.422697917,0.815709877 0.32965625,1.18083333 0.398234375,1.53351852 L11.7589427,60.013858 C11.8692292,60.5791975 12.3641146,60.9876543 12.9404115,60.9876543 L37.4252083,60.9876543 C45.1207969,60.9876543 50.8480729,58.8972222 54.448625,54.7737346 C58.068026,50.6289815 59.1853281,44.8347531 57.7704531,37.5523457 C57.1937552,34.5856173 56.2035833,31.8303395 54.8260052,29.3635494 C53.4468229,26.8939506 51.6240885,24.6089198 49.4075313,22.5706481 C46.7542396,20.0862037 43.7512396,18.2846605 40.4899688,17.2245988 C37.2804323,16.1785802 33.158526,15.6481481 28.2389479,15.6481481 L18.3239948,15.6481481 L15.4938438,1.07450617 C15.3835573,0.508765432 14.8886719,0.100308642 14.312375,0.100308642 L1.57930208,0.100308642 Z" id="path3502" fill="#000000" fill-rule="nonzero"></path>
                                    </g>
                                    <g id="g3504" transform="translate(99.474014, 0.123219)">
                                        <path d="M26.8697917,49.3518519 L33.6105,49.3518519 C38.9928802,49.3518519 40.8625365,48.170216 41.4977865,47.4660494 C42.552125,46.2968519 42.7510417,43.8316667 42.0732813,40.337716 C41.3121042,36.4252778 39.9008385,33.6515432 37.8791875,32.0939506 C35.8090104,30.4994444 32.4434688,29.691358 27.8768073,29.691358 L23.0510729,29.691358 L26.8697917,49.3518519 Z M38.432224,63.3950617 L13.947026,63.3950617 C12.7952344,63.3950617 11.8050625,62.5781481 11.5852917,61.4470679 L0.224583333,2.9667284 C0.0874270833,2.26095679 0.272708333,1.53111111 0.729494792,0.976203704 C1.18668229,0.421296296 1.86765104,0.100308642 2.58631771,0.100308642 L15.3193906,0.100308642 C16.4711823,0.100308642 17.4617552,0.917222222 17.681526,2.04830247 L20.3231875,15.6481481 L29.2459635,15.6481481 C34.2918698,15.6481481 38.5397031,16.198642 41.8703542,17.2839815 C45.295651,18.3974074 48.4478385,20.2856173 51.2370833,22.8956481 C53.543875,25.0185802 55.4432083,27.4015123 56.8829479,29.9794444 C58.3230885,32.558179 59.357776,35.4338272 59.9581354,38.5265432 C61.4480052,46.1921296 60.2376615,52.330216 56.3611927,56.7694753 C52.5224219,61.1658025 46.4903542,63.3950617 38.432224,63.3950617 M20.1318906,27.2839506 L27.8768073,27.2839506 C33.0105417,27.2839506 36.834474,28.2513272 39.347,30.1864815 C41.8603281,32.122037 43.5547292,35.3523765 44.4354167,39.8791049 C45.2784062,44.2252778 44.8946094,47.2923148 43.284026,49.0790123 C41.6718385,50.8657099 38.4478646,51.7592593 33.6105,51.7592593 L24.8862396,51.7592593 L20.1318906,27.2839506 M38.432224,60.9876543 C45.7981562,60.9876543 51.1717135,59.0537037 54.5492865,55.1854012 C57.9268594,51.3170988 58.9435,45.9176852 57.596,38.9855556 C57.0413594,36.1299691 56.1033229,33.5191358 54.7826927,31.153858 C53.4604583,28.7869753 51.733974,26.622716 49.6004323,24.6602778 C47.0578281,22.2797531 44.2332917,20.5833333 41.1252187,19.5730247 C38.0171458,18.5599074 34.0584635,18.0555556 29.2459635,18.0555556 L18.3392344,18.0555556 L15.3193906,2.50771605 L2.58631771,2.50771605 L13.947026,60.9876543 L38.432224,60.9876543" id="path3506" fill="#FFFFFF" fill-rule="nonzero"></path>
                                    </g>
                                </g>
                            </g>
                        </g>
                    </g>
                </g>
            </g>
            <text id="+" font-family="OpenSans-Regular, Open Sans" font-size="48" font-weight="normal" fill="#FFFFFF">
                <tspan x="319.277344" y="350">+</tspan>
            </text>
        </g>
    </g>
</svg>