<?xml version="1.0" encoding="UTF-8"?>
<svg width="672px" height="509px" viewBox="0 0 672 509" version="1.1" xmlns="http://www.w3.org/2000/svg" xmlns:xlink="http://www.w3.org/1999/xlink">
    <!-- Generator: Sketch 59.1 (86144) - https://sketch.com -->
    <title>hubble-legacy-shop-vec</title>
    <desc>Created with Sketch.</desc>
    <defs>
        <path d="M0.208541667,58.5802469 C0.208541667,26.3518827 49.8522865,0.225092593 111.088542,0.225092593 L111.088542,0.225092593 C172.324797,0.225092593 221.968943,26.3518827 221.968943,58.5802469 L221.968943,58.5802469 C221.968943,90.8082099 172.324797,116.935401 111.088542,116.935401 L111.088542,116.935401 C49.8522865,116.935401 0.208541667,90.8082099 0.208541667,58.5802469" id="path-1"></path>
        <radialGradient cx="30.020204%" cy="82.421541%" fx="30.020204%" fy="82.421541%" r="124.754482%" gradientTransform="translate(0.300202,0.824215),scale(0.526290,1.000000),translate(-0.300202,-0.824215)" id="radialGradient-3">
            <stop stop-color="#AEB2D5" offset="0%"></stop>
            <stop stop-color="#AEB2D5" offset="30%"></stop>
            <stop stop-color="#484C89" offset="75%"></stop>
            <stop stop-color="#484C89" offset="100%"></stop>
        </radialGradient>
        <polygon id="path-4" points="0 130 231 130 231 0 0 0"></polygon>
        <polygon id="path-6" points="0 130 231 130 231 0 0 0"></polygon>
    </defs>
    <g id="Page-1" stroke="none" stroke-width="1" fill="none" fill-rule="evenodd">
        <g id="hubble-legacy-shop-vec">
            <path d="M661,0.5 C666.79899,0.5 671.5,5.20101013 671.5,11 L671.5,498 C671.5,503.79899 666.79899,508.5 661,508.5 L11,508.5 C5.20101013,508.5 0.5,503.79899 0.5,498 L0.5,11 C0.5,5.20101013 5.20101013,0.5 11,0.5 L661,0.5 Z M661,5.5 L11,5.5 C7.96243388,5.5 5.5,7.96243388 5.5,11 L5.5,498 C5.5,501.037566 7.96243388,503.5 11,503.5 L661,503.5 C664.037566,503.5 666.5,501.037566 666.5,498 L666.5,11 C666.5,7.96243388 664.037566,5.5 661,5.5 Z" id="Rectangle" fill="#979797" fill-rule="nonzero"></path>
            <path d="M201.433594,131 L201.433594,96.734375 L205.417969,96.734375 L205.417969,127.390625 L220.535156,127.390625 L220.535156,131 L201.433594,131 Z M236.613281,131.46875 C232.816387,131.46875 229.820323,130.312512 227.625,128 C225.429677,125.687488 224.332031,122.476583 224.332031,118.367188 C224.332031,114.226542 225.351552,110.937512 227.390625,108.5 C229.429698,106.062488 232.167952,104.84375 235.605469,104.84375 C238.824235,104.84375 241.371084,105.902333 243.246094,108.019531 C245.121103,110.136729 246.058594,112.92967 246.058594,116.398438 L246.058594,118.859375 L228.363281,118.859375 C228.441407,121.875015 229.203118,124.164055 230.648438,125.726562 C232.093757,127.28907 234.128893,128.070312 236.753906,128.070312 C239.519545,128.070312 242.253893,127.492193 244.957031,126.335938 L244.957031,129.804688 C243.582024,130.39844 242.281256,130.824217 241.054688,131.082031 C239.828119,131.339845 238.347665,131.46875 236.613281,131.46875 Z M235.558594,108.101562 C233.496083,108.101562 231.851569,108.773431 230.625,110.117188 C229.398431,111.460944 228.675782,113.320301 228.457031,115.695312 L241.886719,115.695312 C241.886719,113.242175 241.339849,111.363288 240.246094,110.058594 C239.152338,108.7539 237.589854,108.101562 235.558594,108.101562 Z M273.714844,105.3125 L273.714844,107.773438 L268.957031,108.335938 C269.394533,108.882815 269.785155,109.597652 270.128906,110.480469 C270.472658,111.363286 270.644531,112.359369 270.644531,113.46875 C270.644531,115.984388 269.785165,117.99218 268.066406,119.492188 C266.347648,120.992195 263.988296,121.742188 260.988281,121.742188 C260.222652,121.742188 259.50391,121.679688 258.832031,121.554688 C257.175773,122.429692 256.347656,123.531243 256.347656,124.859375 C256.347656,125.562504 256.636716,126.08203 257.214844,126.417969 C257.792972,126.753908 258.785149,126.921875 260.191406,126.921875 L264.738281,126.921875 C267.519545,126.921875 269.656243,127.507807 271.148438,128.679688 C272.640632,129.851568 273.386719,131.554676 273.386719,133.789062 C273.386719,136.632827 272.246105,138.800774 269.964844,140.292969 C267.683582,141.785164 264.355491,142.53125 259.980469,142.53125 C256.621077,142.53125 254.031259,141.906256 252.210938,140.65625 C250.390616,139.406244 249.480469,137.640636 249.480469,135.359375 C249.480469,133.796867 249.980469,132.445318 250.980469,131.304688 C251.980469,130.164057 253.38671,129.390627 255.199219,128.984375 C254.542965,128.687499 253.99219,128.226566 253.546875,127.601562 C253.10156,126.976559 252.878906,126.250004 252.878906,125.421875 C252.878906,124.48437 253.128904,123.664066 253.628906,122.960938 C254.128909,122.257809 254.917963,121.578128 255.996094,120.921875 C254.667962,120.374997 253.585942,119.445319 252.75,118.132812 C251.914058,116.820306 251.496094,115.320321 251.496094,113.632812 C251.496094,110.820298 252.339835,108.652351 254.027344,107.128906 C255.714852,105.605461 258.105453,104.84375 261.199219,104.84375 C262.542975,104.84375 263.753901,104.999998 264.832031,105.3125 L273.714844,105.3125 Z M253.230469,135.3125 C253.230469,136.703132 253.8164,137.757809 254.988281,138.476562 C256.160162,139.195316 257.839833,139.554688 260.027344,139.554688 C263.292985,139.554688 265.71093,139.066411 267.28125,138.089844 C268.85157,137.113276 269.636719,135.789071 269.636719,134.117188 C269.636719,132.726556 269.207036,131.761721 268.347656,131.222656 C267.488277,130.683591 265.871106,130.414062 263.496094,130.414062 L258.832031,130.414062 C257.066397,130.414062 255.691411,130.835933 254.707031,131.679688 C253.722651,132.523442 253.230469,133.734367 253.230469,135.3125 Z M255.339844,113.539062 C255.339844,115.335946 255.847651,116.695308 256.863281,117.617188 C257.878911,118.539067 259.29296,119 261.105469,119 C264.902363,119 266.800781,117.156268 266.800781,113.46875 C266.800781,109.609356 264.878925,107.679688 261.035156,107.679688 C259.207022,107.679688 257.800786,108.17187 256.816406,109.15625 C255.832026,110.14063 255.339844,111.601553 255.339844,113.539062 Z M294.785156,131 L294.011719,127.34375 L293.824219,127.34375 C292.542962,128.953133 291.265631,130.042966 289.992188,130.613281 C288.718744,131.183597 287.128916,131.46875 285.222656,131.46875 C282.675769,131.46875 280.679695,130.812507 279.234375,129.5 C277.789055,128.187493 277.066406,126.320325 277.066406,123.898438 C277.066406,118.79737 281.077675,116.083499 289.10033,115.756745 L293.871094,115.601562 L293.871094,114.007812 C293.871094,111.992177 293.437504,110.503911 292.570312,109.542969 C291.703121,108.582026 290.316416,108.101562 288.410156,108.101562 C286.269521,108.101562 283.84767,108.757806 281.144531,110.070312 L279.949219,107.09375 C281.21485,106.406247 282.601555,105.867189 284.109375,105.476562 C285.617195,105.085936 287.128899,104.890625 288.644531,104.890625 C291.707047,104.890625 293.976555,105.570306 295.453125,106.929688 C296.929695,108.289069 297.667969,110.468735 297.667969,113.46875 L297.667969,131 L294.785156,131 Z M285.996094,128.257812 C288.417981,128.257812 290.320306,127.593757 291.703125,126.265625 C293.085944,124.937493 293.777344,123.078137 293.777344,120.6875 L293.777344,118.367188 L289.886719,118.53125 C286.792953,118.640626 284.562507,119.121089 283.195312,119.972656 C281.828118,120.824223 281.144531,122.148429 281.144531,123.945312 C281.144531,125.35157 281.570308,126.421871 282.421875,127.15625 C283.273442,127.890629 284.464836,128.257812 285.996094,128.257812 Z M315.949219,131.46875 C312.23045,131.46875 309.351573,130.32423 307.3125,128.035156 C305.273427,125.746082 304.253906,122.507833 304.253906,118.320312 C304.253906,114.023416 305.289052,110.703137 307.359375,108.359375 C309.429698,106.015613 312.378887,104.84375 316.207031,104.84375 C317.441412,104.84375 318.675775,104.976561 319.910156,105.242188 C321.144537,105.507814 322.113278,105.820311 322.816406,106.179688 L321.621094,109.484375 C320.761714,109.140623 319.824224,108.85547 318.808594,108.628906 C317.792964,108.402343 316.894535,108.289062 316.113281,108.289062 C310.894505,108.289062 308.285156,111.617154 308.285156,118.273438 C308.285156,121.429703 308.921869,123.851554 310.195312,125.539062 C311.468756,127.226571 313.355456,128.070312 315.855469,128.070312 C317.996104,128.070312 320.191395,127.60938 322.441406,126.6875 L322.441406,130.132812 C320.722648,131.023442 318.558607,131.46875 315.949219,131.46875 Z M324.457031,105.3125 L328.628906,105.3125 L334.253906,119.960938 L334.565285,120.812134 C335.617894,123.717507 336.27972,125.847819 336.550781,127.203125 L336.738281,127.203125 L336.82489,126.877746 C337.035156,126.115233 337.392408,124.978813 337.896652,123.468462 L338.503881,121.696494 C339.468553,118.936786 341.426883,113.475487 344.378906,105.3125 L348.550781,105.3125 L337.511719,134.5625 C336.417963,137.453139 335.140632,139.5039 333.679688,140.714844 C332.218743,141.925787 330.425792,142.53125 328.300781,142.53125 C327.113275,142.53125 325.941412,142.398439 324.785156,142.132812 L324.785156,139.015625 C325.644536,139.203126 326.605463,139.296875 327.667969,139.296875 C330.253667,139.296875 332.122309,137.892102 333.273945,135.082516 L334.816406,131.140625 L324.457031,105.3125 Z M385.113281,121.882812 C385.113281,124.898453 384.019542,127.249992 381.832031,128.9375 C379.64452,130.625008 376.6758,131.46875 372.925781,131.46875 C368.863261,131.46875 365.738292,130.945318 363.550781,129.898438 L363.550781,126.054688 C364.957038,126.64844 366.488273,127.117186 368.144531,127.460938 C369.80079,127.804689 371.441398,127.976562 373.066406,127.976562 C375.72267,127.976562 377.72265,127.472661 379.066406,126.464844 C380.410163,125.457026 381.082031,124.054696 381.082031,122.257812 C381.082031,121.070307 380.843752,120.09766 380.367188,119.339844 C379.890623,118.582027 379.093756,117.882816 377.976562,117.242188 C376.859369,116.601559 375.160168,115.875004 372.878906,115.0625 C369.69139,113.921869 367.414069,112.57032 366.046875,111.007812 C364.679681,109.445305 363.996094,107.406263 363.996094,104.890625 C363.996094,102.249987 364.988271,100.148445 366.972656,98.5859375 C368.957041,97.0234297 371.582015,96.2421875 374.847656,96.2421875 C378.253923,96.2421875 381.386704,96.8671813 384.246094,98.1171875 L383.003906,101.585938 C380.175767,100.398432 377.425795,99.8046875 374.753906,99.8046875 C372.644521,99.8046875 370.9961,100.257808 369.808594,101.164062 C368.621088,102.070317 368.027344,103.328117 368.027344,104.9375 C368.027344,106.125006 368.246092,107.097652 368.683594,107.855469 C369.121096,108.613285 369.85937,109.308591 370.898438,109.941406 C371.937505,110.574222 373.527333,111.273434 375.667969,112.039062 C379.261737,113.320319 381.734368,114.695305 383.085938,116.164062 C384.437507,117.63282 385.113281,119.539051 385.113281,121.882812 Z M409.113281,131 L409.113281,114.382812 C409.113281,112.289052 408.636724,110.726568 407.683594,109.695312 C406.730464,108.664057 405.238291,108.148438 403.207031,108.148438 C400.503893,108.148438 398.531256,108.882805 397.289062,110.351562 C396.046869,111.82032 395.425781,114.226546 395.425781,117.570312 L395.425781,131 L391.535156,131 L391.535156,94.53125 L395.425781,94.53125 L395.425781,105.570312 C395.425781,106.898444 395.363282,107.999996 395.238281,108.875 L395.472656,108.875 C396.238285,107.640619 397.328118,106.667972 398.742188,105.957031 C400.156257,105.24609 401.769522,104.890625 403.582031,104.890625 C406.722672,104.890625 409.078117,105.636711 410.648438,107.128906 C412.218758,108.621101 413.003906,110.992171 413.003906,114.242188 L413.003906,131 L409.113281,131 Z M443.167969,118.132812 C443.167969,122.320333 442.113292,125.589832 440.003906,127.941406 C437.894521,130.292981 434.980487,131.46875 431.261719,131.46875 C428.964832,131.46875 426.92579,130.929693 425.144531,129.851562 C423.363272,128.773432 421.988286,127.226573 421.019531,125.210938 C420.050776,123.195302 419.566406,120.835951 419.566406,118.132812 C419.566406,113.945292 420.613271,110.683605 422.707031,108.347656 C424.800792,106.011707 427.707013,104.84375 431.425781,104.84375 C435.019549,104.84375 437.874989,106.039051 439.992188,108.429688 C442.109386,110.820324 443.167969,114.054667 443.167969,118.132812 Z M423.597656,118.132812 C423.597656,121.414079 424.2539,123.914054 425.566406,125.632812 C426.878913,127.351571 428.808581,128.210938 431.355469,128.210938 C433.902356,128.210938 435.835931,127.355477 437.15625,125.644531 C438.476569,123.933585 439.136719,121.429704 439.136719,118.132812 C439.136719,114.867171 438.476569,112.386727 437.15625,110.691406 C435.835931,108.996085 433.886732,108.148438 431.308594,108.148438 C428.761706,108.148438 426.83985,108.984367 425.542969,110.65625 C424.246087,112.328133 423.597656,114.820296 423.597656,118.132812 Z M461.941406,131.46875 C460.269523,131.46875 458.742194,131.160159 457.359375,130.542969 C455.976556,129.925778 454.816411,128.976569 453.878906,127.695312 L453.597656,127.695312 C453.785157,129.19532 453.878906,130.617181 453.878906,131.960938 L453.878906,142.53125 L449.988281,142.53125 L449.988281,105.3125 L453.152344,105.3125 L453.691406,108.828125 L453.878906,108.828125 C454.878911,107.421868 456.042962,106.406253 457.371094,105.78125 C458.699225,105.156247 460.222648,104.84375 461.941406,104.84375 C465.347673,104.84375 467.976553,106.007801 469.828125,108.335938 C471.679697,110.664074 472.605469,113.929666 472.605469,118.132812 C472.605469,122.351584 471.664072,125.628895 469.78125,127.964844 C467.898428,130.300793 465.285173,131.46875 461.941406,131.46875 Z M461.378906,108.148438 C458.753893,108.148438 456.855475,108.874993 455.683594,110.328125 C454.511713,111.781257 453.910156,114.093734 453.878906,117.265625 L453.878906,118.132812 C453.878906,121.742206 454.480463,124.324211 455.683594,125.878906 C456.886725,127.433602 458.816393,128.210938 461.472656,128.210938 C463.691417,128.210938 465.429681,127.312509 466.6875,125.515625 C467.945319,123.718741 468.574219,121.242203 468.574219,118.085938 C468.574219,114.882796 467.945319,112.42579 466.6875,110.714844 C465.429681,109.003898 463.660168,108.148438 461.378906,108.148438 Z M119.894531,196 L115.910156,196 L115.910156,161.734375 L135.011719,161.734375 L135.011719,165.273438 L119.894531,165.273438 L119.894531,177.8125 L134.097656,177.8125 L134.097656,181.351562 L119.894531,181.351562 L119.894531,196 Z M151.816406,169.84375 C152.957037,169.84375 153.980464,169.937499 154.886719,170.125 L154.347656,173.734375 C153.285151,173.499999 152.34766,173.382812 151.535156,173.382812 C149.457021,173.382812 147.679695,174.226554 146.203125,175.914062 C144.726555,177.601571 143.988281,179.703112 143.988281,182.21875 L143.988281,196 L140.097656,196 L140.097656,170.3125 L143.308594,170.3125 L143.753906,175.070312 L143.941406,175.070312 C144.894536,173.398429 146.042962,172.10938 147.386719,171.203125 C148.730475,170.29687 150.207023,169.84375 151.816406,169.84375 Z M181.863281,183.132812 C181.863281,187.320333 180.808604,190.589832 178.699219,192.941406 C176.589833,195.292981 173.6758,196.46875 169.957031,196.46875 C167.660145,196.46875 165.621103,195.929693 163.839844,194.851562 C162.058585,193.773432 160.683599,192.226573 159.714844,190.210938 C158.746089,188.195302 158.261719,185.835951 158.261719,183.132812 C158.261719,178.945292 159.308583,175.683605 161.402344,173.347656 C163.496104,171.011707 166.402325,169.84375 170.121094,169.84375 C173.714862,169.84375 176.570302,171.039051 178.6875,173.429688 C180.804698,175.820324 181.863281,179.054667 181.863281,183.132812 Z M162.292969,183.132812 C162.292969,186.414079 162.949212,188.914054 164.261719,190.632812 C165.574225,192.351571 167.503894,193.210938 170.050781,193.210938 C172.597669,193.210938 174.531243,192.355477 175.851562,190.644531 C177.171882,188.933585 177.832031,186.429704 177.832031,183.132812 C177.832031,179.867171 177.171882,177.386727 175.851562,175.691406 C174.531243,173.996085 172.582044,173.148438 170.003906,173.148438 C167.457019,173.148438 165.535163,173.984367 164.238281,175.65625 C162.9414,177.328133 162.292969,179.820296 162.292969,183.132812 Z M206.261719,196 L206.261719,179.382812 C206.261719,177.289052 205.785161,175.726568 204.832031,174.695312 C203.878901,173.664057 202.386729,173.148438 200.355469,173.148438 C197.667955,173.148438 195.699225,173.874993 194.449219,175.328125 C193.199212,176.781257 192.574219,179.179671 192.574219,182.523438 L192.574219,196 L188.683594,196 L188.683594,170.3125 L191.847656,170.3125 L192.480469,173.828125 L192.667969,173.828125 C193.464848,172.562494 194.582024,171.582035 196.019531,170.886719 C197.457038,170.191403 199.058585,169.84375 200.824219,169.84375 C203.917984,169.84375 206.246086,170.589836 207.808594,172.082031 C209.371102,173.574226 210.152344,175.960921 210.152344,179.242188 L210.152344,196 L206.261719,196 Z M226.441406,193.257812 C227.12891,193.257812 227.792966,193.207032 228.433594,193.105469 C229.074222,193.003906 229.582029,192.898438 229.957031,192.789062 L229.957031,195.765625 C229.535154,195.968751 228.914067,196.136718 228.09375,196.269531 C227.273433,196.402344 226.53516,196.46875 225.878906,196.46875 C220.910131,196.46875 218.425781,193.851589 218.425781,188.617188 L218.425781,173.335938 L214.746094,173.335938 L214.746094,171.460938 L218.425781,169.84375 L220.066406,164.359375 L222.316406,164.359375 L222.316406,170.3125 L229.769531,170.3125 L229.769531,173.335938 L222.316406,173.335938 L222.316406,188.453125 C222.316406,190.000008 222.68359,191.187496 223.417969,192.015625 C224.152347,192.843754 225.16015,193.257812 226.441406,193.257812 Z M245.941406,196.46875 C242.144512,196.46875 239.148448,195.312512 236.953125,193 C234.757802,190.687488 233.660156,187.476583 233.660156,183.367188 C233.660156,179.226542 234.679677,175.937512 236.71875,173.5 C238.757823,171.062488 241.496077,169.84375 244.933594,169.84375 C248.15236,169.84375 250.699209,170.902333 252.574219,173.019531 C254.449228,175.136729 255.386719,177.92967 255.386719,181.398438 L255.386719,183.859375 L237.691406,183.859375 C237.769532,186.875015 238.531243,189.164055 239.976562,190.726562 C241.421882,192.28907 243.457018,193.070312 246.082031,193.070312 C248.84767,193.070312 251.582018,192.492193 254.285156,191.335938 L254.285156,194.804688 C252.910149,195.39844 251.609381,195.824217 250.382812,196.082031 C249.156244,196.339845 247.67579,196.46875 245.941406,196.46875 Z M244.886719,173.101562 C242.824208,173.101562 241.179694,173.773431 239.953125,175.117188 C238.726556,176.460944 238.003907,178.320301 237.785156,180.695312 L251.214844,180.695312 C251.214844,178.242175 250.667974,176.363288 249.574219,175.058594 C248.480463,173.7539 246.917979,173.101562 244.886719,173.101562 Z M279.597656,196 L279.597656,179.382812 C279.597656,177.289052 279.121099,175.726568 278.167969,174.695312 C277.214839,173.664057 275.722666,173.148438 273.691406,173.148438 C271.003893,173.148438 269.035163,173.874993 267.785156,175.328125 C266.53515,176.781257 265.910156,179.179671 265.910156,182.523438 L265.910156,196 L262.019531,196 L262.019531,170.3125 L265.183594,170.3125 L265.816406,173.828125 L266.003906,173.828125 C266.800785,172.562494 267.917962,171.582035 269.355469,170.886719 C270.792976,170.191403 272.394522,169.84375 274.160156,169.84375 C277.253922,169.84375 279.582023,170.589836 281.144531,172.082031 C282.707039,173.574226 283.488281,175.960921 283.488281,179.242188 L283.488281,196 L279.597656,196 Z M308.964844,192.554688 L308.753906,192.554688 C306.957022,195.164076 304.269549,196.46875 300.691406,196.46875 C297.332014,196.46875 294.718759,195.320324 292.851562,193.023438 C290.984366,190.726551 290.050781,187.460959 290.050781,183.226562 C290.050781,178.992166 290.988272,175.703137 292.863281,173.359375 C294.738291,171.015613 297.34764,169.84375 300.691406,169.84375 C304.175799,169.84375 306.847647,171.109362 308.707031,173.640625 L309.011719,173.640625 L308.847656,171.789062 L308.753906,169.984375 L308.753906,159.53125 L312.644531,159.53125 L312.644531,196 L309.480469,196 L308.964844,192.554688 Z M301.183594,193.210938 C303.839857,193.210938 305.765619,192.488288 306.960938,191.042969 C308.156256,189.597649 308.753906,187.265641 308.753906,184.046875 L308.753906,183.226562 C308.753906,179.585919 308.148444,176.988289 306.9375,175.433594 C305.726556,173.878898 303.792982,173.101562 301.136719,173.101562 C298.855457,173.101562 297.109381,173.988272 295.898438,175.761719 C294.687494,177.535165 294.082031,180.039046 294.082031,183.273438 C294.082031,186.554704 294.683588,189.031242 295.886719,190.703125 C297.08985,192.375008 298.855457,193.210938 301.183594,193.210938 Z M344.542969,177.460938 L354.199219,177.460938 L354.199219,180.695312 L344.542969,180.695312 L344.542969,190.679688 L341.285156,190.679688 L341.285156,180.695312 L331.675781,180.695312 L331.675781,177.460938 L341.285156,177.460938 L341.285156,167.429688 L344.542969,167.429688 L344.542969,177.460938 Z M373.863281,161.734375 L383.542969,161.734375 C388.089866,161.734375 391.378896,162.414056 393.410156,163.773438 C395.441416,165.132819 396.457031,167.281235 396.457031,170.21875 C396.457031,172.25001 395.890631,173.925775 394.757812,175.246094 C393.624994,176.566413 391.972667,177.421873 389.800781,177.8125 L389.800781,178.046875 C395.003932,178.937504 397.605469,181.671852 397.605469,186.25 C397.605469,189.312515 396.570323,191.703116 394.5,193.421875 C392.429677,195.140634 389.535175,196 385.816406,196 L373.863281,196 L373.863281,161.734375 Z M377.847656,176.40625 L384.410156,176.40625 C387.22267,176.40625 389.246088,175.964848 390.480469,175.082031 C391.71485,174.199214 392.332031,172.710948 392.332031,170.617188 C392.332031,168.695303 391.644538,167.308598 390.269531,166.457031 C388.894524,165.605464 386.707046,165.179688 383.707031,165.179688 L377.847656,165.179688 L377.847656,176.40625 Z M377.847656,179.78125 L377.847656,192.601562 L384.996094,192.601562 C387.761733,192.601562 389.843743,192.066412 391.242188,190.996094 C392.640632,189.925776 393.339844,188.250011 393.339844,185.96875 C393.339844,183.843739 392.625007,182.28125 391.195312,181.28125 C389.765618,180.28125 387.589858,179.78125 384.667969,179.78125 L377.847656,179.78125 Z M420.175781,196 L419.402344,192.34375 L419.214844,192.34375 C417.933587,193.953133 416.656256,195.042966 415.382812,195.613281 C414.109369,196.183597 412.519541,196.46875 410.613281,196.46875 C408.066394,196.46875 406.07032,195.812507 404.625,194.5 C403.17968,193.187493 402.457031,191.320325 402.457031,188.898438 C402.457031,183.79737 406.4683,181.083499 414.490955,180.756745 L419.261719,180.601562 L419.261719,179.007812 C419.261719,176.992177 418.828129,175.503911 417.960938,174.542969 C417.093746,173.582026 415.707041,173.101562 413.800781,173.101562 C411.660146,173.101562 409.238295,173.757806 406.535156,175.070312 L405.339844,172.09375 C406.605475,171.406247 407.99218,170.867189 409.5,170.476562 C411.00782,170.085936 412.519524,169.890625 414.035156,169.890625 C417.097672,169.890625 419.36718,170.570306 420.84375,171.929688 C422.32032,173.289069 423.058594,175.468735 423.058594,178.46875 L423.058594,196 L420.175781,196 Z M411.386719,193.257812 C413.808606,193.257812 415.710931,192.593757 417.09375,191.265625 C418.476569,189.937493 419.167969,188.078137 419.167969,185.6875 L419.167969,183.367188 L415.277344,183.53125 C412.183578,183.640626 409.953132,184.121089 408.585938,184.972656 C407.218743,185.824223 406.535156,187.148429 406.535156,188.945312 C406.535156,190.35157 406.960933,191.421871 407.8125,192.15625 C408.664067,192.890629 409.855461,193.257812 411.386719,193.257812 Z M441.339844,196.46875 C437.621075,196.46875 434.742198,195.32423 432.703125,193.035156 C430.664052,190.746082 429.644531,187.507833 429.644531,183.320312 C429.644531,179.023416 430.679677,175.703137 432.75,173.359375 C434.820323,171.015613 437.769512,169.84375 441.597656,169.84375 C442.832037,169.84375 444.0664,169.976561 445.300781,170.242188 C446.535162,170.507814 447.503903,170.820311 448.207031,171.179688 L447.011719,174.484375 C446.152339,174.140623 445.214849,173.85547 444.199219,173.628906 C443.183589,173.402343 442.28516,173.289062 441.503906,173.289062 C436.28513,173.289062 433.675781,176.617154 433.675781,183.273438 C433.675781,186.429703 434.312494,188.851554 435.585938,190.539062 C436.859381,192.226571 438.746081,193.070312 441.246094,193.070312 C443.386729,193.070312 445.58202,192.60938 447.832031,191.6875 L447.832031,195.132812 C446.113273,196.023442 443.949232,196.46875 441.339844,196.46875 Z M457.769531,182.851562 C458.44141,181.898433 459.464837,180.648445 460.839844,179.101562 L469.136719,170.3125 L473.753906,170.3125 L463.347656,181.257812 L474.480469,196 L469.769531,196 L460.699219,183.859375 L457.769531,186.390625 L457.769531,196 L453.925781,196 L453.925781,159.53125 L457.769531,159.53125 L457.769531,178.867188 C457.769531,179.726567 457.707032,181.054679 457.582031,182.851562 L457.769531,182.851562 Z M489.972656,196.46875 C486.175762,196.46875 483.179698,195.312512 480.984375,193 C478.789052,190.687488 477.691406,187.476583 477.691406,183.367188 C477.691406,179.226542 478.710927,175.937512 480.75,173.5 C482.789073,171.062488 485.527327,169.84375 488.964844,169.84375 C492.18361,169.84375 494.730459,170.902333 496.605469,173.019531 C498.480478,175.136729 499.417969,177.92967 499.417969,181.398438 L499.417969,183.859375 L481.722656,183.859375 C481.800782,186.875015 482.562493,189.164055 484.007812,190.726562 C485.453132,192.28907 487.488268,193.070312 490.113281,193.070312 C492.87892,193.070312 495.613268,192.492193 498.316406,191.335938 L498.316406,194.804688 C496.941399,195.39844 495.640631,195.824217 494.414062,196.082031 C493.187494,196.339845 491.70704,196.46875 489.972656,196.46875 Z M488.917969,173.101562 C486.855458,173.101562 485.210944,173.773431 483.984375,175.117188 C482.757806,176.460944 482.035157,178.320301 481.816406,180.695312 L495.246094,180.695312 C495.246094,178.242175 494.699224,176.363288 493.605469,175.058594 C492.511713,173.7539 490.949229,173.101562 488.917969,173.101562 Z M523.628906,196 L523.628906,179.382812 C523.628906,177.289052 523.152349,175.726568 522.199219,174.695312 C521.246089,173.664057 519.753916,173.148438 517.722656,173.148438 C515.035143,173.148438 513.066413,173.874993 511.816406,175.328125 C510.5664,176.781257 509.941406,179.179671 509.941406,182.523438 L509.941406,196 L506.050781,196 L506.050781,170.3125 L509.214844,170.3125 L509.847656,173.828125 L510.035156,173.828125 C510.832035,172.562494 511.949212,171.582035 513.386719,170.886719 C514.824226,170.191403 516.425772,169.84375 518.191406,169.84375 C521.285172,169.84375 523.613273,170.589836 525.175781,172.082031 C526.738289,173.574226 527.519531,175.960921 527.519531,179.242188 L527.519531,196 L523.628906,196 Z M552.996094,192.554688 L552.785156,192.554688 C550.988272,195.164076 548.300799,196.46875 544.722656,196.46875 C541.363264,196.46875 538.750009,195.320324 536.882812,193.023438 C535.015616,190.726551 534.082031,187.460959 534.082031,183.226562 C534.082031,178.992166 535.019522,175.703137 536.894531,173.359375 C538.769541,171.015613 541.37889,169.84375 544.722656,169.84375 C548.207049,169.84375 550.878897,171.109362 552.738281,173.640625 L553.042969,173.640625 L552.878906,171.789062 L552.785156,169.984375 L552.785156,159.53125 L556.675781,159.53125 L556.675781,196 L553.511719,196 L552.996094,192.554688 Z M545.214844,193.210938 C542.886707,193.210938 541.1211,192.375008 539.917969,190.703125 C538.714838,189.031242 538.113281,186.554704 538.113281,183.273438 C538.113281,180.039046 538.718744,177.535165 539.929688,175.761719 C541.140631,173.988272 542.886707,173.101562 545.167969,173.101562 C547.824232,173.101562 549.757806,173.878898 550.96875,175.433594 C552.179694,176.988289 552.785156,179.585919 552.785156,183.226562 L552.785156,184.046875 C552.785156,187.265641 552.187506,189.597649 550.992188,191.042969 C549.796869,192.488288 547.871107,193.210938 545.214844,193.210938 Z" id="LegacyShopFrontend+Backend" fill="#FFFFFF" fill-rule="nonzero"></path>
            <g id="mysql-logo" transform="translate(384.000000, 273.000000)">
                <g id="Group" transform="translate(88.500000, 61.000000) scale(-1, 1) rotate(-180.000000) translate(-88.500000, -61.000000) ">
                    <g transform="translate(0.173038, 0.736522)">
                        <path d="M42.3197574,10.7658435 L35.5296604,10.7658435 C35.2908675,22.2797826 34.6289503,33.1066522 33.5470509,43.2485565 L33.4872437,43.2485565 L23.1488727,10.7658435 L17.9789017,10.7658435 L7.70316149,43.2485565 L7.6426254,43.2485565 C6.88016386,33.5085826 6.40048338,22.681713 6.20044196,10.7658435 L0.00931711243,10.7658435 C0.409399953,25.2574348 1.41065439,38.8420522 3.01308043,51.5228522 L11.4290639,51.5228522 L21.2253331,21.5758783 L21.2854471,21.5758783 L31.1418335,51.5228522 L39.1944956,51.5228522 C40.9577927,36.6714174 41.9990554,23.0825913 42.3189122,10.7658435" id="Path" fill="#00758F" fill-rule="nonzero"></path>
                        <path d="M71.7740237,40.8359217 C69.0089485,25.7635304 65.3617012,14.8104 60.8345858,7.97758261 C57.3072586,2.71260957 53.4431077,0.0801756522 49.2353254,0.0801756522 C48.1136272,0.0801756522 46.7304089,0.419606957 45.0890219,1.09405043 L45.0890219,4.72741739 C45.8908633,4.6094687 46.8317911,4.5465487 47.9139,4.5465487 C49.8769243,4.5465487 51.4589272,5.09157478 52.6625272,6.17941739 C54.1038728,7.50494609 54.825174,8.99482435 54.825174,10.6458957 C54.825174,11.7736157 54.2625444,14.0876617 53.1424172,17.5881391 L45.690403,40.8359217 L52.3609988,40.8359217 L57.7094361,23.4487478 C58.9109414,19.5010965 59.4120923,16.7452426 59.211632,15.1744522 C62.136845,23.0237748 64.1804095,31.5778435 65.3430586,40.8359217 L71.7740237,40.8359217" id="Path" fill="#00758F" fill-rule="nonzero"></path>
                        <path d="M101.518402,22.0630348 C101.518402,18.6065383 100.254266,15.7689304 97.7343728,13.5487383 C95.2123846,11.3383313 91.8242485,10.2301817 87.5814852,10.2301817 C83.6131243,10.2301817 79.7673018,11.505627 76.0419231,14.0356843 L77.7846923,17.5366878 C80.9905917,15.9267565 83.891716,15.1227904 86.4964438,15.1227904 C88.9398817,15.1227904 90.8523195,15.6690791 92.2358521,16.7483991 C93.6162426,17.8355052 94.4436391,19.3516878 94.4436391,21.2747461 C94.4436391,23.6947461 92.7637101,25.76332 89.6813964,27.4986704 C86.8357811,29.0674617 81.1487396,32.3427739 81.1487396,32.3427739 C78.0674734,34.6008443 76.5226509,37.0236852 76.5226509,41.0157383 C76.5226509,44.3173548 77.6747219,46.9859835 79.9757219,49.0163635 C82.2819586,51.050847 85.2574438,52.0680887 88.9011302,52.0680887 C92.667355,52.0680887 96.0921479,51.0583174 99.1765562,49.0460348 L97.6097396,45.548293 C94.9704497,46.6724357 92.3678166,47.2367165 89.8018402,47.2367165 C87.7197337,47.2367165 86.115213,46.7345139 84.9966568,45.7242165 C83.8718166,44.7226522 83.1763846,43.4337391 83.1763846,41.8628435 C83.1763846,39.4490513 84.8929704,37.3553304 88.062213,35.5864157 C90.9434379,34.0167826 96.7697751,30.6781296 96.7697751,30.6781296 C99.9390178,28.4241626 101.518402,26.0211026 101.518402,22.0630348" id="Path" fill="#F29111" fill-rule="nonzero"></path>
                        <path d="M113.657041,18.9191391 C112.013769,21.5758783 111.190562,25.8391817 111.190562,31.7177826 C111.190562,41.9805817 114.296964,47.1152957 120.506627,47.1152957 C123.753373,47.1152957 126.136065,45.8871983 127.659941,43.4335287 C129.301118,40.775527 130.124325,36.5491548 130.124325,30.7527287 C130.124325,20.4077548 127.017923,15.2331635 120.80826,15.2331635 C117.562562,15.2331635 115.178822,16.4599983 113.657041,18.9187183 M137.817018,9.78279739 L130.359976,13.47698 C131.023999,14.0240052 131.654485,14.6141696 132.225284,15.2973461 C135.391385,19.036667 136.976006,24.571207 136.976006,31.8985461 C136.976006,45.3821548 131.706852,52.1276417 121.169592,52.1276417 C116.000982,52.1276417 111.972923,50.4178591 109.088556,46.9933487 C105.921408,43.2495035 104.339929,37.7357965 104.339929,30.4500183 C104.339929,23.2858713 105.741266,18.0301574 108.546036,14.6916096 C111.101538,11.6739748 114.966213,10.163053 120.140059,10.163053 C122.070302,10.163053 123.841349,10.4017913 125.451107,10.879373 L135.162018,5.20215826 L137.809686,9.78321826" id="Shape" fill="#F29111"></path>
                        <polyline id="Path" fill="#F29111" fill-rule="nonzero" points="162.159231 10.7658435 142.868325 10.7658435 142.868325 51.5228522 149.359722 51.5228522 149.359722 15.7794522 162.159231 15.7794522 162.159231 10.7659487"></polyline>
                        <path d="M166.788462,10.7700522 L167.864077,10.7700522 L167.864077,14.9167748 L169.271698,14.9167748 L169.271698,15.7637748 L165.326379,15.7637748 L165.326379,14.9167748 L166.788462,14.9167748 L166.788462,10.7700522 Z M174.973402,10.7700522 L175.987235,10.7700522 L175.987235,15.7637748 L174.462312,15.7637748 L173.221218,12.359887 L171.870152,15.7637748 L170.400738,15.7637748 L170.400738,10.7700522 L171.360089,10.7700522 L171.360089,14.5706096 L171.414561,14.5706096 L172.829513,10.7700522 L173.560544,10.7700522 L174.973402,14.5706096 L174.973402,10.7700522" id="Shape" fill="#F29111" fill-rule="nonzero"></path>
                        <path d="M170.307515,65.1748087 C166.384189,65.2733921 163.345864,64.8800948 160.797692,63.7958296 C160.062462,63.5006948 158.887349,63.5006948 158.786805,62.5648913 C159.181651,62.1715887 159.228792,61.5319722 159.574402,60.987893 C160.160911,60.0030583 161.188349,58.6755304 162.121527,57.9842522 C163.151049,57.1959635 164.180592,56.4109365 165.260396,55.7216574 C167.17074,54.5347 169.328254,53.8482617 171.188325,52.6658287 C172.270225,51.9773913 173.344793,51.0916713 174.426692,50.3510461 C174.963976,49.9573226 175.304361,49.3161278 175.993509,49.0724443 L175.993509,49.2215374 C175.647877,49.6634504 175.551533,50.3038035 175.210101,50.7990617 C174.720994,51.2876913 174.229793,51.7337078 173.738592,52.2240209 C172.316308,54.1442383 170.54945,55.8169843 168.642249,57.1959635 C167.07229,58.2822278 163.639118,59.7597957 163.004432,61.5763739 C163.004432,61.5763739 162.953112,61.6285586 162.904935,61.6770638 C163.983692,61.7770214 165.260396,62.1715855 166.288882,62.4702977 C167.953101,62.9122108 169.472787,62.8122542 171.188325,63.2541673 C171.973828,63.4526073 172.758284,63.7004995 173.545882,63.9426047 L173.545882,64.3889368 C172.658787,65.2733837 172.024101,66.4570899 171.093018,67.2934629 C168.595118,69.4594681 165.846905,71.5753899 163.004432,73.3509334 C161.482651,74.3360838 159.522036,74.9731751 157.903899,75.812389 C157.318448,76.1083655 156.339178,76.2541968 155.994604,76.7494551 C155.111688,77.8324577 154.61945,79.2586795 153.983716,80.541069 C152.563527,83.2465238 151.188373,86.2494281 149.965083,89.110289 C149.083235,91.0294542 148.543846,92.9486195 147.465089,94.7225847 C142.413781,103.095785 136.925734,108.165159 128.494669,113.139837 C126.68068,114.175176 124.524213,114.618141 122.222166,115.160011 C120.994686,115.211567 119.770349,115.307315 118.544964,115.355715 C117.759462,115.70188 116.973959,116.638315 116.289,117.08128 C113.493657,118.853141 106.291118,122.693576 104.231006,117.622098 C102.907172,114.41928 106.191621,111.269072 107.319604,109.643463 C108.152226,108.512376 109.232041,107.229776 109.817503,105.951385 C110.16104,105.113854 110.259479,104.225819 110.604053,103.340941 C111.387462,101.174515 112.121645,98.7608281 113.153272,96.7406542 C113.690556,95.7063778 114.278112,94.621576 114.964118,93.6904021 C115.360001,93.1453865 116.043923,92.9023238 116.191598,92.0132368 C115.507686,91.0294542 115.454272,89.5522021 115.062568,88.3201064 C113.298852,82.7551586 113.983811,75.8613151 116.484852,71.7746716 C117.267213,70.5437334 119.132521,67.8343855 121.632515,68.8709873 C123.838207,69.7558445 123.348053,72.5629603 123.984834,75.0236795 C124.131451,75.6188101 124.033001,76.0092297 124.326266,76.4026586 L124.326266,76.3031313 C125.012262,74.9262566 125.700373,73.5999913 126.337154,72.2164879 C127.858935,69.8059574 130.503462,67.2938922 132.711249,65.6211461 C133.884266,64.7313227 134.816396,63.2072487 136.286858,62.6639061 L136.286858,62.8126835 L136.190503,62.8126835 C135.895154,63.2545755 135.455283,63.4530366 135.062521,63.7962347 C134.180652,64.6832067 133.20245,65.7670616 132.513302,66.7513703 C130.455284,69.5079607 128.639201,72.5629477 127.025254,75.7142086 C126.238715,77.2443851 125.553746,78.9171312 124.915917,80.4427833 C124.622652,81.0309591 124.622652,81.9199303 124.131451,82.2146442 C123.394136,81.1324833 122.31851,80.1954173 121.780179,78.8698886 C120.848049,76.7498633 120.750657,74.140472 120.405025,71.4307033 C120.21022,71.3792573 120.30867,71.4307033 120.21022,71.3328522 C118.643404,71.7265652 118.104025,73.3513427 117.514374,74.7256922 C116.043913,78.2266957 115.796741,83.8403592 117.073456,87.8789183 C117.414888,88.9111114 118.889538,92.1612661 118.29884,93.1461009 C118.002454,94.0856817 117.023183,94.6223009 116.484852,95.3640835 C115.849108,96.2994661 115.158923,97.4789531 114.722183,98.5153444 C113.544976,101.27204 112.953231,104.326501 111.682811,107.083197 C111.094207,108.365797 110.06258,109.695744 109.232041,110.875231 C108.298864,112.205179 107.270379,113.140562 106.534101,114.714614 C106.291108,115.257536 105.947581,116.144518 106.338249,116.733736 C106.434593,117.128301 106.633587,117.276668 107.026339,117.375572 C107.659988,117.917431 109.476061,117.22932 110.111794,116.933659 C111.92683,116.197138 113.446516,115.503755 114.964108,114.471572 C115.651151,113.978113 116.386392,113.04272 117.267203,112.794407 L118.298819,112.794407 C119.866683,112.452451 121.632494,112.698659 123.104003,112.25359 C125.700352,111.417111 128.052671,110.186068 130.162009,108.85612 C136.581139,104.768424 141.875429,98.9562158 145.452086,92.0139723 C146.041736,90.8828854 146.288908,89.8475462 146.827239,88.6680593 C147.856772,86.2501636 149.132429,83.7880767 150.159867,81.4266827 C151.188362,79.1119001 152.170754,76.7501906 153.64331,74.8267114 C154.376447,73.7943184 157.318417,73.2525541 158.642251,72.7104741 C159.620475,72.2686662 161.142245,71.874101 162.025151,71.3331784 C163.691464,70.3007854 165.354636,69.1170897 166.925642,67.9826358 C167.707992,67.3916297 170.159819,66.1619541 170.307494,65.175541" id="Path" fill="#00758F"></path>
                        <path d="M120.307633,107.974108 C119.476058,107.974108 118.889538,107.873078 118.297793,107.726816 L118.297793,107.627922 L118.393101,107.627922 C118.788984,106.841948 119.476047,106.29587 119.962012,105.607748 C120.356858,104.819649 120.700374,104.034748 121.092089,103.245617 C121.140256,103.294007 121.187386,103.345584 121.187386,103.345584 C121.878618,103.835887 122.221108,104.622924 122.221108,105.806619 C121.924711,106.153847 121.878618,106.495804 121.631457,106.841969 C121.338203,107.333324 120.700374,107.579543 120.307623,107.974108" id="Path" fill="#00758F"></path>
                    </g>
                </g>
            </g>
            <g id="PHP-logo" transform="translate(72.000000, 273.000000)">
                <g id="g3438" transform="translate(115.500000, 65.000000) scale(-1, 1) rotate(-180.000000) translate(-115.500000, -65.000000) ">
                    <g id="g3440" transform="translate(4.411458, 6.419753)">
                        <g id="g3442-Clipped">
                            <mask id="mask-2" fill="white">
                                <use xlink:href="#path-1"></use>
                            </mask>
                            <g id="path3446"></g>
                            <g id="g3442" mask="url(#mask-2)" fill="url(#radialGradient-3)" fill-rule="nonzero">
                                <g id="g3448">
                                    <g id="g3450">
                                        <path d="M0.208541667,58.5802469 C0.208541667,26.3518827 49.8522865,0.225092593 111.088542,0.225092593 L111.088542,0.225092593 C172.324797,0.225092593 221.968943,26.3518827 221.968943,58.5802469 L221.968943,58.5802469 C221.968943,90.8082099 172.324797,116.935401 111.088542,116.935401 L111.088542,116.935401 C49.8522865,116.935401 0.208541667,90.8082099 0.208541667,58.5802469" id="path3462"></path>
                                    </g>
                                </g>
                            </g>
                        </g>
                    </g>
                    <g id="g3464">
                        <g id="g3466-Clipped">
                            <mask id="mask-5" fill="white">
                                <use xlink:href="#path-4"></use>
                            </mask>
                            <g id="path3470"></g>
                            <g id="g3466" mask="url(#mask-5)">
                                <g transform="translate(8.822917, 10.833333)" id="g3472">
                                    <g transform="translate(0.000000, 0.144204)">
                                        <path d="M106.677083,0 C165.521526,0 213.225833,24.186821 213.225833,54.0226235 C213.225833,83.8580247 165.521526,108.045247 106.677083,108.045247 C47.8326406,108.045247 0.128333333,83.8580247 0.128333333,54.0226235 C0.128333333,24.186821 47.8326406,0 106.677083,0" id="path3474" fill="#777BB3" fill-rule="nonzero"></path>
                                    </g>
                                </g>
                            </g>
                        </g>
                    </g>
                    <g id="g3476">
                        <g id="g3478-Clipped">
                            <mask id="mask-7" fill="white">
                                <use xlink:href="#path-6"></use>
                            </mask>
                            <g id="path3482"></g>
                            <g id="g3478" mask="url(#mask-7)">
                                <g transform="translate(36.895833, 29.691358)">
                                    <g id="g3484" transform="translate(1.096608, 1.326722)">
                                        <path d="M26.8697917,27.2839506 C31.7083594,27.2839506 35.3205417,28.1766975 37.6060781,29.9365123 C39.867151,31.6782716 41.4288073,34.6959568 42.2473333,38.9053086 C43.0105156,42.8398148 42.7197604,45.5870679 41.3834896,47.0696296 C40.0171406,48.5838889 37.0630677,49.3518519 32.6034844,49.3518519 L24.871,49.3518519 L20.5842656,27.2839506 L26.8697917,27.2839506 Z M1.57890104,0.100308642 C1.21996875,0.100308642 0.879083333,0.260802469 0.650890625,0.53845679 C0.422296875,0.815709877 0.32965625,1.18083333 0.398234375,1.53351852 L11.7589427,60.013858 C11.8688281,60.5791975 12.3641146,60.9876543 12.9400104,60.9876543 L37.4252083,60.9876543 C45.1203958,60.9876543 50.8480729,58.8972222 54.448224,54.7737346 C58.067625,50.6285802 59.1853281,44.8343519 57.7700521,37.5523457 C57.1941562,34.5856173 56.2035833,31.8303395 54.8260052,29.3635494 C53.4468229,26.8939506 51.6240885,24.6089198 49.4075312,22.5706481 C46.7542396,20.0862037 43.7512396,18.2846605 40.4899687,17.2245988 C37.2804323,16.1785802 33.158526,15.6481481 28.2389479,15.6481481 L18.3243958,15.6481481 L15.4930417,1.07450617 C15.3831562,0.508765432 14.8882708,0.100308642 14.312375,0.100308642 L1.57890104,0.100308642 Z" id="path3486" fill="#000000" fill-rule="nonzero"></path>
                                    </g>
                                    <g id="g3488" transform="translate(0.089673, 0.123219)">
                                        <path d="M26.8697917,49.3518519 L33.6105,49.3518519 C38.9928802,49.3518519 40.8625365,48.170216 41.4977865,47.4660494 C42.551724,46.2968519 42.7506406,43.8316667 42.0732812,40.3373148 C41.3121042,36.4252778 39.9012396,33.6515432 37.8791875,32.0939506 C35.8090104,30.4994444 32.4434687,29.691358 27.8768073,29.691358 L23.0506719,29.691358 L26.8697917,49.3518519 Z M38.432224,63.3950617 L13.946625,63.3950617 C12.7948333,63.3950617 11.8046615,62.5781481 11.5848906,61.4470679 L0.224182292,2.9667284 C0.0870260417,2.26095679 0.272307292,1.53111111 0.72909375,0.976203704 C1.18628125,0.421296296 1.86725,0.100308642 2.58591667,0.100308642 L15.3189896,0.100308642 C16.4711823,0.100308642 17.4613542,0.917222222 17.681125,2.04830247 L20.3231875,15.6481481 L29.2459635,15.6481481 C34.2918698,15.6481481 38.5397031,16.198642 41.8703542,17.2839815 C45.295651,18.3974074 48.4470365,20.285216 51.2362812,22.8948457 C53.5430729,25.018179 55.4432083,27.4015123 56.8829479,29.9794444 C58.3230885,32.558179 59.357776,35.4338272 59.9581354,38.5265432 C61.4480052,46.1917284 60.2376615,52.3298148 56.3611927,56.7690741 C52.5224219,61.1658025 46.4899531,63.3950617 38.432224,63.3950617 M20.1314896,27.2839506 L27.8768073,27.2839506 C33.0105417,27.2839506 36.834474,28.2513272 39.347,30.1864815 C41.8599271,32.122037 43.5547292,35.3523765 44.4354167,39.8791049 C45.2780052,44.2252778 44.8942083,47.2923148 43.284026,49.0790123 C41.6718385,50.8657099 38.4478646,51.7592593 33.6105,51.7592593 L24.8862396,51.7592593 L20.1314896,27.2839506 M38.432224,60.9876543 C45.7981562,60.9876543 51.1717135,59.0537037 54.5492865,55.1854012 C57.9264583,51.3170988 58.9435,45.9176852 57.596,38.9855556 C57.0413594,36.1299691 56.1033229,33.5191358 54.7826927,31.153858 C53.4604583,28.7869753 51.733974,26.622716 49.6004323,24.6602778 C47.0578281,22.2797531 44.2332917,20.5833333 41.1252187,19.5730247 C38.0171458,18.5599074 34.0584635,18.0555556 29.2459635,18.0555556 L18.3392344,18.0555556 L15.3189896,2.50771605 L2.58591667,2.50771605 L13.946625,60.9876543 L38.432224,60.9876543" id="path3490" fill="#FFFFFF" fill-rule="nonzero"></path>
                                    </g>
                                    <g id="g3492" transform="translate(55.577557, 16.974870)">
                                        <path d="M32.484375,0 C32.1250417,0 31.7845573,0.160493827 31.5563646,0.438148148 C31.3273698,0.715401235 31.2347292,1.08012346 31.3033073,1.43320988 L36.3287604,27.3084259 C36.8068021,29.7691975 36.6888958,31.5354321 35.997099,32.2817284 C35.573599,32.7379321 34.3014948,33.5030864 30.540125,33.5030864 L21.4356771,33.5030864 L15.1172656,0.974197531 C15.0073802,0.40845679 14.5120937,0 13.9361979,0 L1.30338542,0 C0.944052083,0 0.603567708,0.160493827 0.374973958,0.438148148 C0.146380208,0.715401235 0.0537395833,1.08052469 0.122317708,1.43320988 L11.483026,59.9135494 C11.5929115,60.4788889 12.0881979,60.8873457 12.6640937,60.8873457 L25.2969062,60.8873457 C25.6562396,60.8873457 25.996724,60.7268519 26.2253177,60.4495988 C26.4539115,60.1719444 26.5465521,59.8072222 26.477974,59.4541358 L23.7364531,45.3395062 L33.5306927,45.3395062 C40.9920729,45.3395062 46.0516146,44.0234568 48.9984687,41.3159259 C52.0022708,38.5538272 52.9395052,34.1374383 51.7845052,28.1879321 L46.498776,0.974197531 C46.3888906,0.40845679 45.8940052,0 45.3177083,0 L32.484375,0 Z" id="path3494" fill="#000000" fill-rule="nonzero"></path>
                                    </g>
                                    <g id="g3496" transform="translate(54.405754, 15.671059)">
                                        <path d="M26.46875,63.3950617 L13.8359375,63.3950617 C12.6837448,63.3950617 11.6935729,62.5781481 11.4738021,61.4470679 L0.11309375,2.9667284 C-0.0240625,2.26095679 0.16121875,1.53111111 0.61840625,0.976203704 C1.07559375,0.421296296 1.7565625,0.100308642 2.47522917,0.100308642 L15.1080417,0.100308642 C16.2598333,0.100308642 17.2504062,0.917222222 17.4701771,2.04830247 L23.5992969,33.6033951 L31.7119687,33.6033951 C35.4669219,33.6033951 36.2549687,32.8009259 36.286651,32.7664198 C36.5144427,32.5212654 36.8140208,31.3857716 36.3195365,28.8419444 L31.2940833,2.9667284 C31.1569271,2.26095679 31.3422083,1.53111111 31.7993958,0.976203704 C32.2565833,0.421296296 32.9375521,0.100308642 33.6562187,0.100308642 L46.4895521,0.100308642 C47.6413437,0.100308642 48.6319167,0.917222222 48.8516875,2.04830247 L54.1370156,29.262037 C55.3774375,35.6500926 54.3162812,40.442037 50.9844271,43.5058642 C47.8049687,46.4272531 42.4791354,47.8472222 34.7025365,47.8472222 L26.3672865,47.8472222 L28.8308854,60.5282407 C28.9676406,61.2340123 28.7827604,61.9642593 28.3255729,62.5187654 C27.8683854,63.0736728 27.1874167,63.3950617 26.46875,63.3950617 M26.46875,60.9876543 L23.4485052,45.4398148 L34.7025365,45.4398148 C41.7837292,45.4398148 46.6680156,44.2032099 49.3561979,41.7332099 C52.0443802,39.2616049 52.8496719,35.2568827 51.7752812,29.7210494 L46.4895521,2.50771605 L33.6562187,2.50771605 L38.6816719,28.3825309 C39.2535573,31.3259877 39.0434115,33.3337654 38.0504323,34.4042593 C37.0570521,35.4747531 34.9439635,36.0108025 31.7119687,36.0108025 L21.6153437,36.0108025 L15.1080417,2.50771605 L2.47522917,2.50771605 L13.8359375,60.9876543 L26.46875,60.9876543" id="path3498" fill="#FFFFFF" fill-rule="nonzero"></path>
                                    </g>
                                    <g id="g3500" transform="translate(100.480909, 1.326722)">
                                        <path d="M26.8697917,27.2839506 C31.7083594,27.2839506 35.3205417,28.1766975 37.6060781,29.9365123 C39.867151,31.6778704 41.4288073,34.6955556 42.2477344,38.9053086 C43.0109167,42.8398148 42.7201615,45.5870679 41.3834896,47.0696296 C40.0171406,48.5838889 37.0630677,49.3518519 32.6034844,49.3518519 L24.871,49.3518519 L20.5842656,27.2839506 L26.8697917,27.2839506 Z M1.57930208,0.100308642 C1.22036979,0.100308642 0.879484375,0.260802469 0.651291667,0.53845679 C0.422697917,0.815709877 0.32965625,1.18083333 0.398234375,1.53351852 L11.7589427,60.013858 C11.8692292,60.5791975 12.3641146,60.9876543 12.9404115,60.9876543 L37.4252083,60.9876543 C45.1207969,60.9876543 50.8480729,58.8972222 54.448625,54.7737346 C58.068026,50.6289815 59.1853281,44.8347531 57.7704531,37.5523457 C57.1937552,34.5856173 56.2035833,31.8303395 54.8260052,29.3635494 C53.4468229,26.8939506 51.6240885,24.6089198 49.4075313,22.5706481 C46.7542396,20.0862037 43.7512396,18.2846605 40.4899688,17.2245988 C37.2804323,16.1785802 33.158526,15.6481481 28.2389479,15.6481481 L18.3239948,15.6481481 L15.4938438,1.07450617 C15.3835573,0.508765432 14.8886719,0.100308642 14.312375,0.100308642 L1.57930208,0.100308642 Z" id="path3502" fill="#000000" fill-rule="nonzero"></path>
                                    </g>
                                    <g id="g3504" transform="translate(99.474014, 0.123219)">
                                        <path d="M26.8697917,49.3518519 L33.6105,49.3518519 C38.9928802,49.3518519 40.8625365,48.170216 41.4977865,47.4660494 C42.552125,46.2968519 42.7510417,43.8316667 42.0732813,40.337716 C41.3121042,36.4252778 39.9008385,33.6515432 37.8791875,32.0939506 C35.8090104,30.4994444 32.4434688,29.691358 27.8768073,29.691358 L23.0510729,29.691358 L26.8697917,49.3518519 Z M38.432224,63.3950617 L13.947026,63.3950617 C12.7952344,63.3950617 11.8050625,62.5781481 11.5852917,61.4470679 L0.224583333,2.9667284 C0.0874270833,2.26095679 0.272708333,1.53111111 0.729494792,0.976203704 C1.18668229,0.421296296 1.86765104,0.100308642 2.58631771,0.100308642 L15.3193906,0.100308642 C16.4711823,0.100308642 17.4617552,0.917222222 17.681526,2.04830247 L20.3231875,15.6481481 L29.2459635,15.6481481 C34.2918698,15.6481481 38.5397031,16.198642 41.8703542,17.2839815 C45.295651,18.3974074 48.4478385,20.2856173 51.2370833,22.8956481 C53.543875,25.0185802 55.4432083,27.4015123 56.8829479,29.9794444 C58.3230885,32.558179 59.357776,35.4338272 59.9581354,38.5265432 C61.4480052,46.1921296 60.2376615,52.330216 56.3611927,56.7694753 C52.5224219,61.1658025 46.4903542,63.3950617 38.432224,63.3950617 M20.1318906,27.2839506 L27.8768073,27.2839506 C33.0105417,27.2839506 36.834474,28.2513272 39.347,30.1864815 C41.8603281,32.122037 43.5547292,35.3523765 44.4354167,39.8791049 C45.2784062,44.2252778 44.8946094,47.2923148 43.284026,49.0790123 C41.6718385,50.8657099 38.4478646,51.7592593 33.6105,51.7592593 L24.8862396,51.7592593 L20.1318906,27.2839506 M38.432224,60.9876543 C45.7981562,60.9876543 51.1717135,59.0537037 54.5492865,55.1854012 C57.9268594,51.3170988 58.9435,45.9176852 57.596,38.9855556 C57.0413594,36.1299691 56.1033229,33.5191358 54.7826927,31.153858 C53.4604583,28.7869753 51.733974,26.622716 49.6004323,24.6602778 C47.0578281,22.2797531 44.2332917,20.5833333 41.1252187,19.5730247 C38.0171458,18.5599074 34.0584635,18.0555556 29.2459635,18.0555556 L18.3392344,18.0555556 L15.3193906,2.50771605 L2.58631771,2.50771605 L13.947026,60.9876543 L38.432224,60.9876543" id="path3506" fill="#FFFFFF" fill-rule="nonzero"></path>
                                    </g>
                                </g>
                            </g>
                        </g>
                    </g>
                </g>
            </g>
            <polygon id="+" fill="#FFFFFF" fill-rule="nonzero" points="337.582031 334.460938 347.238281 334.460938 347.238281 337.695312 337.582031 337.695312 337.582031 347.679688 334.324219 347.679688 334.324219 337.695312 324.714844 337.695312 324.714844 334.460938 334.324219 334.460938 334.324219 324.429688 337.582031 324.429688"></polygon>
        </g>
    </g>
</svg>