<?xml version="1.0" encoding="UTF-8"?>
<svg width="1891px" height="719px" viewBox="0 0 1891 719" version="1.1" xmlns="http://www.w3.org/2000/svg" xmlns:xlink="http://www.w3.org/1999/xlink">
    <!-- Generator: Sketch 59.1 (86144) - https://sketch.com -->
    <title>hubble-stack-sw-pwa-vec</title>
    <desc>Created with Sketch.</desc>
    <g id="Page-1" stroke="none" stroke-width="1" fill="none" fill-rule="evenodd">
        <g id="hubble-stack-sw-pwa-vec" transform="translate(-2.000000, 3.000000)">
            <g id="magento-2" transform="translate(302.000000, 60.000000)" fill="#666666" fill-rule="nonzero">
                <path d="M99.58575,62.2065093 L99.58575,180.343305 L87.9443125,187.443505 L76.2939375,180.305571 L76.2939375,62.2977574 L46.1278125,80.8327861 L46.1278125,181.860905 L87.9443125,207.394595 L130.114875,181.679095 L130.114875,80.7682949 L99.58575,62.2065093 Z M87.9443125,0 L0,53.1722607 L0,154.213415 L22.8408125,167.641294 L22.8408125,66.5905348 L87.9621875,27.0753025 L153.144063,66.5329044 L153.412875,66.6858993 L153.384,167.490357 L176,154.213415 L176,53.1722607 L87.9443125,0 Z" id="Shape"></path>
            </g>
            <g id="elastic_color" transform="translate(696.000000, 102.000000)" fill="#666666" fill-rule="nonzero">
                <g id="Group">
                    <path d="M46.4764261,51.4984393 L75.1647585,64.5895202 L104.109542,39.204 C104.528809,37.1099306 104.733551,35.0221561 104.733551,32.8371618 C104.733551,14.9760231 90.2185337,0.44483237 72.373839,0.44483237 C61.6986069,0.44483237 51.7417186,5.70588439 45.689602,14.5276936 L40.8750213,39.5292312 L46.4764261,51.4984393 Z" id="Path"></path>
                    <path d="M16.779757,81.9065087 C16.3604902,84.000578 16.1459653,86.1729827 16.1459653,88.3705665 C16.1459653,106.277168 30.7029094,120.847526 48.5965187,120.847526 C59.359098,120.847526 69.3649007,115.537514 75.4072344,106.62478 L80.1861774,81.7078728 L73.8091291,69.5113526 L45.0068959,56.3713121 L16.779757,81.9065087 Z" id="Path"></path>
                    <path d="M16.5980747,32.2132775 L36.2588936,36.8595376 L40.5668602,14.4850289 C37.8800587,12.4301272 34.5636581,11.3047572 31.1522237,11.3047572 C22.6082646,11.3047572 15.6596158,18.2633064 15.6596158,26.8151387 C15.6596158,28.7042775 15.9747647,30.5157803 16.5980747,32.2132775" id="Path"></path>
                    <path d="M14.8916588,36.900104 C6.10732005,39.8131965 0,48.2412312 0,57.5113699 C0,66.5381098 5.5776463,74.5982486 13.949706,77.7883121 L41.533969,52.832237 L36.4692258,42.0009884 L14.8916588,36.900104 Z" id="Path"></path>
                    <path d="M80.4510143,106.624081 C83.1475988,108.698566 86.4479274,109.830231 89.8167364,109.830231 C98.3606954,109.830231 105.309344,102.875179 105.309344,94.3233468 C105.309344,92.4377052 104.994195,90.6262023 104.370187,88.9287052 L84.7261383,84.3279075 L80.4510143,106.624081 Z" id="Path"></path>
                    <path d="M84.4480247,79.1738671 L106.073807,84.2369827 C114.860941,81.330185 120.96896,72.8986532 120.96896,63.6250173 C120.96896,54.6150636 115.378037,46.5640173 106.989905,43.3837457 L78.7040692,68.1866474 L84.4480247,79.1738671 Z" id="Path"></path>
                </g>
                <g id="Group" transform="translate(146.000000, 34.000000)">
                    <path d="M33.1000727,53.3274419 L35.7357333,53.0574419 L35.9178182,58.3786047 C29.0105455,59.3393023 23.1029818,59.8213953 18.1951273,59.8213953 C11.6513212,59.8213953 7.01624242,57.9432558 4.28989091,54.184186 C1.56353939,50.4272093 0.200363636,44.5786047 0.200363636,36.6418605 C0.200363636,20.8283721 6.53115152,12.9209302 19.1955394,12.9209302 C25.3147152,12.9209302 29.8886303,14.6204651 32.9193939,18.0167442 C35.9487515,21.4144186 37.4637818,26.7516279 37.4637818,34.0262791 L37.1003152,39.1674419 L7.10763636,39.1674419 C7.10763636,44.1593023 8.01665455,47.8569767 9.83398788,50.2611628 C11.6513212,52.6667442 14.8170667,53.8688372 19.3312242,53.8688372 C23.8446788,53.8688372 28.4340606,53.6888372 33.1000727,53.3274419 Z M30.646497,33.7562791 C30.646497,28.2244186 29.7515394,24.3167442 27.9651394,22.0311628 C26.1773333,19.7462791 23.268897,18.6034884 19.2405333,18.6034884 C15.2100606,18.6034884 12.1814061,19.8076744 10.1524606,22.2111628 C8.12140606,24.6167442 7.07670303,28.4651163 7.01694545,33.7562791 L30.646497,33.7562791 L30.646497,33.7562791 Z" id="Shape"></path>
                    <polygon id="Path" points="46.9680485 59.4732558 46.9680485 0.109534884 53.7846303 0.109534884 53.7846303 59.4732558"></polygon>
                    <path d="M96.7109576,27.4423256 L96.7109576,50.1906977 C96.7109576,52.4448837 102.367539,52.3548837 102.367539,52.3548837 L102.019539,58.3311628 C97.231903,58.3311628 93.2689212,58.7253488 90.8870545,56.4404651 C85.4343515,58.8453488 79.9872727,59.8213953 74.5345697,59.8213953 C70.3536485,59.8213953 67.1731394,58.6486047 64.9916364,56.3044186 C62.8101333,53.9595349 61.7197333,50.5925581 61.7197333,46.202093 C61.7197333,41.8137209 62.8403636,38.5806977 65.0823273,36.5065116 C67.3235879,34.4323256 70.8380364,33.1555814 75.6249697,32.6734884 L89.8936727,31.3206977 L89.8936727,27.4423256 C89.8936727,24.3760465 89.226497,22.1811628 87.8942545,20.8576744 C86.5606061,19.5362791 84.7432727,18.8734884 82.4415515,18.8734884 L64.5318545,18.8881395 L64.5318545,12.9209302 L81.9866909,12.9209302 C87.1356848,12.9209302 90.8779152,14.0937209 93.2112727,16.437907 C95.5432242,18.784186 96.7109576,22.4525581 96.7109576,27.4423256 Z M68.717697,45.842093 C68.717697,51.3746512 71.0201212,54.1395349 75.6249697,54.1395349 C79.7447273,54.1395349 83.8047273,53.4488372 87.8035636,52.0653488 L89.8936727,51.3432558 L89.8936727,36.4618605 L76.4425939,37.7246512 C73.7162424,37.9653488 71.7463515,38.7474419 70.5350303,40.0695349 C69.3230061,41.3923256 68.717697,43.3165116 68.717697,45.842093 Z" id="Shape"></path>
                    <path d="M123.31503,18.964186 C116.710061,18.964186 113.40863,21.2497674 113.40863,25.8188372 C113.40863,27.9244186 114.165794,29.4125581 115.680824,30.2832558 C117.195152,31.1560465 120.648436,32.0581395 126.042085,32.9895349 C131.434327,33.9223256 135.251079,35.2304651 137.493745,36.9125581 C139.735006,38.5967442 140.856339,41.7537209 140.856339,46.3827907 C140.856339,51.0139535 139.356776,54.4095349 136.357648,56.5744186 C133.358521,58.7393023 128.980048,59.8213953 123.225042,59.8213953 C119.467345,59.8213953 106.930206,58.4413953 106.930206,58.4413953 L107.293673,52.5788372 C114.499733,53.2681395 119.709891,53.7788372 123.225042,53.7788372 C126.738085,53.7788372 129.419442,53.2234884 131.268412,52.11 C133.115976,50.997907 134.040461,49.1337209 134.040461,46.5181395 C134.040461,43.9025581 133.252364,42.1290698 131.677576,41.1969767 C130.101382,40.2655814 126.647394,39.3788372 121.316315,38.5360465 C115.98383,37.6946512 112.196606,36.4618605 109.955345,34.8376744 C107.713382,33.214186 106.592752,30.2086047 106.592752,25.8188372 C106.592752,21.4304651 108.152073,18.1834884 111.273527,16.0786047 C114.393576,13.9744186 118.286255,12.9216279 122.952267,12.9216279 C126.647394,12.9216279 139.472073,13.8544186 139.472073,13.8544186 L139.472073,19.7525581 C132.724388,19.4462791 127.191539,18.964186 123.31503,18.964186 Z" id="Path"></path>
                    <path d="M173.731442,19.6855814 L159.280655,19.6855814 L159.280655,41.2416279 C159.280655,46.414186 159.658182,49.8104651 160.416752,51.4332558 C161.173915,53.0567442 162.975782,53.8688372 165.824461,53.8688372 L173.912824,53.3274419 L174.367685,58.9193023 C170.307685,59.58 167.217164,59.9113953 165.096824,59.9113953 C160.371055,59.9113953 157.099152,58.77 155.281115,56.4837209 C153.463782,54.1995349 152.554764,49.8404651 152.554764,43.405814 L152.554764,19.6848837 L146.101648,19.6848837 L146.101648,13.8223256 L152.554764,13.8223256 L152.554764,0.0223255814 L159.279952,0.0223255814 L159.279952,13.8223256 L173.730739,13.8223256 L173.730739,19.6855814 L173.731442,19.6855814 Z" id="Path"></path>
                    <path d="M183.207588,8.06162791 L183.207588,0.214883721 L190.02417,0.214883721 L190.02417,8.06162791 L183.207588,8.06162791 Z M183.207588,59.4732558 L183.207588,13.8230233 L190.02417,13.8230233 L190.02417,59.4732558 L183.207588,59.4732558 Z" id="Shape"></path>
                    <path d="M219.54863,12.9216279 C221.548048,12.9216279 224.940873,13.2823256 229.727806,14.0037209 L231.908606,14.2744186 L231.63583,19.7755814 C226.787733,19.2348837 223.213527,18.964186 220.911103,18.964186 C215.76,18.964186 212.261018,20.1816279 210.413455,22.6172093 C208.564485,25.0527907 207.641406,29.5618605 207.641406,36.1465116 C207.641406,42.7304651 208.504727,47.3162791 210.23137,49.9011628 C211.958012,52.4867442 215.548388,53.7795349 221.001794,53.7795349 L231.726521,52.9681395 L231.999297,58.56 C226.364509,59.4013953 222.152655,59.8227907 219.366545,59.8227907 C212.277188,59.8227907 207.384097,58.0193023 204.688679,54.4109302 C201.991855,50.8032558 200.644145,44.7153488 200.644145,36.1472093 C200.644145,27.5783721 202.098012,21.5665116 205.006448,18.1081395 C207.915588,14.6504651 212.762279,12.9216279 219.54863,12.9216279 Z" id="Path"></path>
                </g>
            </g>
            <g id="hubble_logo" transform="translate(1216.000000, 0.000000)" fill="#FFFFFF">
                <path d="M243.104074,20.6481814 C230.39507,20.6481814 220.483467,30.2130833 220.483467,42.8291037 C220.483467,55.4451242 230.30987,65.0100261 244.282674,65.0100261 C248.429075,65.0100261 252.305677,64.1727424 255.940878,62.4697925 C258.951279,61.0648589 260.087279,57.3467516 258.525278,54.4233543 C257.133678,51.7979732 254.038077,50.6910557 251.226476,51.6560607 C249.195876,52.3514319 247.065875,52.7345956 244.793874,52.7345956 C241.982273,52.7345956 239.639273,52.1527544 237.892672,50.9464982 C236.557872,50.024067 237.239472,47.9095709 238.872472,47.9095709 L256.139678,47.9095709 C260.101479,47.9095709 263.33908,44.6739661 263.35328,40.7146076 C263.33908,29.9576408 255.628478,20.6481814 243.104074,20.6481814 Z M247.449275,38.4156253 L237.338872,38.4156253 C236.060872,38.4156253 235.223071,37.0106916 235.876272,35.9037742 C237.367272,33.4203056 239.767073,32.0579456 242.507674,32.0579456 C245.447074,32.0579456 248.031475,33.5906006 249.068076,36.1592166 C249.494076,37.2519428 248.613675,38.4156253 247.449275,38.4156253 Z M214.803465,7.35098093 L214.803465,57.6021941 C214.803465,61.6892738 211.537464,64.9958349 207.518863,64.9958349 C203.500262,64.9958349 200.234261,61.6892738 200.234261,57.6021941 L200.234261,7.35098093 C200.234261,3.26390118 203.500262,0.0708701326 207.518863,0.0708701326 C211.551664,0.0708701326 214.803465,3.26390118 214.803465,7.35098093 Z M89.9570273,28.9358708 L89.9570273,44.2624199 C89.9570273,56.8784404 81.1530246,64.9958349 69.296021,64.9958349 C57.3538174,64.9958349 48.5498147,56.8642491 48.5498147,44.2624199 L48.5498147,28.9358708 C48.5498147,24.9197473 51.8158157,21.65576 55.8344169,21.65576 C59.8530182,21.65576 63.1190192,24.9197473 63.1190192,28.9358708 L63.1190192,45.4402936 C63.1190192,49.0732533 65.7460199,51.6134869 69.296021,51.6134869 C72.7750221,51.6134869 75.3878229,49.0732533 75.3878229,45.4402936 L75.3878229,28.9358708 C75.3878229,24.9197473 78.6538239,21.65576 82.6724251,21.65576 C86.6910263,21.65576 89.9570273,24.9197473 89.9570273,28.9358708 Z M26.8522081,41.0410063 C26.8522081,37.2377516 24.2252073,34.7826655 20.6752063,34.7826655 C17.1110052,34.7826655 14.5834044,37.2377516 14.5834044,41.0410063 L14.5834044,57.7157241 C14.5834044,61.7318476 11.3174034,64.9958349 7.29880221,64.9958349 C3.26600099,64.9958349 0,61.7460388 0,57.7157241 L0.0426000129,7.33678968 C0.0426000129,3.32066618 3.308601,0.0566788835 7.32720222,0.0566788835 C11.3458034,0.0566788835 14.6118044,3.32066618 14.6118044,7.33678968 L14.5692044,19.0587615 C14.5692044,21.65576 17.1394052,23.5573874 19.5818059,22.67753 C21.3994065,22.0105413 23.4300071,21.6415688 25.5884078,21.6415688 C34.9888106,21.6415688 41.4214126,28.4959421 41.4214126,38.912319 L41.4214126,57.7015328 C41.4214126,61.7176563 38.1554116,64.9816436 34.1368104,64.9816436 C30.1182091,64.9816436 26.8522081,61.7176563 26.8522081,57.7015328 L26.8522081,41.0410063 Z M174.234053,20.6481814 C172.061452,20.6481814 170.101852,20.9745801 168.355251,21.5706125 C165.91285,22.4078962 163.38525,20.5488426 163.38525,17.9660353 L163.38525,7.35098093 C163.38525,3.33485743 160.119249,0.0708701326 156.100647,0.0708701326 C152.082046,0.0708701326 148.816045,3.33485743 148.816045,7.35098093 L148.816045,52.9616556 C148.816045,59.6031602 154.212047,64.9958349 160.857649,64.9958349 C161.553449,64.9958349 162.107249,64.4281849 162.107249,63.7470049 C162.107249,62.66847 163.35685,61.1074326 164.18045,61.8028038 C166.708051,63.9172999 170.059252,65.0100261 174.219853,65.0100261 C186.076856,65.0100261 194.540059,55.8708617 194.540059,42.9142512 C194.540059,29.9576408 186.091056,20.6481814 174.234053,20.6481814 Z M171.351452,51.7979732 C167.290251,51.7979732 163.143849,49.0874446 163.143849,42.9142512 C163.143849,36.8262054 167.205051,33.8602343 171.351452,33.8602343 C175.583053,33.8602343 179.658455,36.9113528 179.658455,42.8291037 C179.658455,48.7468546 175.668253,51.7979732 171.351452,51.7979732 Z M143.150243,42.9142512 C143.150243,29.9576408 134.687041,20.6481814 122.830037,20.6481814 C120.671637,20.6481814 118.712036,20.9745801 116.979635,21.5706125 C114.537235,22.4078962 111.995434,20.5488426 111.995434,17.951844 L111.995434,7.35098093 C111.995434,3.33485743 108.729433,0.0708701326 104.710832,0.0708701326 C100.692231,0.0708701326 97.4262296,3.33485743 97.4262296,7.35098093 L97.4262296,52.9616556 C97.4262296,59.6031602 102.822231,64.9958349 109.467833,64.9958349 C110.163633,64.9958349 110.717434,64.4281849 110.717434,63.7470049 C110.717434,62.66847 111.967034,61.1074326 112.790634,61.8028038 C115.318235,63.9172999 118.669436,65.0100261 122.830037,65.0100261 C134.672841,64.9958349 143.150243,55.8566704 143.150243,42.9142512 Z M119.933236,51.7979732 C115.872035,51.7979732 111.725634,49.0874446 111.725634,42.9142512 C111.725634,36.8262054 115.786835,33.8602343 119.933236,33.8602343 C124.164838,33.8602343 128.240239,36.9113528 128.240239,42.8291037 C128.240239,48.7468546 124.264238,51.7979732 119.933236,51.7979732 Z M5.36760163,93.9176006 C5.36760163,97.1248229 7.62540231,99.5657177 10.8062033,99.5657177 C12.8510039,99.5657177 14.2994043,98.5439478 15.4638047,96.9545279 L18.0766055,98.9696852 C16.557205,101.41058 14.0154043,103 10.7636033,103 C5.63740171,103 1.57620048,99.0406415 1.57620048,93.9317918 C1.57620048,88.8513246 5.63740171,84.8919661 10.7636033,84.8919661 C14.0438043,84.8919661 16.599805,86.481386 18.0766055,88.9222809 L15.4638047,90.9658207 C14.3278043,89.3764008 12.8794039,88.3120572 10.8062033,88.3120572 C7.62540231,88.2978659 5.36760163,90.7671433 5.36760163,93.9176006 Z M35.4432108,84.8777749 C30.3170092,84.8777749 26.298408,88.8371334 26.298408,93.9176006 C26.298408,99.0406415 30.3596092,102.957426 35.4432108,102.985809 C40.5268123,102.985809 44.6590135,98.9980677 44.6590135,93.9176006 C44.6590135,88.8371334 40.5268123,84.8777749 35.4432108,84.8777749 Z M35.4432108,99.5657177 C32.3334098,99.5657177 30.0756091,97.1673966 30.0756091,93.9459831 C30.0756091,90.7387608 32.3334098,88.2978659 35.4858108,88.2552922 C38.5246117,88.2978659 40.8534124,90.696187 40.8534124,93.9459831 C40.8392124,97.1248229 38.5104117,99.5657177 35.4432108,99.5657177 Z M80.4856244,91.7605307 L80.4856244,102.602645 L76.7368233,102.602645 L76.7368233,92.2997982 C76.7368233,89.9014771 75.3878229,88.2694834 73.1300222,88.2694834 C70.8722215,88.2694834 69.310221,89.9298596 69.310221,92.1153119 L69.310221,102.602645 L65.6040199,102.602645 L65.6040199,92.2997982 C65.6040199,89.9014771 64.1840195,88.2694834 61.9688188,88.2694834 C59.7110181,88.2694834 58.1490176,89.8872858 58.1490176,92.2997982 L58.1490176,102.602645 L54.4428165,102.602645 L54.4428165,85.2609386 L57.9076176,85.2609386 L57.9076176,86.878741 C59.1146179,85.6015286 60.8470185,84.8635836 62.9202191,84.8635836 C65.3910198,84.8635836 67.1660204,85.9279273 68.1884207,87.5883035 C69.4238211,85.9988836 71.5112217,84.8635836 74.0530225,84.8635836 C78.1568237,84.8777749 80.4856244,87.7018334 80.4856244,91.7605307 Z M117.235236,91.7605307 L117.235236,102.602645 L113.486434,102.602645 L113.486434,92.2997982 C113.486434,89.9014771 112.137434,88.2694834 109.879633,88.2694834 C107.621833,88.2694834 106.059832,89.9298596 106.059832,92.1153119 L106.059832,102.602645 L102.353631,102.602645 L102.353631,92.2997982 C102.353631,89.9014771 100.933631,88.2694834 98.71843,88.2694834 C96.4606293,88.2694834 94.8986288,89.8872858 94.8986288,92.2997982 L94.8986288,102.602645 L91.1924277,102.602645 L91.1924277,85.2609386 L94.6572287,85.2609386 L94.6572287,86.878741 C95.8642291,85.6015286 97.5966296,84.8635836 99.6698302,84.8635836 C102.140631,84.8635836 103.915632,85.9279273 104.938032,87.5883035 C106.173432,85.9988836 108.260833,84.8635836 110.802634,84.8635836 C114.906435,84.8777749 117.235236,87.7018334 117.235236,91.7605307 Z M135.837241,84.8777749 C130.78204,84.8777749 126.862838,88.8655159 126.862838,93.9459831 C126.862838,99.069024 130.82464,102.985809 136.192241,102.985809 C138.947042,102.985809 141.275843,101.921465 143.121843,100.190133 L141.361043,97.6498991 C139.912642,98.9271115 138.322242,99.693439 136.305841,99.693439 C133.33804,99.693439 131.15124,98.0046803 130.65424,95.138048 L143.590444,95.138048 C143.689844,94.683928 143.874444,93.7614968 143.874444,92.8106831 C143.846044,88.2694834 140.466443,84.8777749 135.837241,84.8777749 Z M130.71104,92.2572244 C131.27904,89.6744171 133.25284,88.0140409 135.695241,88.0140409 C138.066642,88.0140409 140.083043,89.5325046 140.139843,92.2572244 L130.71104,92.2572244 Z M162.164049,85.0906436 C162.760449,85.0906436 163.18645,85.1615999 163.58405,85.2609386 L163.58405,88.5391171 L162.448049,88.5391171 C159.693248,88.5391171 157.364448,90.128537 157.364448,93.3357593 L157.364448,102.588454 L153.658247,102.588454 L153.658247,85.2609386 L157.123048,85.2609386 L157.123048,87.5173472 C158.344248,85.9279273 160.176049,85.0906436 162.164049,85.0906436 Z M174.773653,93.9176006 C174.773653,97.1248229 177.031454,99.5657177 180.212255,99.5657177 C182.257055,99.5657177 183.705456,98.5439478 184.869856,96.9545279 L187.482657,98.9696852 C185.963256,101.41058 183.421456,103 180.169655,103 C175.043453,103 170.982252,99.0406415 170.982252,93.9317918 C170.982252,88.8513246 175.043453,84.8919661 180.169655,84.8919661 C183.449856,84.8919661 186.005856,86.481386 187.482657,88.9222809 L184.869856,90.9658207 C183.733856,89.3764008 182.285455,88.3120572 180.212255,88.3120572 C177.031454,88.2978659 174.773653,90.7671433 174.773653,93.9176006 Z M204.664662,84.8777749 C199.609461,84.8777749 195.690259,88.8655159 195.690259,93.9459831 C195.690259,99.069024 199.652061,102.985809 205.019662,102.985809 C207.774463,102.985809 210.103264,101.921465 211.949264,100.190133 L210.188464,97.6498991 C208.740063,98.9271115 207.149663,99.693439 205.133262,99.693439 C202.165461,99.693439 199.978661,98.0046803 199.481661,95.138048 L212.417864,95.138048 C212.517264,94.683928 212.701865,93.7614968 212.701865,92.8106831 C212.687665,88.2694834 209.293864,84.8777749 204.664662,84.8777749 Z M199.552661,92.2572244 C200.120661,89.6744171 202.094461,88.0140409 204.536862,88.0140409 C206.908263,88.0140409 208.924663,89.5325046 208.981463,92.2572244 L199.552661,92.2572244 Z M273.520483,33.0513331 C273.222283,33.2925843 272.782083,33.3777318 272.327683,33.2358193 C271.504082,32.9945681 270.879282,32.1430931 270.921882,31.3625744 C270.936082,31.1922795 270.936082,30.0711708 270.921882,29.688007 C270.921882,24.6784961 269.118482,20.6056076 266.250081,17.7389753 C263.38168,14.872343 259.320479,13.0700543 254.293677,13.0700543 C253.910277,13.0558631 252.788477,13.0558631 252.618077,13.0700543 C251.822876,13.1268193 250.985076,12.4882131 250.743676,11.6651207 C250.615876,11.2110007 250.686876,10.771072 250.928276,10.4730557 C254.464077,6.20148975 263.04088,-1.05023855 280.350685,0.127635129 C281.216885,0.198591375 282.083086,0.610137599 282.736286,1.26293506 C283.375286,1.91573252 283.801286,2.78139871 283.872286,3.64706491 C285.050886,20.9461976 277.794684,29.5177121 273.520483,33.0513331 Z" id="Shape"></path>
            </g>
            <path d="M1192.5,715.5 L577.5,715.5 L577.5,-2.5 L1192.5,-2.5 L1192.5,715.5 Z M1187.5,2.5 L582.5,2.5 L582.5,710.5 L1187.5,710.5 L1187.5,2.5 Z" id="Rectangle" fill="#666666" fill-rule="nonzero"></path>
            <polygon id="Line" fill="#666666" fill-rule="nonzero" points="629.977056 149.045185 658.999999 163.499208 630.023015 178.045148 630.004 166.045 498.253965 166.253959 498.246041 161.253965 629.996 161.045"></polygon>
            <polygon id="Line" fill="#666666" fill-rule="nonzero" points="887.5 220.5 887.5 370.5 899.5 370.5 885 399.5 870.5 370.5 882.5 370.5 882.5 220.5"></polygon>
            <g id="devices-icon" transform="translate(1659.000000, 409.000000)" fill="#FFFFFF" fill-rule="nonzero">
                <path d="M222.3,105.107143 L222.3,19.4642857 C222.3,8.73167857 213.5523,0 202.8,0 L31.2,0 C20.4477,0 11.7,8.73167857 11.7,19.4642857 L11.7,77.8571429 C5.2494,77.8571429 0,83.0969286 0,89.5357143 L0,206.321429 C0,212.760214 5.2494,218 11.7,218 L97.5,218 C103.9506,218 109.2,212.760214 109.2,206.321429 L141.8859,206.321429 C145.5636,206.321429 148.9527,204.6475 151.1835,201.73175 C153.4143,198.816 154.1397,195.11 153.1725,191.571393 L145.5051,163.5 L167.7,163.5 L167.7,206.321429 C167.7,212.760214 172.9494,218 179.4,218 L222.3,218 C228.7506,218 234,212.760214 234,206.321429 L234,116.785714 C234,110.346929 228.7506,105.107143 222.3,105.107143 Z M101.4,206.321429 C101.4,208.466393 99.6489,210.214286 97.5,210.214286 L11.7,210.214286 C9.5511,210.214286 7.8,208.466393 7.8,206.321429 L7.8,198.535714 L101.4,198.535714 L101.4,206.321429 Z M101.4,190.75 L7.8,190.75 L7.8,105.107143 L101.4,105.107143 L101.4,190.75 Z M101.4,97.3214286 L7.8,97.3214286 L7.8,89.5357143 C7.8,87.39075 9.5511,85.6428571 11.7,85.6428571 L97.5,85.6428571 C99.6489,85.6428571 101.4,87.39075 101.4,89.5357143 L101.4,97.3214286 Z M145.6494,193.619036 C145.9731,194.798571 145.7313,196.032607 144.9864,197.005821 C144.2415,197.979036 143.1144,198.535714 141.8859,198.535714 L109.2,198.535714 L109.2,190.75 L144.8655,190.75 L145.6494,193.619036 Z M109.2,182.964286 L109.2,163.5 L137.4204,163.5 L142.74,182.964286 L109.2,182.964286 Z M167.7,155.714286 L109.2,155.714286 L109.2,132.357143 L167.7,132.357143 L167.7,155.714286 Z M167.7,116.785714 L167.7,124.571429 L109.2,124.571429 L109.2,89.5357143 C109.2,83.0969286 103.9506,77.8571429 97.5,77.8571429 L19.5,77.8571429 L19.5,19.4642857 C19.5,13.0255 24.7494,7.78571429 31.2,7.78571429 L202.8,7.78571429 C209.2506,7.78571429 214.5,13.0255 214.5,19.4642857 L214.5,105.107143 L179.4,105.107143 C172.9494,105.107143 167.7,110.346929 167.7,116.785714 Z M226.2,206.321429 C226.2,208.466393 224.4489,210.214286 222.3,210.214286 L179.4,210.214286 C177.2511,210.214286 175.5,208.466393 175.5,206.321429 L175.5,198.535714 L226.2,198.535714 L226.2,206.321429 Z M226.2,190.75 L175.5,190.75 L175.5,132.357143 L226.2,132.357143 L226.2,190.75 Z M226.2,124.571429 L175.5,124.571429 L175.5,116.785714 C175.5,114.64075 177.2511,112.892857 179.4,112.892857 L222.3,112.892857 C224.4489,112.892857 226.2,114.64075 226.2,116.785714 L226.2,124.571429 Z" id="Shape"></path>
                <polygon id="Rectangle" transform="translate(31.198663, 155.707378) rotate(-45.000000) translate(-31.198663, -155.707378) " points="20.1742164 151.800818 42.1281895 152.063095 42.2231096 159.613938 20.2691365 159.351661"></polygon>
                <polygon id="Rectangle" transform="translate(62.397317, 151.815312) rotate(-45.000000) translate(-62.397317, -151.815312) " points="29.3314373 147.888341 95.3684512 148.632894 95.463197 155.742284 29.4261831 154.997731"></polygon>
                <polygon id="Rectangle" transform="translate(58.495729, 128.463915) rotate(-45.000000) translate(-58.495729, -128.463915) " points="41.962081 124.552253 74.934447 124.940134 75.0293774 132.375577 42.0570113 131.987695"></polygon>
                <polygon id="Rectangle" transform="translate(196.940005, 153.768947) rotate(-45.000000) translate(-196.940005, -153.768947) " points="183.163027 149.859838 210.622046 150.185314 210.716982 157.678056 183.257964 157.352579"></polygon>
                <polygon id="Rectangle" transform="translate(204.738503, 169.356656) rotate(-45.000000) translate(-204.738503, -169.356656) " points="190.961526 165.447546 218.420544 165.773023 218.515481 173.265765 191.056462 172.940288"></polygon>
                <polygon id="Rectangle" transform="translate(116.994639, 58.393078) rotate(-45.000000) translate(-116.994639, -58.393078) " points="100.460991 54.4814163 133.433357 54.8692977 133.528288 62.3047403 100.555922 61.916859"></polygon>
                <polygon id="Rectangle" transform="translate(152.096847, 50.607491) rotate(-45.000000) translate(-152.096847, -50.607491) " points="135.563199 46.6958286 168.535565 47.08371 168.630495 54.5191526 135.658129 54.1312712"></polygon>
                <polygon id="Rectangle" transform="translate(124.794596, 77.860647) rotate(-45.000000) translate(-124.794596, -77.860647) " points="113.770149 73.9540867 135.724122 74.216364 135.819042 81.7672071 113.865069 81.5049298"></polygon>
                <polygon id="Rectangle" transform="translate(144.291781, 31.172846) rotate(-45.000000) translate(-144.291781, -31.172846) " points="133.24006 27.2662602 155.248582 27.5291682 155.343502 35.0794311 133.334981 34.8165232"></polygon>
                <rect id="Rectangle" x="27" y="15" width="8" height="8"></rect>
                <rect id="Rectangle" x="43" y="15" width="8" height="8"></rect>
                <rect id="Rectangle" x="58" y="15" width="8" height="8"></rect>
            </g>
            <polygon id="Line" fill="#FFFFFF" fill-rule="nonzero" points="1227.94269 503.113209 1257 517.498016 1228.05776 532.11298 1228.009 520.113 1002.00994 521.009901 1001.9901 516.00994 1227.99 515.113"></polygon>
            <polygon id="Line" fill="#FFFFFF" fill-rule="nonzero" points="736.979972 504.039433 766 518.499308 737.020083 533.039405 737.003 521.039 401.50346 521.503455 401.496545 516.50346 736.996 516.039"></polygon>
            <polygon id="Line" fill="#FFFFFF" fill-rule="nonzero" points="191 265 191 439 203 439 188.5 468 174 439 186 439 186 265"></polygon>
            <polygon id="Line" fill="#FFFFFF" fill-rule="nonzero" points="1614 504 1643 518.5 1614 533 1614 521 1571 521 1571 516 1614 516"></polygon>
            <g id="sw-logo-blue" transform="translate(100.000000, 76.000000)" fill="#189EFF" fill-rule="nonzero">
                <g id="_Gruppe_3">
                    <path d="M139.166847,155.972973 C131.603604,150.264865 120.409369,145.92036 108.580901,141.338018 C94.5009009,135.883604 78.4547748,129.683964 66.547027,120.154595 C52.9744144,109.340901 46.3625225,95.7207207 46.3625225,78.4695495 C46.1279479,63.4964461 53.0191943,49.3020087 64.9297297,40.2252252 C78.5499099,29.5066667 99.1942342,23.8302703 124.611171,23.8302703 C131.2815,23.8052755 137.945794,24.2343755 144.557838,25.1145946 C145.101084,25.1843917 145.626681,24.8931492 145.855513,24.3955312 C146.084345,23.8979132 145.963339,23.3093276 145.556757,22.9423423 C116.635159,-3.06031141 73.9906399,-6.768531 41.0148734,13.8517424 C8.039107,34.4720158 -7.29642913,74.4360896 3.42022165,111.822588 C14.1368724,149.209086 48.3150941,174.980291 87.2072072,175.000866 C105.904199,175.08359 124.126354,169.115223 139.150991,157.986667 C139.467906,157.752104 139.655887,157.382018 139.658378,156.987748 C139.662143,156.591258 139.480289,156.215816 139.166847,155.972973 Z" id="_Pfad_2"></path>
                    <path d="M174.144865,79.7697297 C174.115385,79.4370015 173.955852,79.1293307 173.700901,78.9135135 C155.498378,63.8028829 140.768288,57.6666667 122.867027,57.6666667 C113.353514,57.6666667 105.996396,59.5852252 101.112793,63.3589189 C96.9644464,66.4563319 94.5575005,71.3587145 94.6436036,76.5351351 C94.6436036,91.5189189 112.957117,98.3527928 134.172252,106.264865 C145.096937,110.33982 156.37045,114.557477 166.771892,120.313153 C166.955072,120.418614 167.163051,120.473345 167.374414,120.471747 C167.520442,120.468385 167.664987,120.441617 167.802523,120.392432 C168.14513,120.269174 168.417151,120.002941 168.547748,119.663063 C172.518451,109.507693 174.546164,98.6968097 174.525563,87.7927928 C174.50955,85.2558559 174.414414,82.5445045 174.144865,79.7697297 Z" id="_Pfad_3"></path>
                </g>
            </g>
            <g id="nuxt-square-white" transform="translate(765.000000, 417.000000)" fill-rule="nonzero">
                <path d="M137,49.5339678 L128.771637,64.0139305 L100.631378,14.4803773 L14.2454989,166.520031 L72.7345091,166.520031 C72.7345091,174.517093 79.1136682,181 86.9827497,181 L14.2455049,181 C9.15558568,181 4.45275518,178.238749 1.90821932,173.758808 C-0.63631653,169.278874 -0.636058058,163.759735 1.90890457,159.280053 L88.2947772,7.24038691 C90.8399142,2.76004387 95.5437726,0 100.634347,0 C105.724909,0 110.428768,2.76004387 112.973911,7.24038691 L137,49.5339618 L137,49.5339678 Z" id="Path" fill="#00C58E"></path>
                <path d="M199.110642,158.357042 L145.198051,63.4286329 L137.002952,49 L128.807865,63.4286329 L74.9011823,158.357042 C72.3665141,162.82085 72.3662566,168.320424 74.9005058,172.784477 C77.434749,177.248531 82.1185735,180 87.187916,180 L186.806182,180 C191.876572,180 196.56233,177.251536 199.098022,172.787081 C201.633708,168.322633 201.634014,162.821778 199.098812,158.357042 L199.110642,158.357042 Z M87.187904,165.571361 L137.002964,77.8572718 L186.806182,165.571361 L87.187904,165.571361 L87.187904,165.571361 Z" id="Shape" fill="#FFFFFF"></path>
                <path d="M238.090544,173.761579 C235.545104,178.239871 230.841297,181 225.75041,181 L187.019708,181 C194.891053,181 201.272031,174.518494 201.272031,166.523152 L225.720707,166.523152 L156.347526,44.4772563 L145.230706,64.0391027 L137,49.5622549 L144.007392,37.2388294 C146.553266,32.7594501 151.258468,30 156.350503,30 C161.442532,30 166.147734,32.7594501 168.693607,37.2388294 L238.09055,159.284731 C240.636483,163.763882 240.636483,169.282422 238.09055,173.761573 L238.090544,173.761579 Z" id="Path" fill="#108775"></path>
            </g>
            <g id="pwa-inverse" transform="translate(1292.000000, 468.000000)" fill-rule="nonzero">
                <polygon id="Path" fill="#FFFFFF" points="195 82.089647 202.659009 62.6866399 224.773565 62.6866399 214.278591 33.2533234 227.404439 0 265 100 237.274632 100 230.850246 82.089647"></polygon>
                <polygon id="Path" fill="#5A0FC8" points="171.630115 100 212 0 185.236151 0.000132878701 157.620817 64.6223742 137.983549 0.000265756041 117.411556 0.000265756041 96.3263568 64.6223742 81.4565828 35.1753536 68 76.5807362 81.6624376 100 108.001362 100 127.055125 42.0478127 145.221846 100"></polygon>
                <path d="M25.2596522,65.6716817 L41.6504673,65.6716817 C46.615542,65.6716817 51.0367531,65.115032 54.9141007,64.0017326 L59.1529855,50.8837949 L71,14.2211129 C70.0973084,12.7839062 69.0667445,11.4250333 67.9083084,10.144671 C61.8255703,3.38147933 52.9259848,0 41.2092808,0 L0,0 L0,100 L25.2596522,100 L25.2596522,65.6716817 Z M46.9554059,23.0060002 C49.3313379,25.4079892 50.5191684,28.6222975 50.5191684,32.6491975 C50.5191684,36.7069846 49.4743814,39.9252389 47.384943,42.3039604 C45.0943495,44.94706 40.8765961,46.2685417 34.7319538,46.2685417 L25.2596522,46.2685417 L25.2596522,19.4028126 L34.8015792,19.4028126 C40.5283338,19.4028126 44.5796094,20.6038751 46.9554059,23.0060002 Z" id="Shape" fill="#FFFFFF"></path>
            </g>
            <path d="M24.046875,526.882812 C24.046875,529.898453 22.9531359,532.249992 20.765625,533.9375 C18.5781141,535.625008 15.6093938,536.46875 11.859375,536.46875 C7.79685469,536.46875 4.67188594,535.945318 2.484375,534.898438 L2.484375,531.054688 C3.89063203,531.64844 5.42186672,532.117186 7.078125,532.460938 C8.73438328,532.804689 10.3749919,532.976562 12,532.976562 C14.6562633,532.976562 16.6562433,532.472661 18,531.464844 C19.3437567,530.457026 20.015625,529.054696 20.015625,527.257812 C20.015625,526.070307 19.7773461,525.09766 19.3007812,524.339844 C18.8242164,523.582027 18.0273493,522.882816 16.9101562,522.242188 C15.7929632,521.601559 14.0937614,520.875004 11.8125,520.0625 C8.62498406,518.921869 6.34766309,517.57032 4.98046875,516.007812 C3.61327441,514.445305 2.9296875,512.406263 2.9296875,509.890625 C2.9296875,507.249987 3.92186508,505.148445 5.90625,503.585938 C7.89063492,502.02343 10.5156087,501.242188 13.78125,501.242188 C17.187517,501.242188 20.3202982,501.867181 23.1796875,503.117188 L21.9375,506.585938 C19.1093609,505.398432 16.3593884,504.804688 13.6875,504.804688 C11.5781145,504.804688 9.92969344,505.257808 8.7421875,506.164062 C7.55468156,507.070317 6.9609375,508.328117 6.9609375,509.9375 C6.9609375,511.125006 7.17968531,512.097652 7.6171875,512.855469 C8.05468969,513.613285 8.79296355,514.308591 9.83203125,514.941406 C10.7412155,515.49512 12.0720755,516.099668 13.8246431,516.755065 L14.6015625,517.039062 C18.1953305,518.320319 20.667962,519.695305 22.0195312,521.164062 C23.3711005,522.63282 24.046875,524.539051 24.046875,526.882812 Z M46.265625,536 L45.4921875,532.34375 L45.3046875,532.34375 C44.0234311,533.953133 42.7461001,535.042966 41.4726562,535.613281 C40.1992124,536.183597 38.6093845,536.46875 36.703125,536.46875 C34.1562373,536.46875 32.1601635,535.812507 30.7148438,534.5 C29.269524,533.187493 28.546875,531.320325 28.546875,528.898438 C28.546875,523.79737 32.5581435,521.083499 40.5807988,520.756745 L45.3515625,520.601562 L45.3515625,519.007812 C45.3515625,516.992177 44.9179731,515.503911 44.0507812,514.542969 C43.1835894,513.582026 41.7968845,513.101562 39.890625,513.101562 C37.7499893,513.101562 35.3281385,513.757806 32.625,515.070312 L31.4296875,512.09375 C32.6953188,511.406247 34.0820237,510.867189 35.5898438,510.476562 C37.0976638,510.085936 38.6093674,509.890625 40.125,509.890625 C43.1875153,509.890625 45.4570239,510.570306 46.9335938,511.929688 C48.4101636,513.289069 49.1484375,515.468735 49.1484375,518.46875 L49.1484375,536 L46.265625,536 Z M37.4765625,533.257812 C39.8984496,533.257812 41.8007743,532.593757 43.1835938,531.265625 C44.5664132,529.937493 45.2578125,528.078137 45.2578125,525.6875 L45.2578125,523.367188 L41.3671875,523.53125 C38.273422,523.640626 36.0429756,524.121089 34.6757812,524.972656 C33.3085869,525.824223 32.625,527.148429 32.625,528.945312 C32.625,530.35157 33.050777,531.421871 33.9023438,532.15625 C34.7539105,532.890629 35.9453048,533.257812 37.4765625,533.257812 Z M61.0546875,536 L57.1640625,536 L57.1640625,499.53125 L61.0546875,499.53125 L61.0546875,536 Z M80.15625,536.46875 C76.359356,536.46875 73.3632922,535.312512 71.1679688,533 C68.9726453,530.687488 67.875,527.476583 67.875,523.367188 C67.875,519.226542 68.8945211,515.937512 70.9335938,513.5 C72.9726664,511.062488 75.7109203,509.84375 79.1484375,509.84375 C82.3672036,509.84375 84.9140531,510.902333 86.7890625,513.019531 C88.6640719,515.136729 89.6015625,517.92967 89.6015625,521.398438 L89.6015625,523.859375 L71.90625,523.859375 C71.9843754,526.875015 72.7460865,529.164055 74.1914062,530.726562 C75.636726,532.28907 77.6718619,533.070312 80.296875,533.070312 C83.0625138,533.070312 85.7968615,532.492193 88.5,531.335938 L88.5,534.804688 C87.1249931,535.39844 85.8242249,535.824217 84.5976562,536.082031 C83.3710876,536.339845 81.8906337,536.46875 80.15625,536.46875 Z M79.1015625,513.101562 C77.0390522,513.101562 75.3945374,513.773431 74.1679688,515.117188 C72.9414001,516.460944 72.2187511,518.320301 72,520.695312 L85.4296875,520.695312 C85.4296875,518.242175 84.882818,516.363288 83.7890625,515.058594 C82.695307,513.7539 81.1328227,513.101562 79.1015625,513.101562 Z M112.804688,528.992188 C112.804688,531.382824 111.914071,533.226556 110.132812,534.523438 C108.351554,535.820319 105.851579,536.46875 102.632812,536.46875 C99.2265455,536.46875 96.570322,535.929693 94.6640625,534.851562 L94.6640625,531.242188 C95.8984437,531.867191 97.2226492,532.359373 98.6367188,532.71875 C100.050788,533.078127 101.414056,533.257812 102.726562,533.257812 C104.757823,533.257812 106.320307,532.933597 107.414062,532.285156 C108.507818,531.636716 109.054688,530.648444 109.054688,529.320312 C109.054688,528.320308 108.621098,527.464847 107.753906,526.753906 C106.886714,526.042965 105.195325,525.20313 102.679688,524.234375 C100.289051,523.34375 98.5898488,522.56641 97.5820312,521.902344 C96.5742137,521.238278 95.8242212,520.484379 95.3320312,519.640625 C94.8398413,518.796871 94.59375,517.789068 94.59375,516.617188 C94.59375,514.523427 95.445304,512.8711 97.1484375,511.660156 C98.851571,510.449213 101.187485,509.84375 104.15625,509.84375 C106.921889,509.84375 109.624987,510.406244 112.265625,511.53125 L110.882812,514.695312 C108.304675,513.632807 105.96876,513.101562 103.875,513.101562 C102.031241,513.101562 100.64063,513.390622 99.703125,513.96875 C98.7656203,514.546878 98.296875,515.34375 98.296875,516.359375 C98.296875,517.046878 98.4726545,517.63281 98.8242188,518.117188 C99.175783,518.601565 99.7421836,519.062498 100.523438,519.5 L100.810475,519.653068 C101.594619,520.05382 102.877885,520.590202 104.660299,521.262225 L105.023438,521.398438 C108.070328,522.507818 110.128901,523.624994 111.199219,524.75 C112.269537,525.875006 112.804688,527.289054 112.804688,528.992188 Z M129.398438,536.46875 C125.679669,536.46875 122.800791,535.32423 120.761719,533.035156 C118.722646,530.746082 117.703125,527.507833 117.703125,523.320312 C117.703125,519.023416 118.738271,515.703137 120.808594,513.359375 C122.878917,511.015613 125.828106,509.84375 129.65625,509.84375 C130.890631,509.84375 132.124994,509.976561 133.359375,510.242188 C134.593756,510.507814 135.562496,510.820311 136.265625,511.179688 L135.070312,514.484375 C134.210933,514.140623 133.273443,513.85547 132.257812,513.628906 C131.242182,513.402343 130.343754,513.289062 129.5625,513.289062 C124.343724,513.289062 121.734375,516.617154 121.734375,523.273438 C121.734375,526.429703 122.371087,528.851554 123.644531,530.539062 C124.917975,532.226571 126.804675,533.070312 129.304688,533.070312 C131.445323,533.070312 133.640614,532.60938 135.890625,531.6875 L135.890625,535.132812 C134.171866,536.023442 132.007826,536.46875 129.398438,536.46875 Z M159.5625,536 L159.5625,519.382812 C159.5625,517.289052 159.085942,515.726568 158.132812,514.695312 C157.179683,513.664057 155.68751,513.148438 153.65625,513.148438 C150.953111,513.148438 148.980475,513.882805 147.738281,515.351562 C146.496088,516.82032 145.875,519.226546 145.875,522.570312 L145.875,536 L141.984375,536 L141.984375,499.53125 L145.875,499.53125 L145.875,510.570312 C145.875,511.898444 145.812501,512.999996 145.6875,513.875 L145.921875,513.875 C146.687504,512.640619 147.777337,511.667972 149.191406,510.957031 C150.605476,510.24609 152.218741,509.890625 154.03125,509.890625 C157.171891,509.890625 159.527336,510.636711 161.097656,512.128906 C162.667977,513.621101 163.453125,515.992171 163.453125,519.242188 L163.453125,536 L159.5625,536 Z M187.242188,536 L186.46875,532.34375 L186.28125,532.34375 C184.999994,533.953133 183.722663,535.042966 182.449219,535.613281 C181.175775,536.183597 179.585947,536.46875 177.679688,536.46875 C175.1328,536.46875 173.136726,535.812507 171.691406,534.5 C170.246087,533.187493 169.523438,531.320325 169.523438,528.898438 C169.523438,523.79737 173.534706,521.083499 181.557361,520.756745 L186.328125,520.601562 L186.328125,519.007812 C186.328125,516.992177 185.894536,515.503911 185.027344,514.542969 C184.160152,513.582026 182.773447,513.101562 180.867188,513.101562 C178.726552,513.101562 176.304701,513.757806 173.601562,515.070312 L172.40625,512.09375 C173.671881,511.406247 175.058586,510.867189 176.566406,510.476562 C178.074226,510.085936 179.58593,509.890625 181.101562,509.890625 C184.164078,509.890625 186.433586,510.570306 187.910156,511.929688 C189.386726,513.289069 190.125,515.468735 190.125,518.46875 L190.125,536 L187.242188,536 Z M178.453125,533.257812 C180.875012,533.257812 182.777337,532.593757 184.160156,531.265625 C185.542976,529.937493 186.234375,528.078137 186.234375,525.6875 L186.234375,523.367188 L182.34375,523.53125 C179.249985,523.640626 177.019538,524.121089 175.652344,524.972656 C174.285149,525.824223 173.601562,527.148429 173.601562,528.945312 C173.601562,530.35157 174.027339,531.421871 174.878906,532.15625 C175.730473,532.890629 176.921867,533.257812 178.453125,533.257812 Z M215.71875,536 L215.71875,519.382812 C215.71875,517.289052 215.242192,515.726568 214.289062,514.695312 C213.335933,513.664057 211.84376,513.148438 209.8125,513.148438 C207.124987,513.148438 205.156256,513.874993 203.90625,515.328125 C202.656244,516.781257 202.03125,519.179671 202.03125,522.523438 L202.03125,536 L198.140625,536 L198.140625,510.3125 L201.304688,510.3125 L201.9375,513.828125 L202.125,513.828125 C202.921879,512.562494 204.039055,511.582035 205.476562,510.886719 C206.91407,510.191403 208.515616,509.84375 210.28125,509.84375 C213.375015,509.84375 215.703117,510.589836 217.265625,512.082031 C218.828133,513.574226 219.609375,515.960921 219.609375,519.242188 L219.609375,536 L215.71875,536 Z M245.179688,536 L245.179688,519.382812 C245.179688,517.289052 244.70313,515.726568 243.75,514.695312 C242.79687,513.664057 241.304698,513.148438 239.273438,513.148438 C236.585924,513.148438 234.617194,513.874993 233.367188,515.328125 C232.117181,516.781257 231.492188,519.179671 231.492188,522.523438 L231.492188,536 L227.601562,536 L227.601562,510.3125 L230.765625,510.3125 L231.398438,513.828125 L231.585938,513.828125 C232.382816,512.562494 233.499993,511.582035 234.9375,510.886719 C236.375007,510.191403 237.976554,509.84375 239.742188,509.84375 C242.835953,509.84375 245.164055,510.589836 246.726562,512.082031 C248.28907,513.574226 249.070312,515.960921 249.070312,519.242188 L249.070312,536 L245.179688,536 Z M267.914062,536.46875 C264.117169,536.46875 261.121105,535.312512 258.925781,533 C256.730458,530.687488 255.632812,527.476583 255.632812,523.367188 C255.632812,519.226542 256.652334,515.937512 258.691406,513.5 C260.730479,511.062488 263.468733,509.84375 266.90625,509.84375 C270.125016,509.84375 272.671866,510.902333 274.546875,513.019531 C276.421884,515.136729 277.359375,517.92967 277.359375,521.398438 L277.359375,523.859375 L259.664062,523.859375 C259.742188,526.875015 260.503899,529.164055 261.949219,530.726562 C263.394538,532.28907 265.429674,533.070312 268.054688,533.070312 C270.820326,533.070312 273.554674,532.492193 276.257812,531.335938 L276.257812,534.804688 C274.882806,535.39844 273.582037,535.824217 272.355469,536.082031 C271.1289,536.339845 269.648446,536.46875 267.914062,536.46875 Z M266.859375,513.101562 C264.796865,513.101562 263.15235,513.773431 261.925781,515.117188 C260.699213,516.460944 259.976564,518.320301 259.757812,520.695312 L273.1875,520.695312 C273.1875,518.242175 272.64063,516.363288 271.546875,515.058594 C270.45312,513.7539 268.890635,513.101562 266.859375,513.101562 Z M287.882812,536 L283.992188,536 L283.992188,499.53125 L287.882812,499.53125 L287.882812,536 Z M330.726562,536 L326.460938,525.101562 L312.726562,525.101562 L308.507812,536 L304.476562,536 L318.023438,501.59375 L321.375,501.59375 L334.851562,536 L330.726562,536 Z M314.132812,521.515625 L325.21875,521.515625 L321.234375,510.898438 C320.718747,509.554681 320.187503,507.90626 319.640625,505.953125 C319.296873,507.453125 318.804691,509.101554 318.164062,510.898438 L314.132812,521.515625 Z M361.289062,511.71875 C361.289062,515.187517 360.105481,517.855459 357.738281,519.722656 C355.371082,521.589853 351.984397,522.523438 347.578125,522.523438 L343.546875,522.523438 L343.546875,536 L339.5625,536 L339.5625,501.734375 L348.445312,501.734375 C357.007855,501.734375 361.289062,505.062467 361.289062,511.71875 Z M343.546875,519.101562 L347.132812,519.101562 C350.66408,519.101562 353.218742,518.531256 354.796875,517.390625 C356.375008,516.249994 357.164062,514.421888 357.164062,511.90625 C357.164062,509.640614 356.421882,507.953131 354.9375,506.84375 C353.453118,505.734369 351.140641,505.179688 348,505.179688 L343.546875,505.179688 L343.546875,519.101562 Z M368.460938,536 L368.460938,501.734375 L372.445312,501.734375 L372.445312,536 L368.460938,536 Z" id="SaleschannelAPI" fill="#FFFFFF" fill-rule="nonzero"></path>
        </g>
    </g>
</svg>