<?xml version="1.0" encoding="UTF-8"?>
<svg width="1596px" height="975px" viewBox="0 0 1596 975" version="1.1" xmlns="http://www.w3.org/2000/svg" xmlns:xlink="http://www.w3.org/1999/xlink">
    <!-- Generator: Sketch 59.1 (86144) - https://sketch.com -->
    <title>hubble-data-flow-clientside</title>
    <desc>Created with Sketch.</desc>
    <g id="Page-1" stroke="none" stroke-width="1" fill="none" fill-rule="evenodd">
        <g id="hubble-data-flow-clientside" transform="translate(3.000000, 3.000000)">
            <text id="API" font-family="OpenSans-Regular, Open Sans" font-size="48" font-weight="normal" fill="#FFFFFF">
                <tspan x="1374" y="655">API</tspan>
            </text>
            <rect id="Rectangle" stroke="#979797" stroke-width="5" x="1" y="0" width="608" height="176"></rect>
            <text id="shopdomain.com/home" font-family="OpenSans-Regular, Open Sans" font-size="48" font-weight="normal" fill="#FFFFFF">
                <tspan x="35" y="106">shopdomain.com/home</tspan>
            </text>
            <text id="Store" font-family="OpenSans-Regular, Open Sans" font-size="48" font-weight="normal" fill="#FFFFFF">
                <tspan x="772" y="640">Store</tspan>
            </text>
            <text id="apiResourcesRoute.js" font-family="OpenSans-Regular, Open Sans" font-size="30" font-weight="normal" fill="#FFFFFF">
                <tspan x="684" y="686">apiResourcesRoute.js</tspan>
            </text>
            <rect id="Rectangle" stroke="#979797" stroke-width="5" x="651" y="552" width="360" height="176"></rect>
            <text id="Component" font-family="OpenSans-Regular, Open Sans" font-size="48" font-weight="normal" fill="#FFFFFF">
                <tspan x="51" y="640">Component</tspan>
            </text>
            <text id="ProductListing.vue" font-family="OpenSans-Regular, Open Sans" font-size="30" font-weight="normal" fill="#FFFFFF">
                <tspan x="55" y="686">ProductListing.vue</tspan>
            </text>
            <rect id="Rectangle" stroke="#979797" stroke-width="5" x="1" y="552" width="360" height="176"></rect>
            <rect id="Rectangle" stroke="#979797" stroke-width="5" x="1230" y="552" width="360" height="176"></rect>
            <text id="Event" font-family="OpenSans-Regular, Open Sans" font-size="48" font-weight="normal" fill="#FFFFFF">
                <tspan x="118" y="361">Event</tspan>
            </text>
            <text id="scroll-/-click-/-etc" font-family="OpenSans-Regular, Open Sans" font-size="30" font-weight="normal" fill="#FFFFFF">
                <tspan x="64" y="407">scroll / click / etc.</tspan>
            </text>
            <rect id="Rectangle" stroke="#979797" stroke-width="5" x="0" y="276" width="360" height="176"></rect>
            <path id="Line-2" d="M185,192 L185,232 L197,232 L182.5,261 L168,232 L180,232 L180,192 L185,192 Z" fill="#FFFFFF" fill-rule="nonzero"></path>
            <path id="Line-2" d="M184.5,466.5 L184.5,506.5 L196.5,506.5 L182,535.5 L167.5,506.5 L179.5,506.5 L179.5,466.5 L184.5,466.5 Z" fill="#FFFFFF" fill-rule="nonzero"></path>
            <path id="Line-2" d="M612.722744,589.303698 L641.749999,603.749058 L612.777357,618.303647 L612.754,606.303 L373.254713,606.754704 L373.245296,601.754713 L612.745,601.303 L612.722744,589.303698 Z" fill="#FFFFFF" fill-rule="nonzero"></path>
            <path id="Line-2" d="M1190,590 L1219,604.5 L1190,619 L1189.999,607 L1026,607 L1026,602 L1189.999,602 L1190,590 Z" fill="#FFFFFF" fill-rule="nonzero"></path>
            <path id="Line-2" d="M1057,660 L1057,672 L1221,672 L1221,677 L1057,677 L1057,689 L1028,674.5 L1057,660 Z" fill="#FFFFFF" fill-rule="nonzero"></path>
            <path id="Line-3" d="M404.722435,661.195947 L404.777463,690.195894 L375.750001,675.750949 L404.722435,661.195947 Z M432.24563,673.143742 L432.255117,678.143733 L412.255153,678.181684 L412.245666,673.181693 L432.24563,673.143742 Z M462.245576,673.086816 L462.255063,678.086807 L442.255099,678.124758 L442.245612,673.124767 L462.245576,673.086816 Z M492.245522,673.02989 L492.255009,678.029881 L472.255045,678.067832 L472.245558,673.067841 L492.245522,673.02989 Z M522.245468,672.972964 L522.254955,677.972955 L502.254991,678.010906 L502.245504,673.010915 L522.245468,672.972964 Z M552.245414,672.916038 L552.254901,677.916029 L532.254937,677.95398 L532.24545,672.953989 L552.245414,672.916038 Z M582.24536,672.859112 L582.254847,677.859103 L562.254883,677.897054 L562.245396,672.897063 L582.24536,672.859112 Z M612.245306,672.802187 L612.254793,677.802178 L592.254829,677.840128 L592.245342,672.840137 L612.245306,672.802187 Z M642.245252,672.745261 L642.254739,677.745252 L622.254775,677.783202 L622.245288,672.783211 L642.245252,672.745261 Z" fill="#FFFFFF" fill-rule="nonzero"></path>
            <path id="Line-2" d="M178.064822,742.68518 L183.06482,742.689822 L183.026,784.002 L195.026456,784.013476 L180.499536,813 L166.026469,783.986549 L178.026,783.997 L178.064822,742.68518 Z" fill="#FFFFFF" fill-rule="nonzero"></path>
            <text id="State-/-Data" font-family="OpenSans-Regular, Open Sans" font-size="30" font-weight="normal" fill="#FFFFFF">
                <tspan x="422" y="710">State / Data</tspan>
            </text>
            <text id="Dispatch-Action" font-family="OpenSans-Regular, Open Sans" font-size="30" font-weight="normal" fill="#FFFFFF">
                <tspan x="395" y="584">Dispatch Action</tspan>
            </text>
            <text id="Commit-State" font-family="OpenSans-Regular, Open Sans" font-size="30" font-weight="normal" fill="#FFFFFF">
                <tspan x="1029" y="719">Commit State</tspan>
            </text>
            <text id="Fetch" font-family="OpenSans-Regular, Open Sans" font-size="30" font-weight="normal" fill="#FFFFFF">
                <tspan x="1073" y="584">Fetch</tspan>
            </text>
            <text id="Dynamic-Import" font-family="OpenSans-Regular, Open Sans" font-size="30" font-weight="normal" fill="#FFFFFF">
                <tspan x="204" y="507">Dynamic Import</tspan>
            </text>
            <text id="Clientside-Rendering" font-family="OpenSans-Regular, Open Sans" font-size="30" font-weight="normal" fill="#FFFFFF">
                <tspan x="204" y="787">Clientside Rendering</tspan>
            </text>
            <g id="noun_tiles_330306" transform="translate(85.000000, 830.000000)" fill="#FFFFFF">
                <path d="M28.6507937,0 C12.8265079,0 0,12.8494894 0,28.7021277 L0,113.297872 C0,129.150511 12.8265079,142 28.6507937,142 L161.349206,142 C177.173492,142 190,129.150511 190,113.297872 L190,28.7021277 C190,12.8494894 177.173492,0 161.349206,0 L28.6507937,0 Z M28.6507937,9.06382979 L161.349206,9.06382979 C172.17619,9.06382979 180.952381,17.8557447 180.952381,28.7021277 L180.952381,42.2978723 L9.04761905,42.2978723 L9.04761905,28.7021277 C9.04761905,17.8557447 17.8238095,9.06382979 28.6507937,9.06382979 Z M38.3581349,22.1875 C33.6443254,22.1875 29.781746,26.057 29.781746,30.7792553 C29.781746,35.5015106 33.6443254,39.3710106 38.3581349,39.3710106 C43.0719444,39.3710106 46.8402778,35.5015106 46.8402778,30.7792553 C46.8402778,26.057 43.0719444,22.1875 38.3581349,22.1875 Z M69.0823413,22.1875 C64.3685317,22.1875 60.5059524,26.057 60.5059524,30.7792553 C60.5059524,35.5015106 64.3685317,39.3710106 69.0823413,39.3710106 C73.7961508,39.3710106 77.5644841,35.5015106 77.5644841,30.7792553 C77.5644841,26.057 73.7961508,22.1875 69.0823413,22.1875 Z M96.3194444,22.1875 C91.6086508,22.1875 87.8373016,26.057 87.8373016,30.7792553 C87.8373016,35.5015106 91.6086508,39.3710106 96.3194444,39.3710106 C101.03627,39.3710106 104.895833,35.5015106 104.895833,30.7792553 C104.895833,26.057 101.03627,22.1875 96.3194444,22.1875 Z M9.04761905,51.3617021 L180.952381,51.3617021 L180.952381,113.297872 C180.952381,124.144255 172.17619,132.93617 161.349206,132.93617 L28.6507937,132.93617 C17.8238095,132.93617 9.04761905,124.144255 9.04761905,113.297872 L9.04761905,51.3617021 Z M28.6507937,63.4468085 C22.8211111,63.4468085 18.0952381,68.1811489 18.0952381,74.0212766 L18.0952381,113.297872 C18.0952381,119.138 22.8211111,123.87234 28.6507937,123.87234 L52.7777778,123.87234 C58.6074603,123.87234 63.3333333,119.138 63.3333333,113.297872 L63.3333333,74.0212766 C63.3333333,68.1811489 58.6074603,63.4468085 52.7777778,63.4468085 L28.6507937,63.4468085 Z M82.9365079,63.4468085 C77.1068254,63.4468085 72.3809524,68.1811489 72.3809524,74.0212766 L72.3809524,113.297872 C72.3809524,119.138 77.1068254,123.87234 82.9365079,123.87234 L107.063492,123.87234 C112.890159,123.87234 117.619048,119.138 117.619048,113.297872 L117.619048,74.0212766 C117.619048,68.1811489 112.890159,63.4468085 107.063492,63.4468085 L82.9365079,63.4468085 Z M137.222222,63.4468085 C131.39254,63.4468085 126.666667,68.1811489 126.666667,74.0212766 L126.666667,113.297872 C126.666667,119.138 131.39254,123.87234 137.222222,123.87234 L161.349206,123.87234 C167.178889,123.87234 171.904762,119.138 171.904762,113.297872 L171.904762,74.0212766 C171.904762,68.1811489 167.178889,63.4468085 161.349206,63.4468085 L137.222222,63.4468085 Z M28.6507937,72.5106383 L52.7777778,72.5106383 C53.6101587,72.5106383 54.2857143,73.1874043 54.2857143,74.0212766 L54.2857143,113.297872 C54.2857143,114.131745 53.6101587,114.808511 52.7777778,114.808511 L28.6507937,114.808511 C27.8184127,114.808511 27.1428571,114.131745 27.1428571,113.297872 L27.1428571,74.0212766 C27.1428571,73.1874043 27.8184127,72.5106383 28.6507937,72.5106383 Z M82.9365079,72.5106383 L107.063492,72.5106383 C107.895873,72.5106383 108.571429,73.1874043 108.571429,74.0212766 L108.571429,113.297872 C108.571429,114.131745 107.895873,114.808511 107.063492,114.808511 L82.9365079,114.808511 C82.104127,114.808511 81.4285714,114.131745 81.4285714,113.297872 L81.4285714,74.0212766 C81.4285714,73.1874043 82.104127,72.5106383 82.9365079,72.5106383 Z M137.222222,72.5106383 L161.349206,72.5106383 C162.181587,72.5106383 162.857143,73.1874043 162.857143,74.0212766 L162.857143,113.297872 C162.857143,114.131745 162.181587,114.808511 161.349206,114.808511 L137.222222,114.808511 C136.389841,114.808511 135.714286,114.131745 135.714286,113.297872 L135.714286,74.0212766 C135.714286,73.1874043 136.389841,72.5106383 137.222222,72.5106383 Z" id="Shape"></path>
            </g>
        </g>
    </g>
</svg>